{
DisplayStrings = (
"a@",
"C/uni2318 E"
);
classes = (
{
automatic = 1;
code = "A AE AEacute Aacute Abreve Acircumflex Adieresis Agrave Amacron Aogonek Aring Aringacute Atilde B C Cacute Ccaron Ccedilla Ccircumflex Cdotaccent D Dcaron Dcroat E Eacute Ebreve Ecaron Ecircumflex Edieresis Edotaccent Egrave Emacron Eng Eogonek Eth Etilde F G G.alt Gbreve Gcircumflex Gcommaaccent Gdotaccent H Hbar Hcircumflex I IJ J Iacute Ibreve Icircumflex Idieresis Idotaccent Igrave Imacron Iogonek Itilde Jcircumflex K Kcommaaccent L Lacute Lcaron Lcommaaccent Ldot Lslash M N Nacute Ncaron Ncommaaccent Ndotaccent Ntilde O OE Oacute Obreve Ocircumflex Odieresis Ograve Ohungarumlaut Omacron Oogonek Oslash Oslashacute Otilde P Q R Racute Rcaron Rcommaaccent S Sacute Scaron Scircumflex T Tbar Tcaron Thorn U Uacute Ubreve Ucircumflex Udieresis Ugrave Uhungarumlaut Umacron Uogonek Uring Utilde V W Wacute Wcircumflex Wdieresis Wgrave X Y Yacute Ycircumflex Ydieresis Ygrave Ytilde Z Zacute Zcaron Zdotaccent uni0218 uni021A Schwa uni01F1 uni01F2 uni01C7 uni01C8 uni01CA uni01CB uni01C4 uni01C5 Adblgrave Ainvertedbreve Ddotbelow Edotbelow Edblgrave Einvertedbreve Gacute Hdotbelow Idotbelow Idblgrave Iinvertedbreve Odotbelow Odblgrave Oinvertedbreve Rdotbelow Rdblgrave Rinvertedbreve Sdotbelow Tdotbelow Udotbelow Udblgrave Uinvertedbreve Zdotbelow Delta uni0394 Omega uni03A9 uni0402 uni0403 uni0404 uni0405 uni0406 uni0407 uni0408 uni0409 uni040A uni040B uni040C uni040D uni040E uni040F uni0410 uni0411 uni0412 uni0413 uni0414 uni0415 uni0416 uni0417 uni0418 uni0419 uni041A uni041B uni041C uni041D uni041E uni041F uni0420 uni0421 uni0422 uni0423 uni0424 uni0425 uni0426 uni0427 uni0428 uni0429 uni042A uni042B uni042C uni042D uni042E uni042F uni0490 uni04B0 uni0400 uni0401 Scedilla Tcedilla";
name = Uppercase;
}
);

glyphs = (
{
glyphname = A;
lastChange = "2015-11-08 21:02:15 +0000";
layers = (
{
anchors = (
{
name = ogonek;
position = "{609, 10}";
},
{
name = top;
position = "{339, 710}";
}
);
layerId = "BB6A41DF-B2B0-47BB-BB25-47FFE7E0E8E0";
name = Regular;
paths = (
{
closed = 1;
nodes = (
"10 0 LINE",
"106 0 LINE",
"189 208 LINE",
"487 208 LINE",
"571 0 LINE",
"667 0 LINE",
"377 710 LINE",
"301 710 LINE"
);
},
{
closed = 1;
nodes = (
"207 278 LINE",
"339 606 LINE",
"467 278 LINE"
);
}
);
width = 677;
}
);
leftKerningGroup = A;
rightKerningGroup = A;
unicode = 0041;
},
{
glyphname = AE;
lastChange = "2015-11-08 21:02:15 +0000";
layers = (
{
anchors = (
{
name = top;
position = "{481, 710}";
}
);
layerId = "BB6A41DF-B2B0-47BB-BB25-47FFE7E0E8E0";
name = Regular;
paths = (
{
closed = 1;
nodes = (
"-25 0 LINE",
"73 0 LINE",
"203 208 LINE",
"452 208 LINE",
"452 0 LINE",
"925 0 LINE",
"925 80 LINE",
"541 80 LINE",
"541 322 LINE",
"862 322 LINE",
"862 402 LINE",
"541 402 LINE",
"541 630 LINE",
"916 630 LINE",
"916 710 LINE",
"428 710 LINE"
);
},
{
closed = 1;
nodes = (
"243 288 LINE",
"446 605 LINE",
"446 288 LINE"
);
}
);
width = 961;
}
);
leftKerningGroup = AE;
rightKerningGroup = AE;
unicode = 00C6;
},
{
glyphname = acute;
lastChange = "2015-11-08 21:02:15 +0000";
layers = (
{
anchors = (
{
name = _top;
position = "{49, 522}";
}
);
layerId = "BB6A41DF-B2B0-47BB-BB25-47FFE7E0E8E0";
name = Regular;
paths = (
{
closed = 1;
nodes = (
"224 751 LINE",
"118 751 LINE",
"29 596 LINE",
"79 596 LINE"
);
}
);
width = 232;
}
);
unicode = 00B4;
},
{
glyphname = breve;
lastChange = "2015-11-08 21:02:15 +0000";
layers = (
{
anchors = (
{
name = _top;
position = "{148, 522}";
}
);
layerId = "BB6A41DF-B2B0-47BB-BB25-47FFE7E0E8E0";
name = Regular;
paths = (
{
closed = 1;
nodes = (
"107 662 OFFCURVE",
"71 704 OFFCURVE",
"71 751 CURVE",
"4 751 LINE",
"4 668 OFFCURVE",
"66 605 OFFCURVE",
"146 605 CURVE SMOOTH",
"226 605 OFFCURVE",
"288 668 OFFCURVE",
"288 751 CURVE",
"222 751 LINE",
"217 700 OFFCURVE",
"184 662 OFFCURVE",
"146 662 CURVE SMOOTH"
);
}
);
width = 296;
}
);
unicode = 02D8;
},
{
glyphname = circumflex;
lastChange = "2015-11-08 21:02:15 +0000";
layers = (
{
anchors = (
{
name = _top;
position = "{172, 522}";
}
);
layerId = "BB6A41DF-B2B0-47BB-BB25-47FFE7E0E8E0";
name = Regular;
paths = (
{
closed = 1;
nodes = (
"210 751 LINE",
"134 751 LINE",
"-11 596 LINE",
"95 596 LINE",
"172 710 LINE",
"249 596 LINE",
"355 596 LINE"
);
}
);
width = 342;
}
);
unicode = 02C6;
},
{
glyphname = dieresis;
lastChange = "2015-11-08 21:02:15 +0000";
layers = (
{
anchors = (
{
name = _top;
position = "{185, 522}";
}
);
layerId = "BB6A41DF-B2B0-47BB-BB25-47FFE7E0E8E0";
name = Regular;
paths = (
{
closed = 1;
nodes = (
"328 612 OFFCURVE",
"354 639 OFFCURVE",
"354 670 CURVE SMOOTH",
"354 701 OFFCURVE",
"328 728 OFFCURVE",
"297 728 CURVE SMOOTH",
"266 728 OFFCURVE",
"240 701 OFFCURVE",
"240 670 CURVE SMOOTH",
"240 639 OFFCURVE",
"266 612 OFFCURVE",
"297 612 CURVE SMOOTH"
);
},
{
closed = 1;
nodes = (
"103 614 OFFCURVE",
"129 641 OFFCURVE",
"129 672 CURVE SMOOTH",
"129 703 OFFCURVE",
"103 730 OFFCURVE",
"72 730 CURVE SMOOTH",
"41 730 OFFCURVE",
"15 703 OFFCURVE",
"15 672 CURVE SMOOTH",
"15 641 OFFCURVE",
"41 614 OFFCURVE",
"72 614 CURVE SMOOTH"
);
}
);
width = 368;
}
);
unicode = 00A8;
},
{
glyphname = grave;
lastChange = "2015-11-08 21:02:15 +0000";
layers = (
{
anchors = (
{
name = _top;
position = "{191, 522}";
}
);
layerId = "BB6A41DF-B2B0-47BB-BB25-47FFE7E0E8E0";
name = Regular;
paths = (
{
closed = 1;
nodes = (
"208 596 LINE",
"119 751 LINE",
"13 751 LINE",
"158 596 LINE"
);
}
);
width = 232;
}
);
unicode = 0060;
},
{
glyphname = macron;
lastChange = "2015-11-08 21:02:15 +0000";
layers = (
{
anchors = (
{
name = _top;
position = "{202, 522}";
}
);
layerId = "BB6A41DF-B2B0-47BB-BB25-47FFE7E0E8E0";
name = Regular;
paths = (
{
closed = 1;
nodes = (
"348 654 LINE",
"348 712 LINE",
"56 712 LINE",
"56 654 LINE"
);
}
);
width = 403;
}
);
unicode = 00AF;
},
{
glyphname = ogonek;
lastChange = "2015-11-08 21:02:15 +0000";
layers = (
{
anchors = (
{
name = _ogonek;
position = "{203, 10}";
}
);
layerId = "BB6A41DF-B2B0-47BB-BB25-47FFE7E0E8E0";
name = Regular;
paths = (
{
closed = 1;
nodes = (
"164 -135 LINE",
"127 -131 OFFCURVE",
"109 -116 OFFCURVE",
"109 -92 CURVE SMOOTH",
"109 -63 OFFCURVE",
"133 -36 OFFCURVE",
"191 0 CURVE",
"165 18 LINE",
"91 -24 OFFCURVE",
"58 -64 OFFCURVE",
"58 -104 CURVE SMOOTH",
"58 -141 OFFCURVE",
"87 -171 OFFCURVE",
"142 -181 CURVE"
);
}
);
width = 255;
}
);
unicode = 02DB;
},
{
glyphname = ring;
lastChange = "2015-11-08 21:02:15 +0000";
layers = (
{
anchors = (
{
name = _top;
position = "{130, 522}";
}
);
layerId = "BB6A41DF-B2B0-47BB-BB25-47FFE7E0E8E0";
name = Regular;
paths = (
{
closed = 1;
nodes = (
"35 626 OFFCURVE",
"73 596 OFFCURVE",
"126 596 CURVE SMOOTH",
"181 596 OFFCURVE",
"218 626 OFFCURVE",
"218 674 CURVE SMOOTH",
"218 721 OFFCURVE",
"181 752 OFFCURVE",
"126 752 CURVE SMOOTH",
"73 752 OFFCURVE",
"35 721 OFFCURVE",
"35 674 CURVE SMOOTH"
);
},
{
closed = 1;
nodes = (
"153 717 OFFCURVE",
"173 700 OFFCURVE",
"173 674 CURVE SMOOTH",
"173 649 OFFCURVE",
"150 631 OFFCURVE",
"126 631 CURVE SMOOTH",
"101 631 OFFCURVE",
"81 650 OFFCURVE",
"81 674 CURVE SMOOTH",
"81 700 OFFCURVE",
"102 717 OFFCURVE",
"126 717 CURVE SMOOTH"
);
}
);
width = 252;
}
);
unicode = 02DA;
},
{
glyphname = Aringacute;
lastChange = "2015-11-08 21:02:15 +0000";
layers = (
{
layerId = "BB6A41DF-B2B0-47BB-BB25-47FFE7E0E8E0";
name = Regular;
paths = (
{
closed = 1;
nodes = (
"285 817 OFFCURVE",
"257 783 OFFCURVE",
"257 748 CURVE SMOOTH",
"257 721 OFFCURVE",
"270 701 OFFCURVE",
"292 689 CURVE",
"10 0 LINE",
"106 0 LINE",
"189 208 LINE",
"487 208 LINE",
"571 0 LINE",
"667 0 LINE",
"385 690 LINE",
"406 701 OFFCURVE",
"419 722 OFFCURVE",
"419 748 CURVE SMOOTH",
"419 773 OFFCURVE",
"407 792 OFFCURVE",
"387 804 CURVE",
"517 940 LINE",
"405 940 LINE",
"337 817 LINE"
);
},
{
closed = 1;
nodes = (
"207 278 LINE",
"339 606 LINE",
"467 278 LINE"
);
},
{
closed = 1;
nodes = (
"361 786 OFFCURVE",
"379 771 OFFCURVE",
"379 748 CURVE SMOOTH",
"379 726 OFFCURVE",
"359 710 OFFCURVE",
"338 710 CURVE SMOOTH",
"315 710 OFFCURVE",
"298 727 OFFCURVE",
"298 748 CURVE SMOOTH",
"298 771 OFFCURVE",
"316 786 OFFCURVE",
"338 786 CURVE SMOOTH"
);
}
);
width = 677;
}
);
leftKerningGroup = A;
rightKerningGroup = A;
unicode = 01FA;
},
{
glyphname = tilde;
lastChange = "2015-11-08 21:02:15 +0000";
layers = (
{
anchors = (
{
name = _top;
position = "{208, 522}";
}
);
layerId = "BB6A41DF-B2B0-47BB-BB25-47FFE7E0E8E0";
name = Regular;
paths = (
{
closed = 1;
nodes = (
"355 627 OFFCURVE",
"376 715 OFFCURVE",
"376 730 CURVE",
"324 730 LINE",
"324 726 OFFCURVE",
"319 681 OFFCURVE",
"268 681 CURVE SMOOTH",
"219 681 OFFCURVE",
"196 724 OFFCURVE",
"139 724 CURVE SMOOTH",
"60 724 OFFCURVE",
"40 638 OFFCURVE",
"40 621 CURVE",
"92 621 LINE",
"92 625 OFFCURVE",
"97 669 OFFCURVE",
"141 669 CURVE SMOOTH",
"184 669 OFFCURVE",
"210 627 OFFCURVE",
"270 627 CURVE SMOOTH"
);
}
);
width = 415;
}
);
unicode = 02DC;
},
{
glyphname = B;
lastChange = "2015-11-08 21:02:15 +0000";
layers = (
{
layerId = "BB6A41DF-B2B0-47BB-BB25-47FFE7E0E8E0";
name = Regular;
paths = (
{
closed = 1;
nodes = (
"630 271 OFFCURVE",
"579 340 OFFCURVE",
"498 364 CURVE",
"563 393 OFFCURVE",
"600 459 OFFCURVE",
"600 529 CURVE SMOOTH",
"600 618 OFFCURVE",
"538 710 OFFCURVE",
"438 710 CURVE SMOOTH",
"85 710 LINE",
"85 0 LINE",
"422 0 LINE SMOOTH",
"536 0 OFFCURVE",
"630 73 OFFCURVE",
"630 183 CURVE SMOOTH"
);
},
{
closed = 1;
nodes = (
"539 135 OFFCURVE",
"488 78 OFFCURVE",
"422 78 CURVE SMOOTH",
"175 78 LINE",
"175 322 LINE",
"429 322 LINE SMOOTH",
"492 322 OFFCURVE",
"539 264 OFFCURVE",
"539 199 CURVE SMOOTH"
);
},
{
closed = 1;
nodes = (
"407 632 LINE SMOOTH",
"467 632 OFFCURVE",
"511 580 OFFCURVE",
"511 513 CURVE SMOOTH",
"511 448 OFFCURVE",
"464 395 OFFCURVE",
"401 395 CURVE SMOOTH",
"175 395 LINE",
"175 632 LINE"
);
}
);
width = 671;
}
);
leftKerningGroup = B;
rightKerningGroup = B;
unicode = 0042;
},
{
glyphname = C;
lastChange = "2015-11-08 21:02:15 +0000";
layers = (
{
anchors = (
{
name = bottom;
position = "{341, 0}";
},
{
name = top;
position = "{377, 714}";
}
);
layerId = "BB6A41DF-B2B0-47BB-BB25-47FFE7E0E8E0";
name = Regular;
paths = (
{
closed = 1;
nodes = (
"39 180 OFFCURVE",
"177 -6 OFFCURVE",
"372 -6 CURVE SMOOTH",
"482 -6 OFFCURVE",
"609 53 OFFCURVE",
"654 159 CURVE",
"579 200 LINE",
"538 112 OFFCURVE",
"450 75 OFFCURVE",
"376 75 CURVE SMOOTH",
"235 75 OFFCURVE",
"130 208 OFFCURVE",
"130 356 CURVE SMOOTH",
"130 490 OFFCURVE",
"215 633 OFFCURVE",
"373 633 CURVE SMOOTH",
"445 633 OFFCURVE",
"528 603 OFFCURVE",
"570 513 CURVE",
"641 559 LINE",
"597 650 OFFCURVE",
"503 714 OFFCURVE",
"377 714 CURVE SMOOTH",
"163 714 OFFCURVE",
"39 532 OFFCURVE",
"39 360 CURVE SMOOTH"
);
}
);
width = 682;
}
);
leftKerningGroup = C;
rightKerningGroup = C;
unicode = 0043;
},
{
glyphname = caron;
lastChange = "2015-11-08 21:02:15 +0000";
layers = (
{
anchors = (
{
name = _top;
position = "{172, 522}";
}
);
layerId = "BB6A41DF-B2B0-47BB-BB25-47FFE7E0E8E0";
name = Regular;
paths = (
{
closed = 1;
nodes = (
"249 751 LINE",
"172 637 LINE",
"95 751 LINE",
"-11 751 LINE",
"134 596 LINE",
"210 596 LINE",
"355 751 LINE"
);
}
);
width = 342;
}
);
unicode = 02C7;
},
{
glyphname = cedilla;
lastChange = "2015-11-08 21:02:15 +0000";
layers = (
{
anchors = (
{
name = _bottom;
position = "{128, 0}";
}
);
layerId = "BB6A41DF-B2B0-47BB-BB25-47FFE7E0E8E0";
name = Regular;
paths = (
{
closed = 1;
nodes = (
"22 -163 LINE",
"48 -173 OFFCURVE",
"83 -182 OFFCURVE",
"123 -182 CURVE SMOOTH",
"195 -182 OFFCURVE",
"233 -153 OFFCURVE",
"233 -107 CURVE SMOOTH",
"233 -64 OFFCURVE",
"201 -43 OFFCURVE",
"154 -43 CURVE SMOOTH",
"144 -43 OFFCURVE",
"129 -44 OFFCURVE",
"118 -48 CURVE",
"153 7 LINE",
"114 21 LINE",
"56 -88 LINE",
"73 -83 OFFCURVE",
"108 -75 OFFCURVE",
"136 -75 CURVE SMOOTH",
"166 -75 OFFCURVE",
"187 -84 OFFCURVE",
"187 -110 CURVE SMOOTH",
"187 -135 OFFCURVE",
"166 -145 OFFCURVE",
"130 -145 CURVE SMOOTH",
"95 -145 OFFCURVE",
"59 -135 OFFCURVE",
"42 -126 CURVE"
);
}
);
width = 296;
}
);
unicode = 00B8;
},
{
glyphname = dotaccent;
lastChange = "2015-11-08 21:02:15 +0000";
layers = (
{
anchors = (
{
name = _top;
position = "{89, 522}";
}
);
layerId = "BB6A41DF-B2B0-47BB-BB25-47FFE7E0E8E0";
name = Regular;
paths = (
{
closed = 1;
nodes = (
"120 614 OFFCURVE",
"146 641 OFFCURVE",
"146 672 CURVE SMOOTH",
"146 703 OFFCURVE",
"120 730 OFFCURVE",
"89 730 CURVE SMOOTH",
"58 730 OFFCURVE",
"32 703 OFFCURVE",
"32 672 CURVE SMOOTH",
"32 641 OFFCURVE",
"58 614 OFFCURVE",
"89 614 CURVE SMOOTH"
);
}
);
width = 180;
}
);
unicode = 02D9;
},
{
glyphname = D;
lastChange = "2015-11-08 21:02:15 +0000";
layers = (
{
anchors = (
{
name = center;
position = "{358, 355}";
},
{
name = top;
position = "{358, 710}";
}
);
layerId = "BB6A41DF-B2B0-47BB-BB25-47FFE7E0E8E0";
name = Regular;
paths = (
{
closed = 1;
nodes = (
"331 0 LINE SMOOTH",
"540 0 OFFCURVE",
"674 141 OFFCURVE",
"674 356 CURVE SMOOTH",
"674 552 OFFCURVE",
"559 710 OFFCURVE",
"331 710 CURVE SMOOTH",
"85 710 LINE",
"85 0 LINE"
);
},
{
closed = 1;
nodes = (
"583 199 OFFCURVE",
"495 80 OFFCURVE",
"331 80 CURVE SMOOTH",
"175 80 LINE",
"175 630 LINE",
"331 630 LINE SMOOTH",
"492 630 OFFCURVE",
"583 516 OFFCURVE",
"583 356 CURVE SMOOTH"
);
}
);
width = 716;
}
);
leftKerningGroup = B;
rightKerningGroup = D;
unicode = 0044;
},
{
glyphname = Dcroat;
lastChange = "2015-11-08 21:02:15 +0000";
layers = (
{
layerId = "BB6A41DF-B2B0-47BB-BB25-47FFE7E0E8E0";
name = Regular;
paths = (
{
closed = 1;
nodes = (
"337 0 LINE SMOOTH",
"546 0 OFFCURVE",
"680 141 OFFCURVE",
"680 356 CURVE SMOOTH",
"680 552 OFFCURVE",
"565 710 OFFCURVE",
"337 710 CURVE SMOOTH",
"91 710 LINE",
"91 391 LINE",
"34 391 LINE",
"34 323 LINE",
"91 323 LINE",
"91 0 LINE"
);
},
{
closed = 1;
nodes = (
"589 199 OFFCURVE",
"501 80 OFFCURVE",
"337 80 CURVE SMOOTH",
"181 80 LINE",
"181 323 LINE",
"342 323 LINE",
"342 391 LINE",
"181 391 LINE",
"181 630 LINE",
"337 630 LINE SMOOTH",
"498 630 OFFCURVE",
"589 516 OFFCURVE",
"589 356 CURVE SMOOTH"
);
}
);
width = 722;
}
);
leftKerningGroup = B;
rightKerningGroup = D;
unicode = 0110;
},
{
glyphname = E;
lastChange = "2015-11-08 21:02:15 +0000";
layers = (
{
anchors = (
{
name = bottom;
position = "{303, 0}";
},
{
name = ogonek;
position = "{544, 10}";
},
{
name = top;
position = "{326, 710}";
}
);
layerId = "BB6A41DF-B2B0-47BB-BB25-47FFE7E0E8E0";
name = Regular;
paths = (
{
closed = 1;
nodes = (
"175 80 LINE",
"175 325 LINE",
"508 325 LINE",
"508 400 LINE",
"175 400 LINE",
"175 630 LINE",
"558 630 LINE",
"558 710 LINE",
"85 710 LINE",
"85 0 LINE",
"567 0 LINE",
"567 80 LINE"
);
}
);
width = 605;
}
);
leftKerningGroup = B;
rightKerningGroup = AE;
unicode = 0045;
},
{
glyphname = Eng;
lastChange = "2015-11-08 21:02:15 +0000";
layers = (
{
layerId = "BB6A41DF-B2B0-47BB-BB25-47FFE7E0E8E0";
name = Regular;
paths = (
{
closed = 1;
nodes = (
"589 15 LINE",
"589 -23 LINE SMOOTH",
"589 -72 OFFCURVE",
"547 -108 OFFCURVE",
"504 -108 CURVE SMOOTH",
"480 -108 OFFCURVE",
"454 -102 OFFCURVE",
"436 -85 CURVE",
"395 -144 LINE",
"427 -173 OFFCURVE",
"469 -186 OFFCURVE",
"514 -186 CURVE SMOOTH",
"598 -186 OFFCURVE",
"677 -118 OFFCURVE",
"677 -20 CURVE SMOOTH",
"677 709 LINE",
"587 709 LINE",
"587 161 LINE",
"154 710 LINE",
"85 710 LINE",
"85 0 LINE",
"175 0 LINE",
"175 540 LINE"
);
}
);
width = 762;
}
);
leftKerningGroup = B;
rightKerningGroup = Eng;
unicode = 014A;
},
{
glyphname = Eth;
lastChange = "2015-11-08 21:02:15 +0000";
layers = (
{
layerId = "BB6A41DF-B2B0-47BB-BB25-47FFE7E0E8E0";
name = Regular;
paths = (
{
closed = 1;
nodes = (
"337 0 LINE SMOOTH",
"546 0 OFFCURVE",
"680 141 OFFCURVE",
"680 356 CURVE SMOOTH",
"680 552 OFFCURVE",
"565 710 OFFCURVE",
"337 710 CURVE SMOOTH",
"91 710 LINE",
"91 391 LINE",
"34 391 LINE",
"34 323 LINE",
"91 323 LINE",
"91 0 LINE"
);
},
{
closed = 1;
nodes = (
"589 199 OFFCURVE",
"501 80 OFFCURVE",
"337 80 CURVE SMOOTH",
"181 80 LINE",
"181 323 LINE",
"342 323 LINE",
"342 391 LINE",
"181 391 LINE",
"181 630 LINE",
"337 630 LINE SMOOTH",
"498 630 OFFCURVE",
"589 516 OFFCURVE",
"589 356 CURVE SMOOTH"
);
}
);
width = 722;
}
);
leftKerningGroup = B;
rightKerningGroup = D;
unicode = 00D0;
},
{
glyphname = Euro;
lastChange = "2015-11-08 21:02:15 +0000";
layers = (
{
layerId = "BB6A41DF-B2B0-47BB-BB25-47FFE7E0E8E0";
name = Regular;
paths = (
{
closed = 1;
nodes = (
"79 422 LINE",
"57 370 LINE",
"130 370 LINE",
"130 360 LINE SMOOTH",
"130 343 OFFCURVE",
"131 327 OFFCURVE",
"133 311 CURVE",
"55 311 LINE",
"33 259 LINE",
"144 259 LINE",
"184 116 OFFCURVE",
"304 -6 OFFCURVE",
"463 -6 CURVE SMOOTH",
"573 -6 OFFCURVE",
"700 53 OFFCURVE",
"745 159 CURVE",
"670 200 LINE",
"629 112 OFFCURVE",
"541 75 OFFCURVE",
"467 75 CURVE SMOOTH",
"358 75 OFFCURVE",
"270 154 OFFCURVE",
"236 259 CURVE",
"485 259 LINE",
"507 311 LINE",
"224 311 LINE",
"222 325 OFFCURVE",
"221 341 OFFCURVE",
"221 356 CURVE SMOOTH",
"221 370 LINE",
"520 370 LINE",
"542 422 LINE",
"227 422 LINE",
"250 533 OFFCURVE",
"332 633 OFFCURVE",
"464 633 CURVE SMOOTH",
"536 633 OFFCURVE",
"619 603 OFFCURVE",
"661 513 CURVE",
"732 559 LINE",
"688 650 OFFCURVE",
"594 714 OFFCURVE",
"468 714 CURVE SMOOTH",
"279 714 OFFCURVE",
"161 573 OFFCURVE",
"135 422 CURVE"
);
}
);
width = 795;
}
);
unicode = 20AC;
},
{
glyphname = F;
lastChange = "2015-11-08 21:02:15 +0000";
layers = (
{
layerId = "BB6A41DF-B2B0-47BB-BB25-47FFE7E0E8E0";
name = Regular;
paths = (
{
closed = 1;
nodes = (
"175 0 LINE",
"175 318 LINE",
"494 318 LINE",
"494 393 LINE",
"175 393 LINE",
"175 630 LINE",
"554 630 LINE",
"554 710 LINE",
"85 710 LINE",
"85 0 LINE"
);
}
);
width = 583;
}
);
leftKerningGroup = B;
rightKerningGroup = F;
unicode = 0046;
},
{
glyphname = G;
lastChange = "2015-11-08 21:02:15 +0000";
layers = (
{
anchors = (
{
name = bottom;
position = "{381, -5}";
},
{
name = top;
position = "{379, 715}";
}
);
layerId = "BB6A41DF-B2B0-47BB-BB25-47FFE7E0E8E0";
name = Regular;
paths = (
{
closed = 1;
nodes = (
"559 -4 OFFCURVE",
"745 85 OFFCURVE",
"745 353 CURVE",
"454 353 LINE",
"454 271 LINE",
"645 271 LINE",
"645 154 OFFCURVE",
"516 78 OFFCURVE",
"397 78 CURVE SMOOTH",
"248 78 OFFCURVE",
"123 209 OFFCURVE",
"123 355 CURVE SMOOTH",
"123 494 OFFCURVE",
"230 632 OFFCURVE",
"386 632 CURVE SMOOTH",
"480 632 OFFCURVE",
"566 589 OFFCURVE",
"610 510 CURVE",
"688 556 LINE",
"635 647 OFFCURVE",
"536 715 OFFCURVE",
"391 715 CURVE SMOOTH",
"181 715 OFFCURVE",
"29 550 OFFCURVE",
"29 359 CURVE SMOOTH",
"29 173 OFFCURVE",
"184 -4 OFFCURVE",
"389 -4 CURVE SMOOTH"
);
}
);
width = 760;
}
);
leftKerningGroup = C;
rightKerningGroup = G.alt;
unicode = 0047;
},
{
glyphname = G.alt;
lastChange = "2015-11-08 21:02:15 +0000";
layers = (
{
anchors = (
{
name = bottom;
position = "{357, 0}";
},
{
name = top;
position = "{357, 710}";
}
);
layerId = "BB6A41DF-B2B0-47BB-BB25-47FFE7E0E8E0";
name = Regular;
paths = (
{
closed = 1;
nodes = (
"586 0 LINE",
"662 0 LINE",
"662 354 LINE",
"433 354 LINE",
"433 286 LINE",
"586 286 LINE",
"586 188 LINE",
"523 112 OFFCURVE",
"453 76 OFFCURVE",
"377 76 CURVE SMOOTH",
"237 76 OFFCURVE",
"130 203 OFFCURVE",
"130 355 CURVE SMOOTH",
"130 499 OFFCURVE",
"223 634 OFFCURVE",
"368 634 CURVE SMOOTH",
"455 634 OFFCURVE",
"530 594 OFFCURVE",
"572 512 CURVE",
"641 560 LINE",
"595 652 OFFCURVE",
"507 715 OFFCURVE",
"370 715 CURVE SMOOTH",
"180 715 OFFCURVE",
"39 548 OFFCURVE",
"39 357 CURVE SMOOTH",
"39 174 OFFCURVE",
"182 -5 OFFCURVE",
"370 -5 CURVE SMOOTH",
"452 -5 OFFCURVE",
"523 28 OFFCURVE",
"586 96 CURVE"
);
}
);
width = 714;
}
);
leftKerningGroup = C;
rightKerningGroup = G;
},
{
glyphname = commaaccent;
lastChange = "2015-11-08 21:02:15 +0000";
layers = (
{
anchors = (
{
name = _bottom;
position = "{99, 0}";
}
);
layerId = "BB6A41DF-B2B0-47BB-BB25-47FFE7E0E8E0";
name = Regular;
paths = (
{
closed = 1;
nodes = (
"67 -214 LINE",
"17 -214 LINE",
"65 -49 LINE",
"135 -49 LINE"
);
}
);
width = 168;
}
);
unicode = F6C3;
},
{
glyphname = H;
lastChange = "2015-11-08 21:02:15 +0000";
layers = (
{
anchors = (
{
name = center;
position = "{371, 355}";
},
{
name = top;
position = "{371, 710}";
}
);
layerId = "BB6A41DF-B2B0-47BB-BB25-47FFE7E0E8E0";
name = Regular;
paths = (
{
closed = 1;
nodes = (
"566 710 LINE",
"566 403 LINE",
"175 403 LINE",
"175 710 LINE",
"85 710 LINE",
"85 0 LINE",
"175 0 LINE",
"175 323 LINE",
"566 323 LINE",
"566 0 LINE",
"656 0 LINE",
"656 710 LINE"
);
}
);
width = 741;
}
);
leftKerningGroup = B;
rightKerningGroup = Eng;
unicode = 0048;
},
{
glyphname = Hbar;
lastChange = "2015-11-08 21:02:15 +0000";
layers = (
{
layerId = "BB6A41DF-B2B0-47BB-BB25-47FFE7E0E8E0";
name = Regular;
paths = (
{
closed = 1;
nodes = (
"571 710 LINE",
"571 595 LINE",
"180 595 LINE",
"180 710 LINE",
"90 710 LINE",
"90 595 LINE",
"40 595 LINE",
"40 548 LINE",
"90 548 LINE",
"90 0 LINE",
"180 0 LINE",
"180 323 LINE",
"571 323 LINE",
"571 0 LINE",
"661 0 LINE",
"661 548 LINE",
"711 548 LINE",
"711 595 LINE",
"661 595 LINE",
"661 710 LINE"
);
},
{
closed = 1;
nodes = (
"180 403 LINE",
"180 548 LINE",
"571 548 LINE",
"571 403 LINE"
);
}
);
width = 751;
}
);
leftKerningGroup = B;
rightKerningGroup = Eng;
unicode = 0126;
},
{
glyphname = I;
lastChange = "2015-11-08 21:02:15 +0000";
layers = (
{
anchors = (
{
name = ogonek;
position = "{234, 10}";
},
{
name = top;
position = "{130, 710}";
}
);
layerId = "BB6A41DF-B2B0-47BB-BB25-47FFE7E0E8E0";
name = Regular;
paths = (
{
closed = 1;
nodes = (
"175 0 LINE",
"175 710 LINE",
"85 710 LINE",
"85 0 LINE"
);
}
);
width = 260;
}
);
leftKerningGroup = B;
rightKerningGroup = Eng;
unicode = 0049;
},
{
glyphname = J;
lastChange = "2015-11-08 21:02:15 +0000";
layers = (
{
anchors = (
{
name = top;
position = "{395, 710}";
}
);
layerId = "BB6A41DF-B2B0-47BB-BB25-47FFE7E0E8E0";
name = Regular;
paths = (
{
closed = 1;
nodes = (
"351 710 LINE",
"351 234 LINE",
"351 121 OFFCURVE",
"280 77 OFFCURVE",
"203 77 CURVE",
"140 77 OFFCURVE",
"92 118 OFFCURVE",
"73 175 CURVE",
"-8 137 LINE",
"24 52 OFFCURVE",
"110 -9 OFFCURVE",
"203 -9 CURVE",
"327 -9 OFFCURVE",
"445 68 OFFCURVE",
"441 229 CURVE",
"441 710 LINE"
);
}
);
width = 485;
}
);
leftKerningGroup = J;
rightKerningGroup = IJ;
unicode = 004A;
},
{
glyphname = K;
lastChange = "2015-11-08 21:02:15 +0000";
layers = (
{
anchors = (
{
name = bottom;
position = "{326, 0}";
},
{
name = top;
position = "{326, 710}";
}
);
layerId = "BB6A41DF-B2B0-47BB-BB25-47FFE7E0E8E0";
name = Regular;
paths = (
{
closed = 1;
nodes = (
"175 0 LINE",
"175 217 LINE",
"298 345 LINE",
"556 0 LINE",
"654 0 LINE",
"353 397 LINE",
"638 710 LINE",
"541 710 LINE",
"175 317 LINE",
"175 709 LINE",
"85 709 LINE",
"85 0 LINE"
);
}
);
width = 652;
}
);
leftKerningGroup = B;
rightKerningGroup = K;
unicode = 004B;
},
{
glyphname = L;
lastChange = "2015-11-08 21:02:15 +0000";
layers = (
{
anchors = (
{
name = bottom;
position = "{292, 0}";
},
{
name = top;
position = "{128, 710}";
},
{
name = topright;
position = "{230, 522}";
}
);
layerId = "BB6A41DF-B2B0-47BB-BB25-47FFE7E0E8E0";
name = Regular;
paths = (
{
closed = 1;
nodes = (
"571 0 LINE",
"571 80 LINE",
"175 80 LINE",
"175 710 LINE",
"85 710 LINE",
"85 0 LINE"
);
}
);
width = 584;
}
);
leftKerningGroup = B;
rightKerningGroup = L;
unicode = 004C;
},
{
glyphname = caron.alt;
lastChange = "2015-11-08 21:02:15 +0000";
layers = (
{
anchors = (
{
name = _topright;
position = "{54, 522}";
}
);
layerId = "BB6A41DF-B2B0-47BB-BB25-47FFE7E0E8E0";
name = Regular;
paths = (
{
closed = 1;
nodes = (
"178 711 LINE",
"95 711 LINE",
"60 557 LINE",
"125 557 LINE"
);
}
);
width = 232;
}
);
},
{
glyphname = periodcentered;
lastChange = "2015-11-08 21:02:15 +0000";
layers = (
{
anchors = (
{
name = middle;
position = "{4, 304}";
}
);
layerId = "BB6A41DF-B2B0-47BB-BB25-47FFE7E0E8E0";
name = Regular;
paths = (
{
closed = 1;
nodes = (
"136 244 OFFCURVE",
"164 272 OFFCURVE",
"164 306 CURVE SMOOTH",
"164 341 OFFCURVE",
"136 369 OFFCURVE",
"101 369 CURVE SMOOTH",
"66 369 OFFCURVE",
"39 341 OFFCURVE",
"39 306 CURVE SMOOTH",
"39 272 OFFCURVE",
"66 244 OFFCURVE",
"101 244 CURVE SMOOTH"
);
}
);
width = 202;
}
);
leftKerningGroup = periodcentered;
rightKerningGroup = periodcentered;
unicode = 00B7;
},
{
glyphname = Lslash;
lastChange = "2015-11-08 21:02:15 +0000";
layers = (
{
components = (
{
name = L;
transform = "{1, 0, 0, 1, 7, 0}";
}
);
layerId = "BB6A41DF-B2B0-47BB-BB25-47FFE7E0E8E0";
name = Regular;
paths = (
{
closed = 1;
nodes = (
"7 281 LINE",
"42 237 LINE",
"358 481 LINE",
"324 523 LINE"
);
}
);
width = 591;
}
);
leftKerningGroup = B;
rightKerningGroup = L;
unicode = 0141;
},
{
glyphname = M;
lastChange = "2015-11-08 21:02:15 +0000";
layers = (
{
layerId = "BB6A41DF-B2B0-47BB-BB25-47FFE7E0E8E0";
name = Regular;
paths = (
{
closed = 1;
nodes = (
"789 0 LINE",
"789 710 LINE",
"695 710 LINE",
"437 249 LINE",
"180 710 LINE",
"85 710 LINE",
"85 0 LINE",
"175 0 LINE",
"175 549 LINE",
"412 128 LINE",
"463 128 LINE",
"699 549 LINE",
"699 0 LINE"
);
}
);
width = 874;
}
);
leftKerningGroup = B;
rightKerningGroup = Eng;
unicode = 004D;
},
{
glyphname = N;
lastChange = "2015-11-08 21:02:15 +0000";
layers = (
{
anchors = (
{
name = bottom;
position = "{385, 0}";
},
{
name = top;
position = "{377, 710}";
}
);
layerId = "BB6A41DF-B2B0-47BB-BB25-47FFE7E0E8E0";
name = Regular;
paths = (
{
closed = 1;
nodes = (
"609 0 LINE",
"685 0 LINE",
"685 709 LINE",
"595 709 LINE",
"595 157 LINE",
"155 710 LINE",
"85 710 LINE",
"85 0 LINE",
"175 0 LINE",
"175 542 LINE"
);
}
);
width = 770;
}
);
leftKerningGroup = B;
rightKerningGroup = Eng;
unicode = 004E;
},
{
glyphname = O;
lastChange = "2015-11-08 21:02:15 +0000";
layers = (
{
anchors = (
{
name = top;
position = "{374, 710}";
}
);
layerId = "BB6A41DF-B2B0-47BB-BB25-47FFE7E0E8E0";
name = Regular;
paths = (
{
closed = 1;
nodes = (
"565 -5 OFFCURVE",
"708 165 OFFCURVE",
"708 354 CURVE SMOOTH",
"708 532 OFFCURVE",
"574 715 OFFCURVE",
"375 715 CURVE SMOOTH",
"183 715 OFFCURVE",
"39 544 OFFCURVE",
"39 355 CURVE SMOOTH",
"39 173 OFFCURVE",
"174 -5 OFFCURVE",
"373 -5 CURVE SMOOTH"
);
},
{
closed = 1;
nodes = (
"130 493 OFFCURVE",
"223 633 OFFCURVE",
"374 633 CURVE SMOOTH",
"518 633 OFFCURVE",
"617 500 OFFCURVE",
"617 355 CURVE SMOOTH",
"617 218 OFFCURVE",
"525 76 OFFCURVE",
"374 76 CURVE SMOOTH",
"227 76 OFFCURVE",
"130 210 OFFCURVE",
"130 355 CURVE SMOOTH"
);
}
);
width = 748;
}
);
leftKerningGroup = C;
rightKerningGroup = O;
unicode = 004F;
},
{
glyphname = OE;
lastChange = "2015-11-08 21:02:15 +0000";
layers = (
{
layerId = "BB6A41DF-B2B0-47BB-BB25-47FFE7E0E8E0";
name = Regular;
paths = (
{
closed = 1;
nodes = (
"710 80 LINE",
"710 322 LINE",
"1031 322 LINE",
"1031 402 LINE",
"710 402 LINE",
"710 630 LINE",
"1085 630 LINE",
"1085 710 LINE",
"620 710 LINE",
"620 553 LINE",
"576 643 OFFCURVE",
"487 715 OFFCURVE",
"375 715 CURVE SMOOTH",
"183 715 OFFCURVE",
"39 544 OFFCURVE",
"39 355 CURVE SMOOTH",
"39 173 OFFCURVE",
"175 -5 OFFCURVE",
"374 -5 CURVE SMOOTH",
"483 -5 OFFCURVE",
"575 65 OFFCURVE",
"620 157 CURVE",
"620 0 LINE",
"1094 0 LINE",
"1094 80 LINE"
);
},
{
closed = 1;
nodes = (
"227 76 OFFCURVE",
"130 210 OFFCURVE",
"130 355 CURVE SMOOTH",
"130 493 OFFCURVE",
"223 634 OFFCURVE",
"374 634 CURVE SMOOTH",
"518 634 OFFCURVE",
"617 500 OFFCURVE",
"617 356 CURVE SMOOTH",
"617 217 OFFCURVE",
"525 76 OFFCURVE",
"374 76 CURVE SMOOTH"
);
}
);
width = 1131;
}
);
leftKerningGroup = C;
rightKerningGroup = AE;
unicode = 0152;
},
{
glyphname = hungarumlaut;
lastChange = "2015-11-08 21:02:15 +0000";
layers = (
{
anchors = (
{
name = _top;
position = "{119, 522}";
}
);
layerId = "BB6A41DF-B2B0-47BB-BB25-47FFE7E0E8E0";
name = Regular;
paths = (
{
closed = 1;
nodes = (
"369 751 LINE",
"263 751 LINE",
"174 596 LINE",
"224 596 LINE"
);
},
{
closed = 1;
nodes = (
"202 751 LINE",
"96 751 LINE",
"7 596 LINE",
"57 596 LINE"
);
}
);
width = 338;
}
);
unicode = 02DD;
},
{
glyphname = Oslash;
lastChange = "2015-11-08 21:02:15 +0000";
layers = (
{
components = (
{
name = O;
}
);
layerId = "BB6A41DF-B2B0-47BB-BB25-47FFE7E0E8E0";
name = Regular;
paths = (
{
closed = 1;
nodes = (
"564 710 LINE",
"85 0 LINE",
"183 0 LINE",
"663 710 LINE"
);
}
);
width = 748;
}
);
leftKerningGroup = C;
rightKerningGroup = O;
unicode = 00D8;
},
{
glyphname = slash;
lastChange = "2015-11-08 21:02:15 +0000";
layers = (
{
layerId = "BB6A41DF-B2B0-47BB-BB25-47FFE7E0E8E0";
name = Regular;
paths = (
{
closed = 1;
nodes = (
"331 740 LINE",
"11 0 LINE SMOOTH",
"87 -28 LINE SMOOTH",
"411 713 LINE"
);
}
);
width = 420;
}
);
leftKerningGroup = slash;
rightKerningGroup = slash;
unicode = 002F;
},
{
glyphname = P;
lastChange = "2015-11-08 21:02:15 +0000";
layers = (
{
layerId = "BB6A41DF-B2B0-47BB-BB25-47FFE7E0E8E0";
name = Regular;
paths = (
{
closed = 1;
nodes = (
"175 0 LINE",
"175 255 LINE",
"387 255 LINE SMOOTH",
"512 255 OFFCURVE",
"596 366 OFFCURVE",
"596 483 CURVE SMOOTH",
"596 595 OFFCURVE",
"506 710 OFFCURVE",
"381 710 CURVE SMOOTH",
"85 710 LINE",
"85 0 LINE"
);
},
{
closed = 1;
nodes = (
"175 630 LINE",
"376 630 LINE SMOOTH",
"445 630 OFFCURVE",
"505 567 OFFCURVE",
"505 483 CURVE SMOOTH",
"505 402 OFFCURVE",
"456 335 OFFCURVE",
"382 335 CURVE SMOOTH",
"175 335 LINE"
);
}
);
width = 623;
}
);
leftKerningGroup = B;
rightKerningGroup = P;
unicode = 0050;
},
{
glyphname = Q;
lastChange = "2015-11-08 21:02:15 +0000";
layers = (
{
layerId = "BB6A41DF-B2B0-47BB-BB25-47FFE7E0E8E0";
name = Regular;
paths = (
{
closed = 1;
nodes = (
"636 -26 LINE",
"691 10 LINE",
"612 103 LINE",
"672 169 OFFCURVE",
"708 259 OFFCURVE",
"708 354 CURVE SMOOTH",
"708 532 OFFCURVE",
"574 715 OFFCURVE",
"375 715 CURVE SMOOTH",
"183 715 OFFCURVE",
"39 544 OFFCURVE",
"39 355 CURVE SMOOTH",
"39 173 OFFCURVE",
"174 -4 OFFCURVE",
"373 -5 CURVE SMOOTH",
"445 -5 OFFCURVE",
"510 19 OFFCURVE",
"563 58 CURVE"
);
},
{
closed = 1;
nodes = (
"227 76 OFFCURVE",
"130 210 OFFCURVE",
"130 355 CURVE SMOOTH",
"130 493 OFFCURVE",
"223 634 OFFCURVE",
"374 634 CURVE SMOOTH",
"518 634 OFFCURVE",
"617 500 OFFCURVE",
"617 355 CURVE SMOOTH",
"617 288 OFFCURVE",
"595 221 OFFCURVE",
"556 169 CURVE",
"493 243 LINE",
"437 208 LINE",
"509 121 LINE",
"472 93 OFFCURVE",
"426 76 OFFCURVE",
"374 76 CURVE SMOOTH"
);
}
);
width = 746;
}
);
leftKerningGroup = C;
rightKerningGroup = O;
unicode = 0051;
},
{
glyphname = R;
lastChange = "2015-11-08 21:02:15 +0000";
layers = (
{
anchors = (
{
name = bottom;
position = "{329, 0}";
},
{
name = top;
position = "{302, 710}";
}
);
layerId = "BB6A41DF-B2B0-47BB-BB25-47FFE7E0E8E0";
name = Regular;
paths = (
{
closed = 1;
nodes = (
"175 0 LINE",
"175 255 LINE",
"363 255 LINE",
"525 0 LINE",
"627 0 LINE",
"455 272 LINE",
"545 295 OFFCURVE",
"604 384 OFFCURVE",
"604 483 CURVE SMOOTH",
"604 595 OFFCURVE",
"514 710 OFFCURVE",
"389 710 CURVE SMOOTH",
"85 710 LINE",
"85 0 LINE"
);
},
{
closed = 1;
nodes = (
"175 630 LINE",
"384 630 LINE SMOOTH",
"453 630 OFFCURVE",
"513 563 OFFCURVE",
"513 483 CURVE SMOOTH",
"513 405 OFFCURVE",
"464 335 OFFCURVE",
"390 335 CURVE SMOOTH",
"175 335 LINE"
);
}
);
width = 657;
}
);
leftKerningGroup = B;
rightKerningGroup = R;
unicode = 0052;
},
{
glyphname = S;
lastChange = "2015-11-08 21:02:15 +0000";
layers = (
{
anchors = (
{
name = bottom;
position = "{305, 0}";
},
{
name = top;
position = "{305, 710}";
}
);
layerId = "BB6A41DF-B2B0-47BB-BB25-47FFE7E0E8E0";
name = Regular;
paths = (
{
closed = 1;
nodes = (
"544 634 LINE",
"484 683 OFFCURVE",
"406 715 OFFCURVE",
"311 715 CURVE SMOOTH",
"164 715 OFFCURVE",
"56 641 OFFCURVE",
"56 505 CURVE SMOOTH",
"56 392 OFFCURVE",
"131 353 OFFCURVE",
"275 318 CURVE SMOOTH",
"407 286 OFFCURVE",
"480 262 OFFCURVE",
"480 182 CURVE SMOOTH",
"480 111 OFFCURVE",
"421 74 OFFCURVE",
"320 74 CURVE SMOOTH",
"212 74 OFFCURVE",
"115 124 OFFCURVE",
"72 169 CURVE",
"29 93 LINE",
"109 28 OFFCURVE",
"209 -7 OFFCURVE",
"318 -7 CURVE SMOOTH",
"464 -7 OFFCURVE",
"576 54 OFFCURVE",
"576 191 CURVE SMOOTH",
"576 319 OFFCURVE",
"484 361 OFFCURVE",
"336 394 CURVE SMOOTH",
"208 423 OFFCURVE",
"149 443 OFFCURVE",
"149 519 CURVE SMOOTH",
"149 591 OFFCURVE",
"199 635 OFFCURVE",
"309 635 CURVE SMOOTH",
"394 635 OFFCURVE",
"469 598 OFFCURVE",
"502 561 CURVE"
);
}
);
width = 609;
}
);
leftKerningGroup = S;
rightKerningGroup = S;
unicode = 0053;
},
{
glyphname = T;
lastChange = "2015-11-08 21:02:15 +0000";
layers = (
{
anchors = (
{
name = bottom;
position = "{307, 0}";
},
{
name = center;
position = "{307, 355}";
},
{
name = top;
position = "{307, 710}";
}
);
layerId = "BB6A41DF-B2B0-47BB-BB25-47FFE7E0E8E0";
name = Regular;
paths = (
{
closed = 1;
nodes = (
"597 710 LINE",
"17 710 LINE",
"17 630 LINE",
"262 630 LINE",
"262 0 LINE",
"352 0 LINE",
"352 630 LINE",
"597 630 LINE"
);
}
);
width = 614;
}
);
leftKerningGroup = T;
rightKerningGroup = T;
unicode = 0054;
},
{
glyphname = Tbar;
lastChange = "2015-11-08 21:02:15 +0000";
layers = (
{
layerId = "BB6A41DF-B2B0-47BB-BB25-47FFE7E0E8E0";
name = Regular;
paths = (
{
closed = 1;
nodes = (
"611 710 LINE",
"31 710 LINE",
"31 630 LINE",
"276 630 LINE",
"276 397 LINE",
"65 397 LINE",
"65 350 LINE",
"276 350 LINE",
"276 0 LINE",
"366 0 LINE",
"366 350 LINE",
"577 350 LINE",
"577 397 LINE",
"366 397 LINE",
"366 630 LINE",
"611 630 LINE"
);
}
);
width = 642;
}
);
leftKerningGroup = T;
rightKerningGroup = T;
unicode = 0166;
},
{
glyphname = Thorn;
lastChange = "2015-11-08 21:02:15 +0000";
layers = (
{
layerId = "BB6A41DF-B2B0-47BB-BB25-47FFE7E0E8E0";
name = Regular;
paths = (
{
closed = 1;
nodes = (
"175 573 LINE",
"175 710 LINE",
"85 710 LINE",
"85 0 LINE",
"175 0 LINE",
"175 118 LINE",
"369 118 LINE SMOOTH",
"494 118 OFFCURVE",
"578 228 OFFCURVE",
"578 346 CURVE SMOOTH",
"578 458 OFFCURVE",
"488 573 OFFCURVE",
"363 573 CURVE SMOOTH"
);
},
{
closed = 1;
nodes = (
"175 198 LINE",
"175 493 LINE",
"359 493 LINE SMOOTH",
"429 493 OFFCURVE",
"488 426 OFFCURVE",
"488 346 CURVE SMOOTH",
"488 269 OFFCURVE",
"440 198 OFFCURVE",
"365 198 CURVE SMOOTH"
);
}
);
width = 604;
}
);
leftKerningGroup = B;
rightKerningGroup = Thorn;
unicode = 00DE;
},
{
glyphname = U;
lastChange = "2015-11-08 21:02:15 +0000";
layers = (
{
anchors = (
{
name = ogonek;
position = "{679, 10}";
},
{
name = top;
position = "{378, 710}";
}
);
layerId = "BB6A41DF-B2B0-47BB-BB25-47FFE7E0E8E0";
name = Regular;
paths = (
{
closed = 1;
nodes = (
"215 76 OFFCURVE",
"165 211 OFFCURVE",
"165 351 CURVE SMOOTH",
"165 710 LINE",
"75 710 LINE",
"75 351 LINE SMOOTH",
"75 169 OFFCURVE",
"152 -5 OFFCURVE",
"378 -5 CURVE SMOOTH",
"596 -5 OFFCURVE",
"680 159 OFFCURVE",
"680 351 CURVE SMOOTH",
"680 710 LINE",
"590 710 LINE",
"590 351 LINE SMOOTH",
"590 215 OFFCURVE",
"542 76 OFFCURVE",
"377 76 CURVE SMOOTH"
);
}
);
width = 755;
}
);
leftKerningGroup = U;
rightKerningGroup = U;
unicode = 0055;
},
{
glyphname = Uacute;
lastChange = "2015-11-08 21:02:15 +0000";
layers = (
{
components = (
{
name = U;
}
);
layerId = "BB6A41DF-B2B0-47BB-BB25-47FFE7E0E8E0";
name = Regular;
paths = (
{
closed = 1;
nodes = (
"553 939 LINE",
"447 939 LINE",
"358 784 LINE",
"408 784 LINE"
);
}
);
width = 755;
}
);
leftKerningGroup = U;
rightKerningGroup = U;
unicode = 00DA;
},
{
glyphname = V;
lastChange = "2015-11-08 21:02:15 +0000";
layers = (
{
layerId = "BB6A41DF-B2B0-47BB-BB25-47FFE7E0E8E0";
name = Regular;
paths = (
{
closed = 1;
nodes = (
"10 710 LINE",
"301 0 LINE",
"379 0 LINE",
"669 710 LINE",
"574 710 LINE",
"340 113 LINE",
"105 710 LINE"
);
}
);
width = 680;
}
);
leftKerningGroup = V;
rightKerningGroup = V;
unicode = 0056;
},
{
glyphname = W;
lastChange = "2015-11-08 21:02:15 +0000";
layers = (
{
anchors = (
{
name = top;
position = "{539, 710}";
}
);
layerId = "BB6A41DF-B2B0-47BB-BB25-47FFE7E0E8E0";
name = Regular;
paths = (
{
closed = 1;
nodes = (
"957 710 LINE",
"779 133 LINE",
"584 710 LINE",
"486 710 LINE",
"298 133 LINE",
"119 710 LINE",
"18 710 LINE",
"243 0 LINE",
"337 0 LINE",
"536 573 LINE",
"740 0 LINE",
"834 0 LINE",
"1059 710 LINE"
);
}
);
width = 1077;
}
);
leftKerningGroup = W.alt;
rightKerningGroup = W.alt;
unicode = 0057;
},
{
glyphname = X;
lastChange = "2015-11-08 21:02:15 +0000";
layers = (
{
layerId = "BB6A41DF-B2B0-47BB-BB25-47FFE7E0E8E0";
name = Regular;
paths = (
{
closed = 1;
nodes = (
"3 710 LINE",
"270 350 LINE",
"11 0 LINE",
"111 0 LINE",
"319 286 LINE",
"527 0 LINE",
"626 0 LINE",
"367 350 LINE",
"634 710 LINE",
"535 710 LINE",
"319 414 LINE",
"103 710 LINE"
);
}
);
width = 637;
}
);
leftKerningGroup = X;
rightKerningGroup = X;
unicode = 0058;
},
{
glyphname = Y;
lastChange = "2015-11-08 21:02:15 +0000";
layers = (
{
anchors = (
{
name = top;
position = "{328, 710}";
}
);
layerId = "BB6A41DF-B2B0-47BB-BB25-47FFE7E0E8E0";
name = Regular;
paths = (
{
closed = 1;
nodes = (
"13 710 LINE",
"282 261 LINE",
"282 0 LINE",
"372 0 LINE",
"372 259 LINE",
"642 710 LINE",
"544 710 LINE",
"327 340 LINE",
"112 710 LINE"
);
}
);
width = 655;
}
);
leftKerningGroup = Y;
rightKerningGroup = Y;
unicode = 0059;
},
{
glyphname = Z;
lastChange = "2015-11-08 21:02:15 +0000";
layers = (
{
anchors = (
{
name = top;
position = "{316, 710}";
}
);
layerId = "BB6A41DF-B2B0-47BB-BB25-47FFE7E0E8E0";
name = Regular;
paths = (
{
closed = 1;
nodes = (
"32 0 LINE",
"595 0 LINE",
"595 80 LINE",
"145 80 LINE",
"595 640 LINE",
"595 710 LINE",
"41 710 LINE",
"41 630 LINE",
"490 630 LINE",
"32 70 LINE"
);
}
);
width = 631;
}
);
leftKerningGroup = Z;
rightKerningGroup = Z;
unicode = 005A;
},
{
glyphname = a;
lastChange = "2015-11-08 21:02:15 +0000";
layers = (
{
anchors = (
{
name = ogonek;
position = "{494, 10}";
},
{
name = top;
position = "{275, 522}";
}
);
layerId = "BB6A41DF-B2B0-47BB-BB25-47FFE7E0E8E0";
name = Regular;
paths = (
{
closed = 1;
nodes = (
"484 0 LINE",
"484 321 LINE SMOOTH",
"484 447 OFFCURVE",
"407 531 OFFCURVE",
"266 531 CURVE SMOOTH",
"191 531 OFFCURVE",
"123 503 OFFCURVE",
"63 463 CURVE",
"92 406 LINE",
"149 446 OFFCURVE",
"204 467 OFFCURVE",
"258 467 CURVE SMOOTH",
"345 467 OFFCURVE",
"396 413 OFFCURVE",
"396 330 CURVE SMOOTH",
"396 288 LINE",
"369 300 OFFCURVE",
"317 314 OFFCURVE",
"250 314 CURVE SMOOTH",
"142 314 OFFCURVE",
"30 263 OFFCURVE",
"30 153 CURVE SMOOTH",
"30 61 OFFCURVE",
"106 -10 OFFCURVE",
"205 -10 CURVE SMOOTH",
"281 -10 OFFCURVE",
"354 18 OFFCURVE",
"399 79 CURVE",
"399 0 LINE"
);
},
{
closed = 1;
nodes = (
"346 76 OFFCURVE",
"282 56 OFFCURVE",
"228 56 CURVE SMOOTH",
"167 56 OFFCURVE",
"114 98 OFFCURVE",
"114 160 CURVE SMOOTH",
"114 232 OFFCURVE",
"193 261 OFFCURVE",
"263 261 CURVE SMOOTH",
"306 261 OFFCURVE",
"353 253 OFFCURVE",
"396 236 CURVE",
"396 159 LINE SMOOTH",
"396 147 OFFCURVE",
"389 133 OFFCURVE",
"377 120 CURVE"
);
}
);
width = 549;
}
);
leftKerningGroup = a;
rightKerningGroup = a.alt2;
unicode = 0061;
},
{
glyphname = a.alt;
lastChange = "2015-11-08 21:02:15 +0000";
layers = (
{
layerId = "BB6A41DF-B2B0-47BB-BB25-47FFE7E0E8E0";
name = Regular;
paths = (
{
closed = 1;
nodes = (
"366 -10 OFFCURVE",
"430 33 OFFCURVE",
"467 99 CURVE",
"467 0 LINE",
"555 0 LINE",
"555 517 LINE",
"467 517 LINE",
"467 417 LINE",
"430 484 OFFCURVE",
"361 531 OFFCURVE",
"277 531 CURVE SMOOTH",
"142 531 OFFCURVE",
"37 409 OFFCURVE",
"37 260 CURVE SMOOTH",
"37 115 OFFCURVE",
"139 -10 OFFCURVE",
"285 -10 CURVE SMOOTH"
);
},
{
closed = 1;
nodes = (
"467 182 LINE",
"438 116 OFFCURVE",
"381 66 OFFCURVE",
"305 66 CURVE SMOOTH",
"202 66 OFFCURVE",
"128 155 OFFCURVE",
"128 259 CURVE SMOOTH",
"128 355 OFFCURVE",
"198 455 OFFCURVE",
"302 455 CURVE SMOOTH",
"375 455 OFFCURVE",
"439 402 OFFCURVE",
"467 330 CURVE"
);
}
);
width = 625;
}
);
leftKerningGroup = a.alt;
rightKerningGroup = a.alt;
},
{
glyphname = a.alt2;
lastChange = "2015-11-08 21:02:15 +0000";
layers = (
{
layerId = "BB6A41DF-B2B0-47BB-BB25-47FFE7E0E8E0";
name = Regular;
paths = (
{
closed = 1;
nodes = (
"286 -10 OFFCURVE",
"361 24 OFFCURVE",
"408 86 CURVE",
"410 49 LINE",
"414 20 OFFCURVE",
"435 -4 OFFCURVE",
"470 -4 CURVE SMOOTH",
"483 -4 OFFCURVE",
"494 -3 OFFCURVE",
"512 0 CURVE",
"512 76 LINE",
"492 77 OFFCURVE",
"484 86 OFFCURVE",
"484 108 CURVE SMOOTH",
"484 321 LINE SMOOTH",
"484 453 OFFCURVE",
"402 531 OFFCURVE",
"266 531 CURVE SMOOTH",
"197 531 OFFCURVE",
"130 508 OFFCURVE",
"63 463 CURVE",
"92 406 LINE",
"149 446 OFFCURVE",
"204 467 OFFCURVE",
"258 467 CURVE SMOOTH",
"345 467 OFFCURVE",
"396 415 OFFCURVE",
"396 330 CURVE SMOOTH",
"396 288 LINE",
"356 304 OFFCURVE",
"301 314 OFFCURVE",
"250 314 CURVE SMOOTH",
"121 314 OFFCURVE",
"30 248 OFFCURVE",
"30 153 CURVE SMOOTH",
"30 61 OFFCURVE",
"106 -10 OFFCURVE",
"205 -10 CURVE SMOOTH"
);
},
{
closed = 1;
nodes = (
"163 56 OFFCURVE",
"114 101 OFFCURVE",
"114 160 CURVE SMOOTH",
"114 220 OFFCURVE",
"175 261 OFFCURVE",
"263 261 CURVE SMOOTH",
"308 261 OFFCURVE",
"355 252 OFFCURVE",
"396 236 CURVE",
"396 159 LINE SMOOTH",
"396 147 OFFCURVE",
"389 132 OFFCURVE",
"377 120 CURVE",
"349 81 OFFCURVE",
"290 56 OFFCURVE",
"228 56 CURVE SMOOTH"
);
}
);
width = 554;
}
);
leftKerningGroup = a;
rightKerningGroup = a;
},
{
glyphname = ae;
lastChange = "2015-11-08 21:02:15 +0000";
layers = (
{
layerId = "BB6A41DF-B2B0-47BB-BB25-47FFE7E0E8E0";
name = Regular;
paths = (
{
closed = 1;
nodes = (
"282 -10 OFFCURVE",
"381 23 OFFCURVE",
"426 103 CURVE",
"472 35 OFFCURVE",
"550 -10 OFFCURVE",
"644 -10 CURVE SMOOTH",
"749 -10 OFFCURVE",
"838 45 OFFCURVE",
"872 122 CURVE",
"796 143 LINE",
"774 91 OFFCURVE",
"711 56 OFFCURVE",
"647 56 CURVE SMOOTH",
"550 56 OFFCURVE",
"469 128 OFFCURVE",
"461 231 CURVE",
"904 231 LINE",
"905 237 OFFCURVE",
"906 253 OFFCURVE",
"906 261 CURVE",
"905 408 OFFCURVE",
"799 531 OFFCURVE",
"641 531 CURVE SMOOTH",
"559 531 OFFCURVE",
"490 493 OFFCURVE",
"446 436 CURVE",
"413 496 OFFCURVE",
"350 531 OFFCURVE",
"265 531 CURVE SMOOTH",
"197 531 OFFCURVE",
"130 508 OFFCURVE",
"62 463 CURVE",
"91 406 LINE",
"149 446 OFFCURVE",
"204 467 OFFCURVE",
"257 467 CURVE SMOOTH",
"334 467 OFFCURVE",
"382 427 OFFCURVE",
"392 360 CURVE",
"384 341 OFFCURVE",
"380 315 OFFCURVE",
"378 294 CURVE",
"341 306 OFFCURVE",
"294 314 OFFCURVE",
"249 314 CURVE SMOOTH",
"120 314 OFFCURVE",
"30 248 OFFCURVE",
"30 153 CURVE SMOOTH",
"30 61 OFFCURVE",
"106 -10 OFFCURVE",
"204 -10 CURVE SMOOTH"
);
},
{
closed = 1;
nodes = (
"163 56 OFFCURVE",
"113 101 OFFCURVE",
"113 160 CURVE SMOOTH",
"113 220 OFFCURVE",
"174 261 OFFCURVE",
"262 261 CURVE SMOOTH",
"301 261 OFFCURVE",
"342 254 OFFCURVE",
"378 242 CURVE",
"379 217 OFFCURVE",
"385 177 OFFCURVE",
"396 155 CURVE",
"395 144 OFFCURVE",
"388 131 OFFCURVE",
"377 120 CURVE",
"348 81 OFFCURVE",
"290 56 OFFCURVE",
"227 56 CURVE SMOOTH"
);
},
{
closed = 1;
nodes = (
"460 288 LINE",
"466 391 OFFCURVE",
"541 465 OFFCURVE",
"640 465 CURVE SMOOTH",
"739 465 OFFCURVE",
"814 392 OFFCURVE",
"822 288 CURVE"
);
}
);
width = 933;
}
);
leftKerningGroup = a;
rightKerningGroup = ae;
unicode = 00E6;
},
{
glyphname = aeacute;
lastChange = "2015-11-08 21:02:15 +0000";
layers = (
{
components = (
{
name = acute;
transform = "{1, 0, 0, 1, 392, 0}";
}
);
layerId = "BB6A41DF-B2B0-47BB-BB25-47FFE7E0E8E0";
name = Regular;
paths = (
{
closed = 1;
nodes = (
"282 -10 OFFCURVE",
"381 23 OFFCURVE",
"426 103 CURVE",
"472 35 OFFCURVE",
"550 -10 OFFCURVE",
"644 -10 CURVE SMOOTH",
"749 -10 OFFCURVE",
"838 45 OFFCURVE",
"872 122 CURVE",
"796 143 LINE",
"774 91 OFFCURVE",
"711 56 OFFCURVE",
"647 56 CURVE SMOOTH",
"550 56 OFFCURVE",
"469 128 OFFCURVE",
"461 231 CURVE",
"904 231 LINE",
"905 237 OFFCURVE",
"906 253 OFFCURVE",
"906 261 CURVE",
"905 408 OFFCURVE",
"799 531 OFFCURVE",
"641 531 CURVE SMOOTH",
"559 531 OFFCURVE",
"490 493 OFFCURVE",
"446 436 CURVE",
"413 496 OFFCURVE",
"350 531 OFFCURVE",
"265 531 CURVE SMOOTH",
"197 531 OFFCURVE",
"130 508 OFFCURVE",
"62 463 CURVE",
"91 406 LINE",
"149 446 OFFCURVE",
"204 467 OFFCURVE",
"257 467 CURVE SMOOTH",
"334 467 OFFCURVE",
"382 427 OFFCURVE",
"392 360 CURVE",
"384 341 OFFCURVE",
"380 315 OFFCURVE",
"378 294 CURVE",
"341 306 OFFCURVE",
"294 314 OFFCURVE",
"249 314 CURVE SMOOTH",
"120 314 OFFCURVE",
"30 248 OFFCURVE",
"30 153 CURVE SMOOTH",
"30 61 OFFCURVE",
"106 -10 OFFCURVE",
"204 -10 CURVE SMOOTH"
);
},
{
closed = 1;
nodes = (
"163 56 OFFCURVE",
"113 101 OFFCURVE",
"113 160 CURVE SMOOTH",
"113 220 OFFCURVE",
"174 261 OFFCURVE",
"262 261 CURVE SMOOTH",
"301 261 OFFCURVE",
"342 254 OFFCURVE",
"378 242 CURVE",
"379 217 OFFCURVE",
"385 177 OFFCURVE",
"396 155 CURVE",
"395 144 OFFCURVE",
"388 131 OFFCURVE",
"377 120 CURVE",
"348 81 OFFCURVE",
"290 56 OFFCURVE",
"227 56 CURVE SMOOTH"
);
},
{
closed = 1;
nodes = (
"460 288 LINE",
"466 391 OFFCURVE",
"541 465 OFFCURVE",
"640 465 CURVE SMOOTH",
"739 465 OFFCURVE",
"814 392 OFFCURVE",
"822 288 CURVE"
);
}
);
width = 933;
}
);
leftKerningGroup = a;
rightKerningGroup = ae;
unicode = 01FD;
},
{
glyphname = ampersand;
lastChange = "2015-11-08 21:02:15 +0000";
layers = (
{
layerId = "BB6A41DF-B2B0-47BB-BB25-47FFE7E0E8E0";
name = Regular;
paths = (
{
closed = 1;
nodes = (
"676 0 LINE",
"539 143 LINE",
"577 204 OFFCURVE",
"599 280 OFFCURVE",
"600 366 CURVE",
"527 366 LINE",
"527 303 OFFCURVE",
"512 245 OFFCURVE",
"487 197 CURVE",
"306 387 LINE",
"387 440 OFFCURVE",
"452 493 OFFCURVE",
"452 574 CURVE SMOOTH",
"452 663 OFFCURVE",
"374 719 OFFCURVE",
"279 719 CURVE SMOOTH",
"175 719 OFFCURVE",
"96 651 OFFCURVE",
"96 559 CURVE SMOOTH",
"96 509 OFFCURVE",
"120 468 OFFCURVE",
"185 395 CURVE",
"111 345 OFFCURVE",
"45 282 OFFCURVE",
"45 188 CURVE SMOOTH",
"45 74 OFFCURVE",
"144 -10 OFFCURVE",
"275 -10 CURVE SMOOTH",
"356 -10 OFFCURVE",
"429 22 OFFCURVE",
"486 77 CURVE",
"560 0 LINE"
);
},
{
closed = 1;
nodes = (
"205 60 OFFCURVE",
"130 106 OFFCURVE",
"130 187 CURVE SMOOTH",
"130 249 OFFCURVE",
"174 296 OFFCURVE",
"236 341 CURVE",
"438 128 LINE",
"397 85 OFFCURVE",
"343 60 OFFCURVE",
"284 60 CURVE SMOOTH"
);
},
{
closed = 1;
nodes = (
"177 611 OFFCURVE",
"220 652 OFFCURVE",
"279 652 CURVE SMOOTH",
"332 652 OFFCURVE",
"371 619 OFFCURVE",
"371 572 CURVE SMOOTH",
"371 521 OFFCURVE",
"324 484 OFFCURVE",
"255 440 CURVE",
"192 508 OFFCURVE",
"177 532 OFFCURVE",
"177 561 CURVE SMOOTH"
);
}
);
width = 681;
}
);
leftKerningGroup = ampersand;
rightKerningGroup = ampersand;
unicode = 0026;
},
{
glyphname = apostrophe;
lastChange = "2015-11-08 21:02:15 +0000";
layers = (
{
layerId = "BB6A41DF-B2B0-47BB-BB25-47FFE7E0E8E0";
name = Regular;
paths = (
{
closed = 1;
nodes = (
"90 565 LINE",
"33 565 LINE",
"81 730 LINE",
"158 730 LINE"
);
}
);
width = 230;
}
);
leftKerningGroup = apostrophe;
unicode = 02BC;
},
{
glyphname = asciicircum;
lastChange = "2015-11-08 21:02:15 +0000";
layers = (
{
layerId = "BB6A41DF-B2B0-47BB-BB25-47FFE7E0E8E0";
name = Regular;
paths = (
{
closed = 1;
nodes = (
"115 303 LINE",
"277 631 LINE",
"436 303 LINE",
"511 303 LINE",
"314 710 LINE",
"240 710 LINE",
"42 303 LINE"
);
}
);
width = 553;
}
);
unicode = 005E;
},
{
glyphname = asciitilde;
lastChange = "2015-11-08 21:02:16 +0000";
layers = (
{
layerId = "BB6A41DF-B2B0-47BB-BB25-47FFE7E0E8E0";
name = Regular;
paths = (
{
closed = 1;
nodes = (
"117 237 LINE",
"117 239 OFFCURVE",
"132 293 OFFCURVE",
"181 293 CURVE SMOOTH",
"232 293 OFFCURVE",
"278 237 OFFCURVE",
"346 237 CURVE SMOOTH",
"439 237 OFFCURVE",
"468 336 OFFCURVE",
"468 344 CURVE",
"416 344 LINE",
"416 339 OFFCURVE",
"399 292 OFFCURVE",
"347 292 CURVE SMOOTH",
"290 292 OFFCURVE",
"246 349 OFFCURVE",
"182 349 CURVE SMOOTH",
"95 349 OFFCURVE",
"65 253 OFFCURVE",
"65 237 CURVE"
);
}
);
width = 532;
}
);
unicode = 007E;
},
{
glyphname = asterisk;
lastChange = "2015-11-08 21:02:16 +0000";
layers = (
{
layerId = "BB6A41DF-B2B0-47BB-BB25-47FFE7E0E8E0";
name = Regular;
paths = (
{
closed = 1;
nodes = (
"121 513 LINE",
"165 580 LINE",
"208 513 LINE",
"246 538 LINE",
"201 603 LINE",
"270 625 LINE",
"257 667 LINE",
"187 640 LINE",
"190 714 LINE",
"139 714 LINE",
"142 640 LINE",
"72 667 LINE",
"59 625 LINE",
"128 603 LINE",
"84 538 LINE"
);
}
);
width = 329;
}
);
leftKerningGroup = asterisk;
rightKerningGroup = asterisk;
unicode = 002A;
},
{
glyphname = at;
lastChange = "2015-11-08 21:02:16 +0000";
layers = (
{
layerId = "BB6A41DF-B2B0-47BB-BB25-47FFE7E0E8E0";
name = Regular;
paths = (
{
closed = 1;
nodes = (
"224 603 OFFCURVE",
"46 459 OFFCURVE",
"46 230 CURVE SMOOTH",
"46 11 OFFCURVE",
"210 -146 OFFCURVE",
"409 -146 CURVE SMOOTH",
"466 -146 OFFCURVE",
"524 -133 OFFCURVE",
"578 -106 CURVE",
"564 -68 LINE",
"515 -91 OFFCURVE",
"469 -106 OFFCURVE",
"410 -106 CURVE SMOOTH",
"223 -106 OFFCURVE",
"88 44 OFFCURVE",
"88 230 CURVE SMOOTH",
"88 423 OFFCURVE",
"233 563 OFFCURVE",
"417 563 CURVE SMOOTH",
"605 563 OFFCURVE",
"744 415 OFFCURVE",
"744 224 CURVE SMOOTH",
"744 156 OFFCURVE",
"725 28 OFFCURVE",
"645 28 CURVE SMOOTH",
"599 28 OFFCURVE",
"594 73 OFFCURVE",
"594 132 CURVE SMOOTH",
"594 251 LINE SMOOTH",
"594 345 OFFCURVE",
"581 457 OFFCURVE",
"425 457 CURVE SMOOTH",
"363 457 OFFCURVE",
"307 438 OFFCURVE",
"259 406 CURVE",
"279 357 LINE",
"316 385 OFFCURVE",
"364 403 OFFCURVE",
"417 403 CURVE SMOOTH",
"513 403 OFFCURVE",
"538 342 OFFCURVE",
"538 254 CURVE",
"517 262 OFFCURVE",
"472 277 OFFCURVE",
"415 277 CURVE SMOOTH",
"326 277 OFFCURVE",
"228 243 OFFCURVE",
"228 138 CURVE SMOOTH",
"228 60 OFFCURVE",
"283 2 OFFCURVE",
"380 2 CURVE SMOOTH",
"450 2 OFFCURVE",
"512 33 OFFCURVE",
"550 73 CURVE",
"555 28 OFFCURVE",
"569 -16 OFFCURVE",
"637 -16 CURVE SMOOTH",
"775 -16 OFFCURVE",
"786 165 OFFCURVE",
"786 222 CURVE SMOOTH",
"786 455 OFFCURVE",
"616 603 OFFCURVE",
"419 603 CURVE SMOOTH"
);
},
{
closed = 1;
nodes = (
"451 64 OFFCURVE",
"416 54 OFFCURVE",
"384 54 CURVE SMOOTH",
"324 54 OFFCURVE",
"285 92 OFFCURVE",
"285 142 CURVE SMOOTH",
"285 208 OFFCURVE",
"346 230 OFFCURVE",
"414 230 CURVE SMOOTH",
"474 230 OFFCURVE",
"520 211 OFFCURVE",
"537 208 CURVE",
"537 171 LINE SMOOTH",
"537 136 OFFCURVE",
"528 100 OFFCURVE",
"476 76 CURVE SMOOTH"
);
}
);
width = 840;
}
);
leftKerningGroup = at;
rightKerningGroup = at;
unicode = 0040;
},
{
glyphname = b;
lastChange = "2015-11-08 21:02:16 +0000";
layers = (
{
layerId = "BB6A41DF-B2B0-47BB-BB25-47FFE7E0E8E0";
name = Regular;
paths = (
{
closed = 1;
nodes = (
"479 -10 OFFCURVE",
"586 112 OFFCURVE",
"586 259 CURVE SMOOTH",
"586 399 OFFCURVE",
"495 531 OFFCURVE",
"352 531 CURVE SMOOTH",
"267 531 OFFCURVE",
"203 486 OFFCURVE",
"159 418 CURVE",
"159 730 LINE",
"71 730 LINE",
"71 0 LINE",
"149 0 LINE",
"149 98 LINE",
"187 34 OFFCURVE",
"258 -10 OFFCURVE",
"339 -10 CURVE SMOOTH"
);
},
{
closed = 1;
nodes = (
"254 66 OFFCURVE",
"172 116 OFFCURVE",
"159 182 CURVE",
"159 333 LINE",
"190 399 OFFCURVE",
"250 455 OFFCURVE",
"325 455 CURVE SMOOTH",
"426 455 OFFCURVE",
"496 361 OFFCURVE",
"496 259 CURVE SMOOTH",
"496 159 OFFCURVE",
"422 66 OFFCURVE",
"317 66 CURVE SMOOTH"
);
}
);
width = 623;
}
);
leftKerningGroup = b;
rightKerningGroup = b;
unicode = 0062;
},
{
glyphname = backslash;
lastChange = "2015-11-08 21:02:16 +0000";
layers = (
{
layerId = "BB6A41DF-B2B0-47BB-BB25-47FFE7E0E8E0";
name = Regular;
paths = (
{
closed = 1;
nodes = (
"335 -28 LINE SMOOTH",
"411 0 LINE SMOOTH",
"91 740 LINE",
"11 713 LINE"
);
}
);
width = 420;
}
);
leftKerningGroup = backslash;
rightKerningGroup = backslash;
unicode = 005C;
},
{
glyphname = bar;
lastChange = "2015-11-08 21:02:16 +0000";
layers = (
{
layerId = "BB6A41DF-B2B0-47BB-BB25-47FFE7E0E8E0";
name = Regular;
paths = (
{
closed = 1;
nodes = (
"158 -130 LINE",
"158 775 LINE",
"82 775 LINE",
"82 -130 LINE"
);
}
);
width = 240;
}
);
unicode = 007C;
},
{
glyphname = braceleft;
lastChange = "2015-11-08 21:02:16 +0000";
layers = (
{
layerId = "BB6A41DF-B2B0-47BB-BB25-47FFE7E0E8E0";
name = Regular;
paths = (
{
closed = 1;
nodes = (
"224 668 LINE",
"224 740 LINE",
"112 740 LINE SMOOTH",
"105 740 OFFCURVE",
"89 735 OFFCURVE",
"89 710 CURVE SMOOTH",
"89 450 LINE SMOOTH",
"89 430 OFFCURVE",
"75 393 OFFCURVE",
"47 393 CURVE",
"47 329 LINE",
"72 325 OFFCURVE",
"89 299 OFFCURVE",
"89 270 CURVE SMOOTH",
"89 -1 LINE SMOOTH",
"89 -24 OFFCURVE",
"102 -31 OFFCURVE",
"112 -31 CURVE SMOOTH",
"224 -31 LINE",
"224 41 LINE",
"169 41 LINE",
"169 296 LINE SMOOTH",
"169 314 OFFCURVE",
"160 342 OFFCURVE",
"140 360 CURVE",
"161 379 OFFCURVE",
"169 405 OFFCURVE",
"169 424 CURVE SMOOTH",
"169 668 LINE"
);
}
);
width = 271;
}
);
rightKerningGroup = braceleft;
unicode = 007B;
},
{
glyphname = braceright;
lastChange = "2015-11-08 21:02:16 +0000";
layers = (
{
layerId = "BB6A41DF-B2B0-47BB-BB25-47FFE7E0E8E0";
name = Regular;
paths = (
{
closed = 1;
nodes = (
"102 668 LINE",
"102 424 LINE SMOOTH",
"102 405 OFFCURVE",
"110 379 OFFCURVE",
"131 360 CURVE",
"110 342 OFFCURVE",
"102 314 OFFCURVE",
"102 296 CURVE SMOOTH",
"102 41 LINE",
"47 41 LINE",
"47 -31 LINE",
"159 -31 LINE SMOOTH",
"168 -31 OFFCURVE",
"182 -24 OFFCURVE",
"182 -1 CURVE SMOOTH",
"182 270 LINE SMOOTH",
"182 299 OFFCURVE",
"198 325 OFFCURVE",
"224 329 CURVE",
"224 393 LINE",
"196 393 OFFCURVE",
"182 430 OFFCURVE",
"182 450 CURVE SMOOTH",
"182 710 LINE SMOOTH",
"182 735 OFFCURVE",
"165 740 OFFCURVE",
"159 740 CURVE SMOOTH",
"47 740 LINE",
"47 668 LINE"
);
}
);
width = 271;
}
);
leftKerningGroup = braceright;
unicode = 007D;
},
{
glyphname = bracketleft;
lastChange = "2015-11-08 21:02:16 +0000";
layers = (
{
layerId = "BB6A41DF-B2B0-47BB-BB25-47FFE7E0E8E0";
name = Regular;
paths = (
{
closed = 1;
nodes = (
"224 -40 LINE",
"224 32 LINE",
"166 32 LINE",
"166 668 LINE",
"224 668 LINE",
"224 740 LINE",
"84 740 LINE",
"84 -40 LINE"
);
}
);
width = 270;
}
);
rightKerningGroup = bracketleft;
unicode = 005B;
},
{
glyphname = bracketright;
lastChange = "2015-11-08 21:02:16 +0000";
layers = (
{
layerId = "BB6A41DF-B2B0-47BB-BB25-47FFE7E0E8E0";
name = Regular;
paths = (
{
closed = 1;
nodes = (
"186 -40 LINE",
"186 740 LINE",
"46 740 LINE",
"46 668 LINE",
"104 668 LINE",
"104 32 LINE",
"46 32 LINE",
"46 -40 LINE"
);
}
);
width = 270;
}
);
leftKerningGroup = bracketright;
unicode = 005D;
},
{
glyphname = brokenbar;
lastChange = "2015-11-08 21:02:16 +0000";
layers = (
{
layerId = "BB6A41DF-B2B0-47BB-BB25-47FFE7E0E8E0";
name = Regular;
paths = (
{
closed = 1;
nodes = (
"83 273 LINE",
"83 -130 LINE",
"159 -130 LINE",
"159 273 LINE"
);
},
{
closed = 1;
nodes = (
"83 775 LINE",
"83 372 LINE",
"159 372 LINE",
"159 775 LINE"
);
}
);
width = 242;
}
);
unicode = 00A6;
},
{
glyphname = bullet;
lastChange = "2015-11-08 21:02:16 +0000";
layers = (
{
layerId = "BB6A41DF-B2B0-47BB-BB25-47FFE7E0E8E0";
name = Regular;
paths = (
{
closed = 1;
nodes = (
"272 398 OFFCURVE",
"230 441 OFFCURVE",
"178 441 CURVE SMOOTH",
"127 441 OFFCURVE",
"84 398 OFFCURVE",
"84 347 CURVE SMOOTH",
"84 295 OFFCURVE",
"127 253 OFFCURVE",
"178 253 CURVE SMOOTH",
"230 253 OFFCURVE",
"272 295 OFFCURVE",
"272 347 CURVE SMOOTH"
);
}
);
width = 356;
}
);
unicode = 2022;
},
{
glyphname = c;
lastChange = "2015-11-08 21:02:16 +0000";
layers = (
{
anchors = (
{
name = bottom;
position = "{277, 0}";
},
{
name = top;
position = "{300, 522}";
}
);
layerId = "BB6A41DF-B2B0-47BB-BB25-47FFE7E0E8E0";
name = Regular;
paths = (
{
closed = 1;
nodes = (
"36 115 OFFCURVE",
"145 -10 OFFCURVE",
"302 -10 CURVE SMOOTH",
"407 -10 OFFCURVE",
"494 45 OFFCURVE",
"525 121 CURVE",
"439 147 LINE",
"423 103 OFFCURVE",
"361 66 OFFCURVE",
"300 66 CURVE SMOOTH",
"205 66 OFFCURVE",
"126 152 OFFCURVE",
"126 262 CURVE SMOOTH",
"126 373 OFFCURVE",
"202 455 OFFCURVE",
"299 455 CURVE SMOOTH",
"357 455 OFFCURVE",
"408 426 OFFCURVE",
"435 377 CURVE",
"521 404 LINE",
"483 481 OFFCURVE",
"404 531 OFFCURVE",
"301 531 CURVE SMOOTH",
"142 531 OFFCURVE",
"36 409 OFFCURVE",
"36 262 CURVE SMOOTH"
);
}
);
width = 554;
}
);
leftKerningGroup = c;
rightKerningGroup = c;
unicode = 0063;
},
{
glyphname = cent;
lastChange = "2015-11-08 21:02:16 +0000";
layers = (
{
layerId = "BB6A41DF-B2B0-47BB-BB25-47FFE7E0E8E0";
name = Regular;
paths = (
{
closed = 1;
nodes = (
"320 -120 LINE",
"320 -10 LINE",
"391 -10 OFFCURVE",
"498 34 OFFCURVE",
"532 121 CURVE",
"446 147 LINE",
"432 102 OFFCURVE",
"367 72 OFFCURVE",
"320 68 CURVE",
"320 452 LINE",
"370 449 OFFCURVE",
"415 425 OFFCURVE",
"442 377 CURVE",
"527 404 LINE",
"488 481 OFFCURVE",
"417 527 OFFCURVE",
"320 530 CURVE",
"320 645 LINE",
"276 645 LINE",
"276 530 LINE",
"130 514 OFFCURVE",
"42 393 OFFCURVE",
"42 258 CURVE SMOOTH",
"42 131 OFFCURVE",
"139 2 OFFCURVE",
"276 -9 CURVE",
"276 -120 LINE"
);
},
{
closed = 1;
nodes = (
"132 347 OFFCURVE",
"185 438 OFFCURVE",
"276 449 CURVE",
"276 72 LINE",
"192 88 OFFCURVE",
"132 169 OFFCURVE",
"132 258 CURVE SMOOTH"
);
}
);
width = 570;
}
);
unicode = 00A2;
},
{
glyphname = colon;
lastChange = "2015-11-08 21:02:16 +0000";
layers = (
{
layerId = "BB6A41DF-B2B0-47BB-BB25-47FFE7E0E8E0";
name = Regular;
paths = (
{
closed = 1;
nodes = (
"139 399 OFFCURVE",
"167 427 OFFCURVE",
"167 460 CURVE SMOOTH",
"167 494 OFFCURVE",
"139 522 OFFCURVE",
"106 522 CURVE SMOOTH",
"72 522 OFFCURVE",
"45 494 OFFCURVE",
"45 460 CURVE SMOOTH",
"45 427 OFFCURVE",
"72 399 OFFCURVE",
"106 399 CURVE SMOOTH"
);
},
{
closed = 1;
nodes = (
"139 -9 OFFCURVE",
"167 19 OFFCURVE",
"167 52 CURVE SMOOTH",
"167 86 OFFCURVE",
"139 114 OFFCURVE",
"106 114 CURVE SMOOTH",
"72 114 OFFCURVE",
"45 86 OFFCURVE",
"45 52 CURVE SMOOTH",
"45 19 OFFCURVE",
"72 -9 OFFCURVE",
"106 -9 CURVE SMOOTH"
);
}
);
width = 201;
}
);
leftKerningGroup = colon;
rightKerningGroup = colon;
unicode = 003A;
},
{
glyphname = comma;
lastChange = "2015-11-08 21:02:16 +0000";
layers = (
{
layerId = "BB6A41DF-B2B0-47BB-BB25-47FFE7E0E8E0";
name = Regular;
paths = (
{
closed = 1;
nodes = (
"93 -140 LINE",
"22 -140 LINE",
"89 95 LINE",
"184 95 LINE"
);
}
);
width = 211;
}
);
leftKerningGroup = comma;
rightKerningGroup = comma;
unicode = 002C;
},
{
glyphname = copyright;
lastChange = "2015-11-08 21:02:16 +0000";
layers = (
{
layerId = "BB6A41DF-B2B0-47BB-BB25-47FFE7E0E8E0";
name = Regular;
paths = (
{
closed = 1;
nodes = (
"630 -7 OFFCURVE",
"789 148 OFFCURVE",
"789 355 CURVE SMOOTH",
"789 561 OFFCURVE",
"630 715 OFFCURVE",
"416 715 CURVE SMOOTH",
"204 715 OFFCURVE",
"47 561 OFFCURVE",
"47 355 CURVE SMOOTH",
"47 148 OFFCURVE",
"204 -7 OFFCURVE",
"416 -7 CURVE SMOOTH"
);
},
{
closed = 1;
nodes = (
"227 31 OFFCURVE",
"87 171 OFFCURVE",
"87 354 CURVE SMOOTH",
"87 538 OFFCURVE",
"228 677 OFFCURVE",
"416 677 CURVE SMOOTH",
"607 677 OFFCURVE",
"748 538 OFFCURVE",
"748 353 CURVE SMOOTH",
"748 162 OFFCURVE",
"603 31 OFFCURVE",
"416 31 CURVE SMOOTH"
);
},
{
closed = 1;
nodes = (
"529 121 OFFCURVE",
"604 187 OFFCURVE",
"626 241 CURVE",
"541 267 LINE",
"520 223 OFFCURVE",
"467 197 OFFCURVE",
"421 197 CURVE SMOOTH",
"354 197 OFFCURVE",
"275 254 OFFCURVE",
"275 355 CURVE SMOOTH",
"275 434 OFFCURVE",
"324 514 OFFCURVE",
"419 514 CURVE SMOOTH",
"456 514 OFFCURVE",
"510 501 OFFCURVE",
"535 447 CURVE",
"620 474 LINE",
"588 548 OFFCURVE",
"512 590 OFFCURVE",
"419 590 CURVE SMOOTH",
"261 590 OFFCURVE",
"185 470 OFFCURVE",
"185 355 CURVE SMOOTH",
"185 216 OFFCURVE",
"294 121 OFFCURVE",
"424 121 CURVE SMOOTH"
);
}
);
width = 836;
}
);
leftKerningGroup = copyright;
unicode = 00A9;
},
{
glyphname = d;
lastChange = "2015-11-08 21:02:16 +0000";
layers = (
{
anchors = (
{
name = bottom;
position = "{284, -11}";
},
{
name = center;
position = "{312, 261}";
},
{
name = topright;
position = "{604, 522}";
}
);
layerId = "BB6A41DF-B2B0-47BB-BB25-47FFE7E0E8E0";
name = Regular;
paths = (
{
closed = 1;
nodes = (
"553 0 LINE",
"553 730 LINE",
"465 730 LINE",
"465 418 LINE",
"424 481 OFFCURVE",
"358 531 OFFCURVE",
"273 531 CURVE SMOOTH",
"137 531 OFFCURVE",
"37 408 OFFCURVE",
"37 260 CURVE SMOOTH",
"37 116 OFFCURVE",
"141 -10 OFFCURVE",
"286 -10 CURVE SMOOTH",
"361 -10 OFFCURVE",
"427 30 OFFCURVE",
"465 92 CURVE",
"465 0 LINE"
);
},
{
closed = 1;
nodes = (
"465 183 LINE",
"454 118 OFFCURVE",
"371 66 OFFCURVE",
"307 66 CURVE SMOOTH",
"206 66 OFFCURVE",
"128 154 OFFCURVE",
"128 259 CURVE SMOOTH",
"128 358 OFFCURVE",
"196 455 OFFCURVE",
"298 455 CURVE SMOOTH",
"365 455 OFFCURVE",
"441 402 OFFCURVE",
"465 333 CURVE"
);
}
);
width = 624;
}
);
leftKerningGroup = a.alt;
rightKerningGroup = d.alt;
unicode = 0064;
},
{
glyphname = d.alt;
lastChange = "2015-11-08 21:02:16 +0000";
layers = (
{
layerId = "BB6A41DF-B2B0-47BB-BB25-47FFE7E0E8E0";
name = Regular;
paths = (
{
closed = 1;
nodes = (
"361 -10 OFFCURVE",
"436 31 OFFCURVE",
"477 98 CURVE",
"477 54 LINE SMOOTH",
"477 24 OFFCURVE",
"507 -4 OFFCURVE",
"542 -4 CURVE SMOOTH",
"553 -4 OFFCURVE",
"562 -3 OFFCURVE",
"581 0 CURVE",
"581 76 LINE",
"561 77 OFFCURVE",
"553 86 OFFCURVE",
"553 108 CURVE SMOOTH",
"553 730 LINE",
"465 730 LINE",
"465 418 LINE",
"427 481 OFFCURVE",
"358 531 OFFCURVE",
"274 531 CURVE SMOOTH",
"136 531 OFFCURVE",
"37 408 OFFCURVE",
"37 260 CURVE SMOOTH",
"37 116 OFFCURVE",
"141 -10 OFFCURVE",
"286 -10 CURVE SMOOTH"
);
},
{
closed = 1;
nodes = (
"206 66 OFFCURVE",
"128 154 OFFCURVE",
"128 259 CURVE SMOOTH",
"128 359 OFFCURVE",
"196 455 OFFCURVE",
"299 455 CURVE SMOOTH",
"365 455 OFFCURVE",
"440 401 OFFCURVE",
"465 333 CURVE",
"465 183 LINE",
"452 118 OFFCURVE",
"370 66 OFFCURVE",
"307 66 CURVE SMOOTH"
);
}
);
width = 629;
}
);
leftKerningGroup = a.alt;
rightKerningGroup = d;
},
{
glyphname = dagger;
lastChange = "2015-11-08 21:02:16 +0000";
layers = (
{
layerId = "BB6A41DF-B2B0-47BB-BB25-47FFE7E0E8E0";
name = Regular;
paths = (
{
closed = 1;
nodes = (
"253 -130 LINE",
"253 231 LINE",
"384 231 LINE",
"384 311 LINE",
"253 311 LINE",
"253 775 LINE",
"169 775 LINE",
"169 311 LINE",
"37 311 LINE",
"37 231 LINE",
"169 231 LINE",
"169 -130 LINE"
);
}
);
width = 421;
}
);
unicode = 2020;
},
{
glyphname = daggerdbl;
lastChange = "2015-11-08 21:02:16 +0000";
layers = (
{
layerId = "BB6A41DF-B2B0-47BB-BB25-47FFE7E0E8E0";
name = Regular;
paths = (
{
closed = 1;
nodes = (
"254 -130 LINE",
"254 142 LINE",
"385 142 LINE",
"385 222 LINE",
"254 222 LINE",
"254 333 LINE",
"385 333 LINE",
"385 413 LINE",
"254 413 LINE",
"254 775 LINE",
"170 775 LINE",
"170 413 LINE",
"38 413 LINE",
"38 333 LINE",
"170 333 LINE",
"170 222 LINE",
"38 222 LINE",
"38 142 LINE",
"170 142 LINE",
"170 -130 LINE"
);
}
);
width = 423;
}
);
unicode = 2021;
},
{
glyphname = degree;
lastChange = "2015-11-08 21:02:16 +0000";
layers = (
{
layerId = "BB6A41DF-B2B0-47BB-BB25-47FFE7E0E8E0";
name = Regular;
paths = (
{
closed = 1;
nodes = (
"47 585 OFFCURVE",
"86 546 OFFCURVE",
"136 546 CURVE SMOOTH",
"187 546 OFFCURVE",
"225 584 OFFCURVE",
"225 637 CURVE SMOOTH",
"225 686 OFFCURVE",
"187 724 OFFCURVE",
"136 724 CURVE SMOOTH",
"86 724 OFFCURVE",
"47 686 OFFCURVE",
"47 637 CURVE SMOOTH"
);
},
{
closed = 1;
nodes = (
"114 673 OFFCURVE",
"124 677 OFFCURVE",
"136 677 CURVE SMOOTH",
"147 677 OFFCURVE",
"159 673 OFFCURVE",
"166 665 CURVE SMOOTH",
"173 657 OFFCURVE",
"178 647 OFFCURVE",
"178 635 CURVE SMOOTH",
"178 624 OFFCURVE",
"173 613 OFFCURVE",
"166 606 CURVE",
"159 598 OFFCURVE",
"147 593 OFFCURVE",
"136 593 CURVE SMOOTH",
"124 593 OFFCURVE",
"114 598 OFFCURVE",
"106 606 CURVE SMOOTH",
"99 613 OFFCURVE",
"94 624 OFFCURVE",
"94 635 CURVE SMOOTH",
"94 647 OFFCURVE",
"99 657 OFFCURVE",
"106 665 CURVE"
);
}
);
width = 272;
}
);
unicode = 00B0;
},
{
glyphname = divide;
lastChange = "2015-11-08 21:02:16 +0000";
layers = (
{
layerId = "BB6A41DF-B2B0-47BB-BB25-47FFE7E0E8E0";
name = Regular;
paths = (
{
closed = 1;
nodes = (
"468 251 LINE",
"468 323 LINE",
"65 323 LINE",
"65 251 LINE"
);
},
{
closed = 1;
nodes = (
"299 56 OFFCURVE",
"327 84 OFFCURVE",
"327 117 CURVE SMOOTH",
"327 151 OFFCURVE",
"299 179 OFFCURVE",
"266 179 CURVE SMOOTH",
"232 179 OFFCURVE",
"205 151 OFFCURVE",
"205 117 CURVE SMOOTH",
"205 84 OFFCURVE",
"232 56 OFFCURVE",
"266 56 CURVE SMOOTH"
);
},
{
closed = 1;
nodes = (
"299 394 OFFCURVE",
"327 422 OFFCURVE",
"327 455 CURVE SMOOTH",
"327 489 OFFCURVE",
"299 517 OFFCURVE",
"266 517 CURVE SMOOTH",
"232 517 OFFCURVE",
"205 489 OFFCURVE",
"205 455 CURVE SMOOTH",
"205 422 OFFCURVE",
"232 394 OFFCURVE",
"266 394 CURVE SMOOTH"
);
}
);
width = 533;
}
);
unicode = 00F7;
},
{
glyphname = dollar;
lastChange = "2015-11-08 21:02:16 +0000";
layers = (
{
layerId = "BB6A41DF-B2B0-47BB-BB25-47FFE7E0E8E0";
name = Regular;
paths = (
{
closed = 1;
nodes = (
"550 634 LINE",
"494 680 OFFCURVE",
"422 710 OFFCURVE",
"335 714 CURVE",
"335 815 LINE",
"291 815 LINE",
"291 714 LINE",
"157 706 OFFCURVE",
"62 633 OFFCURVE",
"62 505 CURVE SMOOTH",
"62 392 OFFCURVE",
"137 353 OFFCURVE",
"281 318 CURVE SMOOTH",
"296 314 LINE",
"296 75 LINE",
"200 83 OFFCURVE",
"117 128 OFFCURVE",
"78 169 CURVE",
"35 93 LINE",
"107 34 OFFCURVE",
"195 0 OFFCURVE",
"291 -6 CURVE",
"291 -107 LINE",
"335 -107 LINE",
"335 -7 LINE",
"475 -4 OFFCURVE",
"582 57 OFFCURVE",
"582 191 CURVE SMOOTH",
"582 319 OFFCURVE",
"490 361 OFFCURVE",
"342 394 CURVE SMOOTH",
"329 397 LINE",
"329 634 LINE",
"408 631 OFFCURVE",
"477 596 OFFCURVE",
"508 561 CURVE"
);
},
{
closed = 1;
nodes = (
"486 111 OFFCURVE",
"428 74 OFFCURVE",
"329 74 CURVE",
"329 306 LINE",
"430 279 OFFCURVE",
"486 251 OFFCURVE",
"486 182 CURVE SMOOTH"
);
},
{
closed = 1;
nodes = (
"155 586 OFFCURVE",
"199 629 OFFCURVE",
"296 634 CURVE",
"296 404 LINE",
"199 428 OFFCURVE",
"155 452 OFFCURVE",
"155 519 CURVE SMOOTH"
);
}
);
width = 622;
}
);
unicode = 0024;
},
{
glyphname = dotlessi;
lastChange = "2015-11-08 21:02:16 +0000";
layers = (
{
anchors = (
{
name = ogonek;
position = "{207, 10}";
},
{
name = top;
position = "{115, 522}";
}
);
layerId = "BB6A41DF-B2B0-47BB-BB25-47FFE7E0E8E0";
name = Regular;
paths = (
{
closed = 1;
nodes = (
"159 0 LINE",
"159 522 LINE",
"71 522 LINE",
"71 0 LINE"
);
}
);
width = 230;
}
);
leftKerningGroup = dotlessi;
rightKerningGroup = dotlessi;
unicode = 0131;
},
{
glyphname = dotlessj;
lastChange = "2015-11-08 21:02:16 +0000";
layers = (
{
anchors = (
{
name = top;
position = "{115, 522}";
}
);
layerId = "BB6A41DF-B2B0-47BB-BB25-47FFE7E0E8E0";
name = Regular;
paths = (
{
closed = 1;
nodes = (
"71 -213 LINE",
"159 -213 LINE",
"159 522 LINE",
"71 522 LINE"
);
}
);
width = 230;
}
);
leftKerningGroup = dotlessi;
rightKerningGroup = dotlessi;
unicode = 0237;
},
{
glyphname = e;
lastChange = "2015-11-08 21:02:16 +0000";
layers = (
{
anchors = (
{
name = bottom;
position = "{296, 0}";
},
{
name = ogonek;
position = "{532, 10}";
},
{
name = top;
position = "{304, 522}";
}
);
layerId = "BB6A41DF-B2B0-47BB-BB25-47FFE7E0E8E0";
name = Regular;
paths = (
{
closed = 1;
nodes = (
"407 -10 OFFCURVE",
"496 45 OFFCURVE",
"530 122 CURVE",
"454 143 LINE",
"432 91 OFFCURVE",
"369 56 OFFCURVE",
"305 56 CURVE SMOOTH",
"214 56 OFFCURVE",
"137 128 OFFCURVE",
"129 231 CURVE",
"562 231 LINE",
"563 237 OFFCURVE",
"564 251 OFFCURVE",
"564 265 CURVE SMOOTH",
"564 405 OFFCURVE",
"461 531 OFFCURVE",
"303 531 CURVE SMOOTH",
"146 531 OFFCURVE",
"36 408 OFFCURVE",
"36 261 CURVE SMOOTH",
"36 114 OFFCURVE",
"145 -10 OFFCURVE",
"302 -10 CURVE SMOOTH"
);
},
{
closed = 1;
nodes = (
"127 296 LINE",
"134 395 OFFCURVE",
"210 465 OFFCURVE",
"303 465 CURVE SMOOTH",
"396 465 OFFCURVE",
"472 396 OFFCURVE",
"481 296 CURVE"
);
}
);
width = 591;
}
);
leftKerningGroup = c;
rightKerningGroup = ae;
unicode = 0065;
},
{
glyphname = eight;
lastChange = "2015-11-08 21:02:16 +0000";
layers = (
{
layerId = "BB6A41DF-B2B0-47BB-BB25-47FFE7E0E8E0";
name = Regular;
paths = (
{
closed = 1;
nodes = (
"549 288 OFFCURVE",
"487 352 OFFCURVE",
"415 380 CURVE",
"475 405 OFFCURVE",
"526 459 OFFCURVE",
"526 525 CURVE SMOOTH",
"526 645 OFFCURVE",
"406 710 OFFCURVE",
"299 710 CURVE SMOOTH",
"193 710 OFFCURVE",
"73 644 OFFCURVE",
"73 524 CURVE SMOOTH",
"73 458 OFFCURVE",
"123 405 OFFCURVE",
"182 380 CURVE",
"118 355 OFFCURVE",
"49 293 OFFCURVE",
"49 205 CURVE SMOOTH",
"49 85 OFFCURVE",
"155 -8 OFFCURVE",
"297 -8 CURVE SMOOTH",
"433 -8 OFFCURVE",
"549 74 OFFCURVE",
"549 201 CURVE SMOOTH"
);
},
{
closed = 1;
nodes = (
"460 126 OFFCURVE",
"379 71 OFFCURVE",
"300 71 CURVE SMOOTH",
"223 71 OFFCURVE",
"139 122 OFFCURVE",
"139 206 CURVE SMOOTH",
"139 289 OFFCURVE",
"218 343 OFFCURVE",
"298 343 CURVE SMOOTH",
"375 343 OFFCURVE",
"460 293 OFFCURVE",
"460 207 CURVE SMOOTH"
);
},
{
closed = 1;
nodes = (
"162 589 OFFCURVE",
"227 631 OFFCURVE",
"298 631 CURVE SMOOTH",
"370 631 OFFCURVE",
"436 590 OFFCURVE",
"436 523 CURVE SMOOTH",
"436 451 OFFCURVE",
"362 411 OFFCURVE",
"299 411 CURVE SMOOTH",
"236 411 OFFCURVE",
"162 450 OFFCURVE",
"162 521 CURVE SMOOTH"
);
}
);
width = 598;
}
);
unicode = 0038;
},
{
glyphname = eightinferior;
lastChange = "2015-11-08 21:02:16 +0000";
layers = (
{
layerId = "BB6A41DF-B2B0-47BB-BB25-47FFE7E0E8E0";
name = Regular;
paths = (
{
closed = 1;
nodes = (
"368 85 OFFCURVE",
"329 119 OFFCURVE",
"277 138 CURVE",
"319 152 OFFCURVE",
"352 181 OFFCURVE",
"352 221 CURVE SMOOTH",
"352 286 OFFCURVE",
"274 326 OFFCURVE",
"202 326 CURVE SMOOTH",
"130 326 OFFCURVE",
"52 285 OFFCURVE",
"52 220 CURVE SMOOTH",
"52 179 OFFCURVE",
"87 152 OFFCURVE",
"126 138 CURVE",
"80 121 OFFCURVE",
"36 89 OFFCURVE",
"36 37 CURVE SMOOTH",
"36 -30 OFFCURVE",
"106 -85 OFFCURVE",
"201 -85 CURVE SMOOTH",
"291 -85 OFFCURVE",
"368 -36 OFFCURVE",
"368 35 CURVE SMOOTH"
);
},
{
closed = 1;
nodes = (
"312 -2 OFFCURVE",
"257 -30 OFFCURVE",
"203 -30 CURVE SMOOTH",
"151 -30 OFFCURVE",
"92 -4 OFFCURVE",
"92 40 CURVE SMOOTH",
"92 84 OFFCURVE",
"146 113 OFFCURVE",
"202 113 CURVE SMOOTH",
"254 113 OFFCURVE",
"312 86 OFFCURVE",
"312 41 CURVE SMOOTH"
);
},
{
closed = 1;
nodes = (
"108 251 OFFCURVE",
"152 273 OFFCURVE",
"202 273 CURVE SMOOTH",
"250 273 OFFCURVE",
"297 251 OFFCURVE",
"297 216 CURVE SMOOTH",
"297 180 OFFCURVE",
"246 158 OFFCURVE",
"202 158 CURVE SMOOTH",
"158 158 OFFCURVE",
"108 179 OFFCURVE",
"108 215 CURVE SMOOTH"
);
}
);
width = 405;
}
);
unicode = 2088;
},
{
glyphname = eightsuperior;
lastChange = "2015-11-08 21:02:16 +0000";
layers = (
{
layerId = "BB6A41DF-B2B0-47BB-BB25-47FFE7E0E8E0";
name = Regular;
paths = (
{
closed = 1;
nodes = (
"368 569 OFFCURVE",
"329 604 OFFCURVE",
"277 622 CURVE",
"319 636 OFFCURVE",
"352 665 OFFCURVE",
"352 705 CURVE SMOOTH",
"352 770 OFFCURVE",
"274 810 OFFCURVE",
"202 810 CURVE SMOOTH",
"130 810 OFFCURVE",
"52 769 OFFCURVE",
"52 704 CURVE SMOOTH",
"52 663 OFFCURVE",
"87 636 OFFCURVE",
"126 622 CURVE",
"80 605 OFFCURVE",
"36 573 OFFCURVE",
"36 521 CURVE SMOOTH",
"36 454 OFFCURVE",
"106 399 OFFCURVE",
"201 399 CURVE SMOOTH",
"291 399 OFFCURVE",
"368 448 OFFCURVE",
"368 519 CURVE SMOOTH"
);
},
{
closed = 1;
nodes = (
"312 482 OFFCURVE",
"257 454 OFFCURVE",
"203 454 CURVE SMOOTH",
"151 454 OFFCURVE",
"92 480 OFFCURVE",
"92 525 CURVE SMOOTH",
"92 568 OFFCURVE",
"146 597 OFFCURVE",
"202 597 CURVE SMOOTH",
"254 597 OFFCURVE",
"312 570 OFFCURVE",
"312 525 CURVE SMOOTH"
);
},
{
closed = 1;
nodes = (
"108 735 OFFCURVE",
"152 757 OFFCURVE",
"202 757 CURVE SMOOTH",
"250 757 OFFCURVE",
"297 736 OFFCURVE",
"297 700 CURVE SMOOTH",
"297 664 OFFCURVE",
"246 643 OFFCURVE",
"202 643 CURVE SMOOTH",
"158 643 OFFCURVE",
"108 663 OFFCURVE",
"108 700 CURVE SMOOTH"
);
}
);
width = 405;
}
);
unicode = 2078;
},
{
glyphname = ellipsis;
lastChange = "2015-11-08 21:02:16 +0000";
layers = (
{
layerId = "BB6A41DF-B2B0-47BB-BB25-47FFE7E0E8E0";
name = Regular;
paths = (
{
closed = 1;
nodes = (
"311 -9 OFFCURVE",
"339 19 OFFCURVE",
"339 52 CURVE SMOOTH",
"339 86 OFFCURVE",
"311 114 OFFCURVE",
"278 114 CURVE SMOOTH",
"244 114 OFFCURVE",
"217 86 OFFCURVE",
"217 52 CURVE SMOOTH",
"217 19 OFFCURVE",
"244 -9 OFFCURVE",
"278 -9 CURVE SMOOTH"
);
},
{
closed = 1;
nodes = (
"491 -9 OFFCURVE",
"519 19 OFFCURVE",
"519 52 CURVE SMOOTH",
"519 86 OFFCURVE",
"491 114 OFFCURVE",
"458 114 CURVE SMOOTH",
"424 114 OFFCURVE",
"397 86 OFFCURVE",
"397 52 CURVE SMOOTH",
"397 19 OFFCURVE",
"424 -9 OFFCURVE",
"458 -9 CURVE SMOOTH"
);
},
{
closed = 1;
nodes = (
"132 -9 OFFCURVE",
"160 19 OFFCURVE",
"160 52 CURVE SMOOTH",
"160 86 OFFCURVE",
"132 114 OFFCURVE",
"99 114 CURVE SMOOTH",
"65 114 OFFCURVE",
"38 86 OFFCURVE",
"38 52 CURVE SMOOTH",
"38 19 OFFCURVE",
"65 -9 OFFCURVE",
"99 -9 CURVE SMOOTH"
);
}
);
width = 534;
}
);
leftKerningGroup = comma;
unicode = 2026;
},
{
glyphname = emdash;
lastChange = "2015-11-08 21:02:16 +0000";
layers = (
{
layerId = "BB6A41DF-B2B0-47BB-BB25-47FFE7E0E8E0";
name = Regular;
paths = (
{
closed = 1;
nodes = (
"847 233 LINE",
"847 313 LINE",
"64 313 LINE",
"64 233 LINE"
);
}
);
width = 911;
}
);
leftKerningGroup = emdash;
rightKerningGroup = emdash;
unicode = 2014;
},
{
glyphname = endash;
lastChange = "2015-11-08 21:02:16 +0000";
layers = (
{
layerId = "BB6A41DF-B2B0-47BB-BB25-47FFE7E0E8E0";
name = Regular;
paths = (
{
closed = 1;
nodes = (
"518 233 LINE",
"518 313 LINE",
"64 313 LINE",
"64 233 LINE"
);
}
);
width = 582;
}
);
leftKerningGroup = emdash;
rightKerningGroup = emdash;
unicode = 2013;
},
{
glyphname = eng;
lastChange = "2015-11-08 21:02:16 +0000";
layers = (
{
layerId = "BB6A41DF-B2B0-47BB-BB25-47FFE7E0E8E0";
name = Regular;
paths = (
{
closed = 1;
nodes = (
"447 -186 OFFCURVE",
"524 -116 OFFCURVE",
"524 -17 CURVE SMOOTH",
"524 312 LINE SMOOTH",
"524 438 OFFCURVE",
"489 531 OFFCURVE",
"368 531 CURVE SMOOTH",
"276 531 OFFCURVE",
"192 483 OFFCURVE",
"151 410 CURVE",
"151 522 LINE",
"71 522 LINE",
"71 0 LINE",
"159 0 LINE",
"159 315 LINE",
"183 394 OFFCURVE",
"261 452 OFFCURVE",
"333 452 CURVE SMOOTH",
"402 452 OFFCURVE",
"436 403 OFFCURVE",
"436 292 CURVE SMOOTH",
"436 -23 LINE SMOOTH",
"436 -72 OFFCURVE",
"395 -108 OFFCURVE",
"352 -108 CURVE SMOOTH",
"328 -108 OFFCURVE",
"302 -102 OFFCURVE",
"283 -85 CURVE",
"242 -144 LINE",
"274 -173 OFFCURVE",
"316 -186 OFFCURVE",
"362 -186 CURVE SMOOTH"
);
}
);
width = 590;
}
);
leftKerningGroup = eng;
rightKerningGroup = eng;
unicode = 014B;
},
{
glyphname = equal;
lastChange = "2015-11-08 21:02:16 +0000";
layers = (
{
layerId = "BB6A41DF-B2B0-47BB-BB25-47FFE7E0E8E0";
name = Regular;
paths = (
{
closed = 1;
nodes = (
"372 179 LINE",
"372 239 LINE",
"67 239 LINE",
"67 179 LINE"
);
},
{
closed = 1;
nodes = (
"372 313 LINE",
"372 373 LINE",
"67 373 LINE",
"67 313 LINE"
);
}
);
width = 439;
}
);
unicode = 003D;
},
{
glyphname = eth;
lastChange = "2015-11-08 21:02:16 +0000";
layers = (
{
layerId = "BB6A41DF-B2B0-47BB-BB25-47FFE7E0E8E0";
name = Regular;
paths = (
{
closed = 1;
nodes = (
"478 713 LINE",
"394 662 LINE",
"367 686 OFFCURVE",
"336 709 OFFCURVE",
"301 730 CURVE",
"177 730 LINE",
"237 696 OFFCURVE",
"286 662 OFFCURVE",
"325 628 CURVE",
"226 569 LINE",
"253 532 LINE",
"360 596 LINE",
"432 522 OFFCURVE",
"463 447 OFFCURVE",
"476 368 CURVE",
"440 431 OFFCURVE",
"366 473 OFFCURVE",
"283 473 CURVE SMOOTH",
"148 473 OFFCURVE",
"39 364 OFFCURVE",
"39 233 CURVE SMOOTH",
"39 97 OFFCURVE",
"156 -10 OFFCURVE",
"297 -10 CURVE SMOOTH",
"442 -10 OFFCURVE",
"566 104 OFFCURVE",
"566 290 CURVE SMOOTH",
"566 389 OFFCURVE",
"530 521 OFFCURVE",
"427 630 CURVE",
"505 676 LINE"
);
},
{
closed = 1;
nodes = (
"129 326 OFFCURVE",
"206 401 OFFCURVE",
"304 401 CURVE SMOOTH",
"399 401 OFFCURVE",
"476 331 OFFCURVE",
"476 239 CURVE SMOOTH",
"476 146 OFFCURVE",
"399 66 OFFCURVE",
"300 66 CURVE SMOOTH",
"205 66 OFFCURVE",
"129 140 OFFCURVE",
"129 233 CURVE SMOOTH"
);
}
);
width = 606;
}
);
leftKerningGroup = eth;
rightKerningGroup = eth;
unicode = 00F0;
},
{
glyphname = exclam;
lastChange = "2015-11-08 21:02:16 +0000";
layers = (
{
layerId = "BB6A41DF-B2B0-47BB-BB25-47FFE7E0E8E0";
name = Regular;
paths = (
{
closed = 1;
nodes = (
"175 240 LINE",
"175 717 LINE",
"87 717 LINE",
"87 240 LINE"
);
},
{
closed = 1;
nodes = (
"164 0 OFFCURVE",
"193 28 OFFCURVE",
"193 62 CURVE SMOOTH",
"193 96 OFFCURVE",
"164 125 OFFCURVE",
"131 125 CURVE SMOOTH",
"97 125 OFFCURVE",
"69 96 OFFCURVE",
"69 62 CURVE SMOOTH",
"69 28 OFFCURVE",
"97 0 OFFCURVE",
"131 0 CURVE SMOOTH"
);
}
);
width = 262;
}
);
unicode = 0021;
},
{
glyphname = exclamdown;
lastChange = "2015-11-08 21:02:16 +0000";
layers = (
{
layerId = "BB6A41DF-B2B0-47BB-BB25-47FFE7E0E8E0";
name = Regular;
paths = (
{
closed = 1;
nodes = (
"87 474 LINE",
"87 -3 LINE",
"175 -3 LINE",
"175 474 LINE"
);
},
{
closed = 1;
nodes = (
"164 589 OFFCURVE",
"193 617 OFFCURVE",
"193 651 CURVE SMOOTH",
"193 685 OFFCURVE",
"164 714 OFFCURVE",
"131 714 CURVE SMOOTH",
"97 714 OFFCURVE",
"69 685 OFFCURVE",
"69 651 CURVE SMOOTH",
"69 617 OFFCURVE",
"97 589 OFFCURVE",
"131 589 CURVE SMOOTH"
);
}
);
width = 260;
}
);
unicode = 00A1;
},
{
glyphname = f;
lastChange = "2015-11-08 21:02:16 +0000";
layers = (
{
layerId = "BB6A41DF-B2B0-47BB-BB25-47FFE7E0E8E0";
name = Regular;
paths = (
{
closed = 1;
nodes = (
"187 0 LINE",
"187 453 LINE",
"326 453 LINE",
"326 522 LINE",
"187 522 LINE",
"187 536 LINE SMOOTH",
"187 619 OFFCURVE",
"219 665 OFFCURVE",
"277 665 CURVE SMOOTH",
"303 665 OFFCURVE",
"333 656 OFFCURVE",
"352 643 CURVE",
"374 708 LINE",
"342 728 OFFCURVE",
"300 740 OFFCURVE",
"259 740 CURVE SMOOTH",
"161 740 OFFCURVE",
"99 661 OFFCURVE",
"99 533 CURVE SMOOTH",
"99 522 LINE",
"28 522 LINE",
"28 453 LINE",
"99 453 LINE",
"99 0 LINE"
);
}
);
width = 343;
}
);
leftKerningGroup = f;
rightKerningGroup = f;
unicode = 0066;
},
{
glyphname = f_f;
lastChange = "2015-11-08 21:02:16 +0000";
layers = (
{
layerId = "BB6A41DF-B2B0-47BB-BB25-47FFE7E0E8E0";
name = Regular;
paths = (
{
closed = 1;
nodes = (
"569 668 OFFCURVE",
"588 653 OFFCURVE",
"604 643 CURVE",
"642 705 LINE",
"621 714 OFFCURVE",
"589 740 OFFCURVE",
"515 740 CURVE SMOOTH",
"453 740 OFFCURVE",
"415 714 OFFCURVE",
"386 675 CURVE",
"356 689 OFFCURVE",
"327 702 OFFCURVE",
"263 702 CURVE SMOOTH",
"156 702 OFFCURVE",
"99 617 OFFCURVE",
"99 464 CURVE SMOOTH",
"99 460 LINE",
"28 460 LINE",
"28 391 LINE",
"99 391 LINE",
"99 0 LINE",
"187 0 LINE",
"187 391 LINE",
"339 391 LINE",
"339 0 LINE",
"427 0 LINE",
"427 391 LINE",
"584 391 LINE",
"584 460 LINE",
"427 460 LINE",
"427 536 LINE SMOOTH",
"427 598 OFFCURVE",
"457 668 OFFCURVE",
"531 668 CURVE SMOOTH"
);
},
{
closed = 1;
nodes = (
"187 460 LINE",
"187 465 LINE SMOOTH",
"187 578 OFFCURVE",
"209 630 OFFCURVE",
"276 630 CURVE SMOOTH",
"299 630 OFFCURVE",
"334 622 OFFCURVE",
"355 608 CURVE",
"344 587 OFFCURVE",
"339 485 OFFCURVE",
"339 460 CURVE"
);
}
);
width = 601;
}
);
leftKerningGroup = f;
rightKerningGroup = f;
unicode = FB00;
},
{
glyphname = f_f_i;
lastChange = "2015-11-08 21:02:16 +0000";
layers = (
{
layerId = "BB6A41DF-B2B0-47BB-BB25-47FFE7E0E8E0";
name = Regular;
paths = (
{
closed = 1;
nodes = (
"99 0 LINE",
"187 0 LINE",
"187 391 LINE",
"339 391 LINE",
"339 0 LINE",
"427 0 LINE",
"427 391 LINE",
"606 391 LINE",
"606 0 LINE",
"694 0 LINE",
"694 460 LINE",
"427 460 LINE",
"427 536 LINE SMOOTH",
"427 598 OFFCURVE",
"459 664 OFFCURVE",
"539 664 CURVE SMOOTH",
"586 664 OFFCURVE",
"633 645 OFFCURVE",
"658 623 CURVE",
"702 685 LINE",
"666 708 OFFCURVE",
"609 740 OFFCURVE",
"531 740 CURVE SMOOTH",
"463 740 OFFCURVE",
"413 714 OFFCURVE",
"381 675 CURVE",
"351 689 OFFCURVE",
"311 702 OFFCURVE",
"263 702 CURVE SMOOTH",
"158 702 OFFCURVE",
"99 625 OFFCURVE",
"99 464 CURVE SMOOTH",
"99 460 LINE",
"28 460 LINE",
"28 391 LINE",
"99 391 LINE"
);
},
{
closed = 1;
nodes = (
"187 460 LINE",
"187 465 LINE SMOOTH",
"187 582 OFFCURVE",
"212 629 OFFCURVE",
"279 629 CURVE SMOOTH",
"302 629 OFFCURVE",
"334 622 OFFCURVE",
"355 608 CURVE",
"344 584 OFFCURVE",
"339 550 OFFCURVE",
"339 460 CURVE"
);
}
);
width = 765;
}
);
leftKerningGroup = f;
rightKerningGroup = dotlessi;
unicode = FB03;
},
{
glyphname = f_f_l;
lastChange = "2015-11-08 21:02:16 +0000";
layers = (
{
layerId = "BB6A41DF-B2B0-47BB-BB25-47FFE7E0E8E0";
name = Regular;
paths = (
{
closed = 1;
nodes = (
"851 12 LINE",
"834 83 LINE",
"791 73 LINE",
"743 62 OFFCURVE",
"724 96 OFFCURVE",
"724 133 CURVE SMOOTH",
"724 572 LINE SMOOTH",
"724 670 OFFCURVE",
"661 740 OFFCURVE",
"534 740 CURVE SMOOTH",
"465 740 OFFCURVE",
"413 717 OFFCURVE",
"381 675 CURVE",
"351 689 OFFCURVE",
"317 702 OFFCURVE",
"268 702 CURVE SMOOTH",
"140 702 OFFCURVE",
"99 614 OFFCURVE",
"99 464 CURVE SMOOTH",
"99 460 LINE",
"28 460 LINE",
"28 391 LINE",
"99 391 LINE",
"99 0 LINE",
"187 0 LINE",
"187 391 LINE",
"342 391 LINE",
"342 0 LINE",
"430 0 LINE",
"430 391 LINE",
"532 391 LINE",
"532 460 LINE",
"430 460 LINE",
"430 464 LINE SMOOTH",
"430 539 OFFCURVE",
"426 664 OFFCURVE",
"535 664 CURVE SMOOTH",
"613 664 OFFCURVE",
"636 604 OFFCURVE",
"636 553 CURVE SMOOTH",
"636 145 LINE SMOOTH",
"636 48 OFFCURVE",
"682 -14 OFFCURVE",
"763 -5 CURVE"
);
},
{
closed = 1;
nodes = (
"187 460 LINE",
"187 514 LINE SMOOTH",
"187 571 OFFCURVE",
"220 626 OFFCURVE",
"285 626 CURVE SMOOTH",
"307 626 OFFCURVE",
"333 623 OFFCURVE",
"354 609 CURVE",
"345 590 OFFCURVE",
"342 488 OFFCURVE",
"342 460 CURVE"
);
}
);
width = 849;
}
);
leftKerningGroup = f;
rightKerningGroup = f_f_l;
unicode = FB04;
},
{
glyphname = f_i;
lastChange = "2015-11-08 21:02:16 +0000";
layers = (
{
layerId = "BB6A41DF-B2B0-47BB-BB25-47FFE7E0E8E0";
name = Regular;
paths = (
{
closed = 1;
nodes = (
"99 0 LINE",
"187 0 LINE",
"187 391 LINE",
"366 391 LINE",
"366 0 LINE",
"454 0 LINE",
"454 460 LINE",
"187 460 LINE",
"187 522 LINE SMOOTH",
"187 621 OFFCURVE",
"220 669 OFFCURVE",
"297 669 CURVE SMOOTH",
"358 669 OFFCURVE",
"398 637 OFFCURVE",
"414 623 CURVE",
"464 678 LINE",
"453 685 OFFCURVE",
"390 740 OFFCURVE",
"292 740 CURVE SMOOTH",
"170 740 OFFCURVE",
"99 661 OFFCURVE",
"99 522 CURVE SMOOTH",
"99 460 LINE",
"28 460 LINE",
"28 391 LINE",
"99 391 LINE"
);
}
);
width = 525;
}
);
leftKerningGroup = f;
rightKerningGroup = dotlessi;
unicode = FB01;
},
{
glyphname = f_l;
lastChange = "2015-11-08 21:02:16 +0000";
layers = (
{
layerId = "BB6A41DF-B2B0-47BB-BB25-47FFE7E0E8E0";
name = Regular;
paths = (
{
closed = 1;
nodes = (
"594 84 LINE",
"574 80 LINE",
"501 61 OFFCURVE",
"482 106 OFFCURVE",
"482 133 CURVE SMOOTH",
"482 572 LINE SMOOTH",
"482 670 OFFCURVE",
"419 740 OFFCURVE",
"291 740 CURVE SMOOTH",
"165 740 OFFCURVE",
"99 661 OFFCURVE",
"99 540 CURVE SMOOTH",
"99 460 LINE",
"28 460 LINE",
"28 391 LINE",
"99 391 LINE",
"99 0 LINE",
"187 0 LINE",
"187 391 LINE",
"290 391 LINE",
"290 460 LINE",
"187 460 LINE",
"187 531 LINE SMOOTH",
"187 609 OFFCURVE",
"219 664 OFFCURVE",
"292 664 CURVE SMOOTH",
"371 664 OFFCURVE",
"394 604 OFFCURVE",
"394 553 CURVE SMOOTH",
"394 135 LINE SMOOTH",
"394 62 OFFCURVE",
"435 -32 OFFCURVE",
"596 6 CURVE",
"609 8 LINE"
);
}
);
width = 606;
}
);
leftKerningGroup = f;
rightKerningGroup = f_f_l;
unicode = FB02;
},
{
glyphname = five;
lastChange = "2015-11-08 21:02:16 +0000";
layers = (
{
layerId = "BB6A41DF-B2B0-47BB-BB25-47FFE7E0E8E0";
name = Regular;
paths = (
{
closed = 1;
nodes = (
"231 453 OFFCURVE",
"185 435 OFFCURVE",
"156 403 CURVE",
"199 629 LINE",
"479 629 LINE",
"479 710 LINE",
"134 710 LINE SMOOTH",
"134 710 OFFCURVE",
"60 333 OFFCURVE",
"54 304 CURVE",
"134 304 LINE",
"165 350 OFFCURVE",
"219 377 OFFCURVE",
"275 377 CURVE SMOOTH",
"361 377 OFFCURVE",
"428 314 OFFCURVE",
"428 225 CURVE SMOOTH",
"428 133 OFFCURVE",
"359 69 OFFCURVE",
"268 69 CURVE SMOOTH",
"196 69 OFFCURVE",
"130 109 OFFCURVE",
"93 171 CURVE",
"38 123 LINE",
"80 42 OFFCURVE",
"166 -10 OFFCURVE",
"267 -10 CURVE SMOOTH",
"408 -10 OFFCURVE",
"518 86 OFFCURVE",
"518 227 CURVE SMOOTH",
"518 360 OFFCURVE",
"417 453 OFFCURVE",
"286 453 CURVE SMOOTH"
);
}
);
width = 558;
}
);
unicode = 0035;
},
{
glyphname = fiveeighths;
lastChange = "2015-11-08 21:02:16 +0000";
layers = (
{
layerId = "BB6A41DF-B2B0-47BB-BB25-47FFE7E0E8E0";
name = Regular;
paths = (
{
closed = 1;
nodes = (
"864 165 OFFCURVE",
"825 199 OFFCURVE",
"773 218 CURVE",
"815 232 OFFCURVE",
"848 261 OFFCURVE",
"848 301 CURVE SMOOTH",
"848 366 OFFCURVE",
"770 406 OFFCURVE",
"698 406 CURVE SMOOTH",
"626 406 OFFCURVE",
"548 365 OFFCURVE",
"548 300 CURVE SMOOTH",
"548 259 OFFCURVE",
"583 232 OFFCURVE",
"622 218 CURVE",
"576 201 OFFCURVE",
"532 169 OFFCURVE",
"532 117 CURVE SMOOTH",
"532 50 OFFCURVE",
"602 -5 OFFCURVE",
"697 -5 CURVE SMOOTH",
"787 -5 OFFCURVE",
"864 44 OFFCURVE",
"864 115 CURVE SMOOTH"
);
},
{
closed = 1;
nodes = (
"808 78 OFFCURVE",
"753 50 OFFCURVE",
"699 50 CURVE SMOOTH",
"647 50 OFFCURVE",
"588 76 OFFCURVE",
"588 120 CURVE SMOOTH",
"588 164 OFFCURVE",
"642 193 OFFCURVE",
"698 193 CURVE SMOOTH",
"750 193 OFFCURVE",
"808 166 OFFCURVE",
"808 121 CURVE SMOOTH"
);
},
{
closed = 1;
nodes = (
"604 331 OFFCURVE",
"648 353 OFFCURVE",
"698 353 CURVE SMOOTH",
"746 353 OFFCURVE",
"793 331 OFFCURVE",
"793 296 CURVE SMOOTH",
"793 260 OFFCURVE",
"742 238 OFFCURVE",
"698 238 CURVE SMOOTH",
"654 238 OFFCURVE",
"604 259 OFFCURVE",
"604 295 CURVE SMOOTH"
);
},
{
closed = 1;
nodes = (
"162 584 OFFCURVE",
"131 574 OFFCURVE",
"110 558 CURVE",
"140 675 LINE",
"328 675 LINE",
"328 730 LINE",
"99 730 LINE",
"92 688 OFFCURVE",
"56 550 OFFCURVE",
"45 494 CURVE",
"95 494 LINE",
"115 522 OFFCURVE",
"155 541 OFFCURVE",
"194 541 CURVE SMOOTH",
"244 541 OFFCURVE",
"298 512 OFFCURVE",
"298 456 CURVE SMOOTH",
"298 404 OFFCURVE",
"251 372 OFFCURVE",
"190 372 CURVE SMOOTH",
"138 372 OFFCURVE",
"95 393 OFFCURVE",
"70 427 CURVE",
"35 393 LINE",
"62 348 OFFCURVE",
"120 319 OFFCURVE",
"187 319 CURVE SMOOTH",
"281 319 OFFCURVE",
"355 374 OFFCURVE",
"355 455 CURVE SMOOTH",
"355 531 OFFCURVE",
"287 584 OFFCURVE",
"199 584 CURVE SMOOTH"
);
},
{
closed = 1;
nodes = (
"188 -5 LINE",
"460 343 LINE",
"737 678 LINE",
"694 715 LINE",
"426 370 LINE",
"146 33 LINE"
);
}
);
width = 899;
}
);
unicode = 215D;
},
{
glyphname = fivesuperior;
lastChange = "2015-11-08 21:02:16 +0000";
layers = (
{
layerId = "BB6A41DF-B2B0-47BB-BB25-47FFE7E0E8E0";
name = Regular;
paths = (
{
closed = 1;
nodes = (
"156 664 OFFCURVE",
"125 654 OFFCURVE",
"104 638 CURVE",
"134 755 LINE",
"322 755 LINE",
"322 810 LINE",
"93 810 LINE",
"86 768 OFFCURVE",
"50 630 OFFCURVE",
"39 574 CURVE",
"89 574 LINE",
"109 602 OFFCURVE",
"149 621 OFFCURVE",
"188 621 CURVE SMOOTH",
"238 621 OFFCURVE",
"292 592 OFFCURVE",
"292 536 CURVE SMOOTH",
"292 484 OFFCURVE",
"245 452 OFFCURVE",
"184 452 CURVE SMOOTH",
"132 452 OFFCURVE",
"89 473 OFFCURVE",
"64 507 CURVE",
"29 473 LINE",
"56 428 OFFCURVE",
"114 399 OFFCURVE",
"181 399 CURVE SMOOTH",
"275 399 OFFCURVE",
"349 454 OFFCURVE",
"349 535 CURVE SMOOTH",
"349 611 OFFCURVE",
"281 664 OFFCURVE",
"193 664 CURVE SMOOTH"
);
}
);
width = 380;
}
);
unicode = 2075;
},
{
glyphname = fraction;
lastChange = "2015-11-08 21:02:16 +0000";
layers = (
{
layerId = "BB6A41DF-B2B0-47BB-BB25-47FFE7E0E8E0";
name = Regular;
paths = (
{
closed = 1;
nodes = (
"-170 -5 LINE",
"102 343 LINE",
"379 678 LINE",
"336 715 LINE",
"68 370 LINE",
"-212 33 LINE"
);
}
);
width = 168;
}
);
unicode = 2044;
},
{
glyphname = fiveinferior;
lastChange = "2015-11-08 21:02:16 +0000";
layers = (
{
layerId = "BB6A41DF-B2B0-47BB-BB25-47FFE7E0E8E0";
name = Regular;
paths = (
{
closed = 1;
nodes = (
"156 180 OFFCURVE",
"125 170 OFFCURVE",
"104 154 CURVE",
"134 271 LINE",
"322 271 LINE",
"322 326 LINE",
"93 326 LINE",
"86 284 OFFCURVE",
"50 146 OFFCURVE",
"39 90 CURVE",
"89 90 LINE",
"109 118 OFFCURVE",
"149 137 OFFCURVE",
"188 137 CURVE SMOOTH",
"238 137 OFFCURVE",
"292 108 OFFCURVE",
"292 52 CURVE SMOOTH",
"292 0 OFFCURVE",
"245 -33 OFFCURVE",
"184 -33 CURVE SMOOTH",
"132 -33 OFFCURVE",
"89 -11 OFFCURVE",
"64 22 CURVE",
"29 -12 LINE",
"56 -56 OFFCURVE",
"114 -85 OFFCURVE",
"181 -85 CURVE SMOOTH",
"275 -85 OFFCURVE",
"349 -30 OFFCURVE",
"349 50 CURVE SMOOTH",
"349 127 OFFCURVE",
"281 180 OFFCURVE",
"193 180 CURVE SMOOTH"
);
}
);
width = 380;
}
);
unicode = 2085;
},
{
glyphname = florin;
lastChange = "2015-11-08 21:02:16 +0000";
layers = (
{
layerId = "BB6A41DF-B2B0-47BB-BB25-47FFE7E0E8E0";
name = Regular;
paths = (
{
closed = 1;
nodes = (
"234 -186 OFFCURVE",
"312 -118 OFFCURVE",
"312 -21 CURVE SMOOTH",
"312 392 LINE",
"451 392 LINE",
"451 461 LINE",
"312 461 LINE",
"312 536 LINE SMOOTH",
"312 619 OFFCURVE",
"343 665 OFFCURVE",
"401 665 CURVE SMOOTH",
"428 665 OFFCURVE",
"458 656 OFFCURVE",
"477 643 CURVE",
"499 708 LINE",
"467 728 OFFCURVE",
"424 740 OFFCURVE",
"384 740 CURVE SMOOTH",
"286 740 OFFCURVE",
"224 661 OFFCURVE",
"224 533 CURVE SMOOTH",
"224 461 LINE",
"153 461 LINE",
"153 392 LINE",
"224 392 LINE",
"224 -23 LINE SMOOTH",
"224 -72 OFFCURVE",
"183 -108 OFFCURVE",
"140 -108 CURVE SMOOTH",
"116 -108 OFFCURVE",
"90 -102 OFFCURVE",
"71 -85 CURVE",
"30 -144 LINE",
"62 -173 OFFCURVE",
"105 -186 OFFCURVE",
"150 -186 CURVE SMOOTH"
);
}
);
width = 534;
}
);
unicode = 0192;
},
{
glyphname = four;
lastChange = "2015-11-08 21:02:16 +0000";
layers = (
{
layerId = "BB6A41DF-B2B0-47BB-BB25-47FFE7E0E8E0";
name = Regular;
paths = (
{
closed = 1;
nodes = (
"449 0 LINE",
"449 181 LINE",
"537 181 LINE",
"537 261 LINE",
"449 261 LINE",
"449 710 LINE",
"388 710 LINE",
"27 260 LINE",
"27 181 LINE",
"361 181 LINE",
"361 0 LINE"
);
},
{
closed = 1;
nodes = (
"370 575 LINE",
"370 261 LINE",
"119 261 LINE"
);
}
);
width = 577;
}
);
leftKerningGroup = four.lnum;
unicode = 0034;
},
{
glyphname = fourinferior;
lastChange = "2015-11-08 21:02:16 +0000";
layers = (
{
layerId = "BB6A41DF-B2B0-47BB-BB25-47FFE7E0E8E0";
name = Regular;
paths = (
{
closed = 1;
nodes = (
"304 -80 LINE",
"304 20 LINE",
"363 20 LINE",
"363 74 LINE",
"304 74 LINE",
"304 326 LINE",
"266 326 LINE",
"23 73 LINE",
"23 20 LINE",
"249 20 LINE",
"249 -80 LINE"
);
},
{
closed = 1;
nodes = (
"251 254 LINE",
"251 74 LINE",
"80 74 LINE"
);
}
);
width = 391;
}
);
unicode = 2084;
},
{
glyphname = foursuperior;
lastChange = "2015-11-08 21:02:16 +0000";
layers = (
{
layerId = "BB6A41DF-B2B0-47BB-BB25-47FFE7E0E8E0";
name = Regular;
paths = (
{
closed = 1;
nodes = (
"304 405 LINE",
"304 504 LINE",
"363 504 LINE",
"363 558 LINE",
"304 558 LINE",
"304 810 LINE",
"266 810 LINE",
"23 557 LINE",
"23 504 LINE",
"249 504 LINE",
"249 405 LINE"
);
},
{
closed = 1;
nodes = (
"251 738 LINE",
"251 558 LINE",
"80 558 LINE"
);
}
);
width = 392;
}
);
unicode = 2074;
},
{
glyphname = g;
lastChange = "2015-11-08 21:02:16 +0000";
layers = (
{
anchors = (
{
name = top;
position = "{312, 522}";
}
);
layerId = "BB6A41DF-B2B0-47BB-BB25-47FFE7E0E8E0";
name = Regular;
paths = (
{
closed = 1;
nodes = (
"353 -6 OFFCURVE",
"426 34 OFFCURVE",
"465 98 CURVE",
"465 6 LINE SMOOTH",
"465 -103 OFFCURVE",
"383 -155 OFFCURVE",
"287 -155 CURVE SMOOTH",
"212 -155 OFFCURVE",
"142 -124 OFFCURVE",
"101 -63 CURVE",
"50 -108 LINE",
"99 -179 OFFCURVE",
"169 -223 OFFCURVE",
"287 -223 CURVE SMOOTH",
"435 -223 OFFCURVE",
"553 -142 OFFCURVE",
"553 6 CURVE SMOOTH",
"553 522 LINE",
"475 522 LINE",
"475 418 LINE",
"431 483 OFFCURVE",
"367 531 OFFCURVE",
"280 531 CURVE SMOOTH",
"137 531 OFFCURVE",
"38 407 OFFCURVE",
"38 260 CURVE SMOOTH",
"38 121 OFFCURVE",
"137 -6 OFFCURVE",
"279 -6 CURVE SMOOTH"
);
},
{
closed = 1;
nodes = (
"206 66 OFFCURVE",
"127 154 OFFCURVE",
"127 258 CURVE SMOOTH",
"127 355 OFFCURVE",
"192 455 OFFCURVE",
"298 455 CURVE SMOOTH",
"367 455 OFFCURVE",
"437 404 OFFCURVE",
"465 333 CURVE",
"465 183 LINE",
"451 124 OFFCURVE",
"380 66 OFFCURVE",
"306 66 CURVE SMOOTH"
);
}
);
width = 624;
}
);
leftKerningGroup = a.alt;
rightKerningGroup = a.alt;
unicode = 0067;
},
{
glyphname = gcommaaccent;
lastChange = "2015-11-08 21:02:16 +0000";
layers = (
{
components = (
{
name = g;
}
);
layerId = "BB6A41DF-B2B0-47BB-BB25-47FFE7E0E8E0";
name = Regular;
paths = (
{
closed = 1;
nodes = (
"328 776 LINE",
"378 776 LINE",
"330 611 LINE",
"260 611 LINE"
);
}
);
width = 624;
}
);
leftKerningGroup = a.alt;
rightKerningGroup = a.alt;
unicode = 0123;
},
{
glyphname = germandbls;
lastChange = "2015-11-08 21:02:16 +0000";
layers = (
{
layerId = "BB6A41DF-B2B0-47BB-BB25-47FFE7E0E8E0";
name = Regular;
paths = (
{
closed = 1;
nodes = (
"241 -6 LINE",
"402 -1 OFFCURVE",
"518 71 OFFCURVE",
"518 208 CURVE SMOOTH",
"518 303 OFFCURVE",
"462 382 OFFCURVE",
"367 402 CURVE",
"422 417 OFFCURVE",
"467 482 OFFCURVE",
"467 553 CURVE SMOOTH",
"467 649 OFFCURVE",
"385 714 OFFCURVE",
"278 714 CURVE SMOOTH",
"158 714 OFFCURVE",
"71 633 OFFCURVE",
"71 517 CURVE SMOOTH",
"71 0 LINE",
"155 0 LINE",
"155 503 LINE SMOOTH",
"155 574 OFFCURVE",
"192 638 OFFCURVE",
"275 638 CURVE SMOOTH",
"332 638 OFFCURVE",
"383 607 OFFCURVE",
"383 540 CURVE SMOOTH",
"383 478 OFFCURVE",
"339 437 OFFCURVE",
"275 437 CURVE SMOOTH",
"257 437 LINE",
"257 357 LINE",
"276 357 LINE SMOOTH",
"366 357 OFFCURVE",
"427 301 OFFCURVE",
"427 215 CURVE SMOOTH",
"427 118 OFFCURVE",
"350 77 OFFCURVE",
"241 75 CURVE"
);
}
);
width = 553;
}
);
leftKerningGroup = b;
rightKerningGroup = germandbls;
unicode = 00DF;
},
{
glyphname = greater;
lastChange = "2015-11-08 21:02:16 +0000";
layers = (
{
layerId = "BB6A41DF-B2B0-47BB-BB25-47FFE7E0E8E0";
name = Regular;
paths = (
{
closed = 1;
nodes = (
"477 280 LINE",
"57 533 LINE",
"57 439 LINE",
"349 259 LINE",
"57 82 LINE",
"57 -16 LINE",
"477 234 LINE"
);
}
);
width = 510;
}
);
unicode = 003E;
},
{
glyphname = guillemotleft;
lastChange = "2015-11-08 21:02:16 +0000";
layers = (
{
layerId = "BB6A41DF-B2B0-47BB-BB25-47FFE7E0E8E0";
name = Regular;
paths = (
{
closed = 1;
nodes = (
"40 234 LINE",
"293 60 LINE",
"293 134 LINE",
"111 259 LINE",
"293 387 LINE",
"293 461 LINE",
"40 280 LINE"
);
},
{
closed = 1;
nodes = (
"282 234 LINE",
"535 60 LINE",
"535 134 LINE",
"353 259 LINE",
"535 387 LINE",
"535 461 LINE",
"282 280 LINE"
);
}
);
width = 596;
}
);
leftKerningGroup = guillemotleft;
rightKerningGroup = guillemotleft;
unicode = 00AB;
},
{
glyphname = guillemotright;
lastChange = "2015-11-08 21:02:16 +0000";
layers = (
{
layerId = "BB6A41DF-B2B0-47BB-BB25-47FFE7E0E8E0";
name = Regular;
paths = (
{
closed = 1;
nodes = (
"556 280 LINE",
"303 461 LINE",
"303 387 LINE",
"485 259 LINE",
"303 134 LINE",
"303 60 LINE",
"556 234 LINE"
);
},
{
closed = 1;
nodes = (
"314 280 LINE",
"61 461 LINE",
"61 387 LINE",
"243 259 LINE",
"61 134 LINE",
"61 60 LINE",
"314 234 LINE"
);
}
);
width = 596;
}
);
leftKerningGroup = guillemotright;
rightKerningGroup = guillemotright;
unicode = 00BB;
},
{
glyphname = guilsinglleft;
lastChange = "2015-11-08 21:02:16 +0000";
layers = (
{
layerId = "BB6A41DF-B2B0-47BB-BB25-47FFE7E0E8E0";
name = Regular;
paths = (
{
closed = 1;
nodes = (
"40 234 LINE",
"293 60 LINE",
"293 134 LINE",
"111 259 LINE",
"293 387 LINE",
"293 461 LINE",
"40 280 LINE"
);
}
);
width = 354;
}
);
leftKerningGroup = guillemotleft;
rightKerningGroup = guillemotleft;
unicode = 2039;
},
{
glyphname = guilsinglright;
lastChange = "2015-11-08 21:02:16 +0000";
layers = (
{
layerId = "BB6A41DF-B2B0-47BB-BB25-47FFE7E0E8E0";
name = Regular;
paths = (
{
closed = 1;
nodes = (
"314 280 LINE",
"61 461 LINE",
"61 387 LINE",
"243 259 LINE",
"61 134 LINE",
"61 60 LINE",
"314 234 LINE"
);
}
);
width = 354;
}
);
leftKerningGroup = guillemotright;
rightKerningGroup = guillemotright;
unicode = 203A;
},
{
glyphname = h;
lastChange = "2015-11-08 21:02:16 +0000";
layers = (
{
anchors = (
{
name = center;
position = "{295, 261}";
},
{
name = top;
position = "{295, 710}";
}
);
layerId = "BB6A41DF-B2B0-47BB-BB25-47FFE7E0E8E0";
name = Regular;
paths = (
{
closed = 1;
nodes = (
"524 312 LINE SMOOTH",
"524 436 OFFCURVE",
"483 531 OFFCURVE",
"359 531 CURVE SMOOTH",
"276 531 OFFCURVE",
"200 485 OFFCURVE",
"159 410 CURVE",
"159 730 LINE",
"71 730 LINE",
"71 0 LINE",
"159 0 LINE",
"159 315 LINE",
"182 394 OFFCURVE",
"257 452 OFFCURVE",
"326 452 CURVE SMOOTH",
"397 452 OFFCURVE",
"436 399 OFFCURVE",
"436 292 CURVE SMOOTH",
"436 0 LINE",
"524 0 LINE"
);
}
);
width = 590;
}
);
leftKerningGroup = b;
rightKerningGroup = h;
unicode = 0068;
},
{
glyphname = hbar;
lastChange = "2015-11-08 21:02:16 +0000";
layers = (
{
layerId = "BB6A41DF-B2B0-47BB-BB25-47FFE7E0E8E0";
name = Regular;
paths = (
{
closed = 1;
nodes = (
"524 312 LINE SMOOTH",
"524 436 OFFCURVE",
"483 531 OFFCURVE",
"359 531 CURVE SMOOTH",
"276 531 OFFCURVE",
"200 485 OFFCURVE",
"159 410 CURVE",
"159 611 LINE",
"281 611 LINE",
"281 667 LINE",
"159 667 LINE",
"159 730 LINE",
"71 730 LINE",
"71 667 LINE",
"15 667 LINE",
"15 611 LINE",
"71 611 LINE",
"71 0 LINE",
"159 0 LINE",
"159 315 LINE",
"182 394 OFFCURVE",
"257 452 OFFCURVE",
"326 452 CURVE SMOOTH",
"397 452 OFFCURVE",
"436 399 OFFCURVE",
"436 292 CURVE SMOOTH",
"436 0 LINE",
"524 0 LINE"
);
}
);
width = 590;
}
);
leftKerningGroup = b;
rightKerningGroup = h;
unicode = 0127;
},
{
glyphname = hyphen;
lastChange = "2015-11-08 21:02:16 +0000";
layers = (
{
layerId = "BB6A41DF-B2B0-47BB-BB25-47FFE7E0E8E0";
name = Regular;
paths = (
{
closed = 1;
nodes = (
"359 233 LINE",
"359 313 LINE",
"64 313 LINE",
"64 233 LINE"
);
}
);
width = 423;
}
);
leftKerningGroup = emdash;
rightKerningGroup = emdash;
unicode = 002D;
},
{
glyphname = i;
lastChange = "2015-11-08 21:02:16 +0000";
layers = (
{
layerId = "BB6A41DF-B2B0-47BB-BB25-47FFE7E0E8E0";
name = Regular;
paths = (
{
closed = 1;
nodes = (
"159 0 LINE",
"159 522 LINE",
"71 522 LINE",
"71 0 LINE"
);
},
{
closed = 1;
nodes = (
"146 616 OFFCURVE",
"172 643 OFFCURVE",
"172 674 CURVE SMOOTH",
"172 705 OFFCURVE",
"146 732 OFFCURVE",
"115 732 CURVE SMOOTH",
"84 732 OFFCURVE",
"58 705 OFFCURVE",
"58 674 CURVE SMOOTH",
"58 643 OFFCURVE",
"84 616 OFFCURVE",
"115 616 CURVE SMOOTH"
);
}
);
width = 230;
}
);
leftKerningGroup = dotlessi;
rightKerningGroup = dotlessi;
unicode = 0069;
},
{
glyphname = j;
lastChange = "2015-11-08 21:02:16 +0000";
layers = (
{
layerId = "BB6A41DF-B2B0-47BB-BB25-47FFE7E0E8E0";
name = Regular;
paths = (
{
closed = 1;
nodes = (
"71 -213 LINE",
"159 -213 LINE",
"159 522 LINE",
"71 522 LINE"
);
},
{
closed = 1;
nodes = (
"146 616 OFFCURVE",
"172 643 OFFCURVE",
"172 674 CURVE SMOOTH",
"172 705 OFFCURVE",
"146 732 OFFCURVE",
"115 732 CURVE SMOOTH",
"84 732 OFFCURVE",
"58 705 OFFCURVE",
"58 674 CURVE SMOOTH",
"58 643 OFFCURVE",
"84 616 OFFCURVE",
"115 616 CURVE SMOOTH"
);
}
);
width = 230;
}
);
leftKerningGroup = dotlessi;
rightKerningGroup = dotlessi;
unicode = 006A;
},
{
glyphname = j.alt;
lastChange = "2015-11-08 21:02:16 +0000";
layers = (
{
layerId = "BB6A41DF-B2B0-47BB-BB25-47FFE7E0E8E0";
name = Regular;
paths = (
{
closed = 1;
nodes = (
"89 -186 OFFCURVE",
"166 -116 OFFCURVE",
"166 -17 CURVE SMOOTH",
"166 522 LINE",
"78 522 LINE",
"78 -23 LINE SMOOTH",
"78 -72 OFFCURVE",
"37 -108 OFFCURVE",
"-6 -108 CURVE SMOOTH",
"-30 -108 OFFCURVE",
"-56 -102 OFFCURVE",
"-75 -85 CURVE",
"-116 -144 LINE",
"-84 -173 OFFCURVE",
"-42 -186 OFFCURVE",
"4 -186 CURVE SMOOTH"
);
},
{
closed = 1;
nodes = (
"151 616 OFFCURVE",
"177 643 OFFCURVE",
"177 674 CURVE SMOOTH",
"177 705 OFFCURVE",
"151 732 OFFCURVE",
"120 732 CURVE SMOOTH",
"89 732 OFFCURVE",
"63 705 OFFCURVE",
"63 674 CURVE SMOOTH",
"63 643 OFFCURVE",
"89 616 OFFCURVE",
"120 616 CURVE SMOOTH"
);
}
);
width = 237;
}
);
leftKerningGroup = dotlessi;
rightKerningGroup = dotlessi;
},
{
glyphname = k;
lastChange = "2015-11-08 21:02:16 +0000";
layers = (
{
anchors = (
{
name = bottom;
position = "{270, 0}";
}
);
layerId = "BB6A41DF-B2B0-47BB-BB25-47FFE7E0E8E0";
name = Regular;
paths = (
{
closed = 1;
nodes = (
"534 0 LINE",
"316 305 LINE",
"524 521 LINE",
"427 521 LINE",
"159 250 LINE",
"159 730 LINE",
"71 730 LINE",
"71 0 LINE",
"159 0 LINE",
"159 161 LINE",
"259 255 LINE",
"439 0 LINE"
);
}
);
width = 539;
}
);
leftKerningGroup = b;
rightKerningGroup = k;
unicode = 006B;
},
{
glyphname = kgreenlandic;
lastChange = "2015-11-08 21:02:16 +0000";
layers = (
{
layerId = "BB6A41DF-B2B0-47BB-BB25-47FFE7E0E8E0";
name = Regular;
paths = (
{
closed = 1;
nodes = (
"534 0 LINE",
"316 305 LINE",
"524 521 LINE",
"427 521 LINE",
"159 250 LINE",
"159 522 LINE",
"71 522 LINE",
"71 0 LINE",
"159 0 LINE",
"159 161 LINE",
"259 255 LINE",
"439 0 LINE"
);
}
);
width = 539;
}
);
unicode = 0138;
},
{
glyphname = l;
lastChange = "2015-11-08 21:02:16 +0000";
layers = (
{
anchors = (
{
name = bottom;
position = "{120, 0}";
},
{
name = middle;
position = "{168, 318}";
},
{
name = top;
position = "{120, 710}";
},
{
name = topright;
position = "{208, 522}";
}
);
layerId = "BB6A41DF-B2B0-47BB-BB25-47FFE7E0E8E0";
name = Regular;
paths = (
{
closed = 1;
nodes = (
"76 0 LINE",
"164 0 LINE",
"164 730 LINE",
"76 730 LINE"
);
}
);
width = 240;
}
);
leftKerningGroup = l.alt;
rightKerningGroup = l.alt;
unicode = 006C;
},
{
glyphname = l.alt;
lastChange = "2015-11-08 21:02:16 +0000";
layers = (
{
layerId = "BB6A41DF-B2B0-47BB-BB25-47FFE7E0E8E0";
name = Regular;
paths = (
{
closed = 1;
nodes = (
"73 103 LINE SMOOTH",
"73 34 OFFCURVE",
"115 -7 OFFCURVE",
"183 -7 CURVE SMOOTH",
"214 -7 OFFCURVE",
"259 2 OFFCURVE",
"288 14 CURVE",
"274 85 LINE",
"257 78 OFFCURVE",
"235 73 OFFCURVE",
"220 73 CURVE SMOOTH",
"183 73 OFFCURVE",
"161 96 OFFCURVE",
"161 135 CURVE SMOOTH",
"161 730 LINE",
"73 730 LINE"
);
}
);
width = 286;
}
);
leftKerningGroup = l;
rightKerningGroup = f_f_l;
},
{
glyphname = less;
lastChange = "2015-11-08 21:02:16 +0000";
layers = (
{
layerId = "BB6A41DF-B2B0-47BB-BB25-47FFE7E0E8E0";
name = Regular;
paths = (
{
closed = 1;
nodes = (
"33 234 LINE",
"453 -16 LINE",
"453 82 LINE",
"161 259 LINE",
"453 439 LINE",
"453 533 LINE",
"33 280 LINE"
);
}
);
width = 510;
}
);
unicode = 003C;
},
{
glyphname = logicalnot;
lastChange = "2015-11-08 21:02:16 +0000";
layers = (
{
layerId = "BB6A41DF-B2B0-47BB-BB25-47FFE7E0E8E0";
name = Regular;
paths = (
{
closed = 1;
nodes = (
"67 375 LINE",
"67 295 LINE",
"445 295 LINE",
"445 120 LINE",
"521 120 LINE",
"521 375 LINE"
);
}
);
width = 591;
}
);
unicode = 00AC;
},
{
glyphname = lslash;
lastChange = "2015-11-08 21:02:16 +0000";
layers = (
{
components = (
{
name = l;
transform = "{1, 0, 0, 1, 18, 0}";
}
);
layerId = "BB6A41DF-B2B0-47BB-BB25-47FFE7E0E8E0";
name = Regular;
paths = (
{
closed = 1;
nodes = (
"-1 327 LINE",
"34 283 LINE",
"304 478 LINE",
"270 522 LINE"
);
}
);
width = 308;
}
);
leftKerningGroup = l;
rightKerningGroup = f_f_l;
unicode = 0142;
},
{
glyphname = m;
lastChange = "2015-11-08 21:02:16 +0000";
layers = (
{
layerId = "BB6A41DF-B2B0-47BB-BB25-47FFE7E0E8E0";
name = Regular;
paths = (
{
closed = 1;
nodes = (
"858 312 LINE SMOOTH",
"858 437 OFFCURVE",
"820 531 OFFCURVE",
"700 531 CURVE SMOOTH",
"615 531 OFFCURVE",
"547 487 OFFCURVE",
"501 404 CURVE",
"489 478 OFFCURVE",
"436 531 OFFCURVE",
"349 531 CURVE SMOOTH",
"264 531 OFFCURVE",
"193 487 OFFCURVE",
"151 410 CURVE",
"151 522 LINE",
"71 522 LINE",
"71 0 LINE",
"159 0 LINE",
"159 315 LINE",
"183 397 OFFCURVE",
"246 452 OFFCURVE",
"316 452 CURVE SMOOTH",
"385 452 OFFCURVE",
"420 403 OFFCURVE",
"420 292 CURVE SMOOTH",
"420 0 LINE",
"508 0 LINE",
"508 314 LINE",
"532 395 OFFCURVE",
"594 452 OFFCURVE",
"665 452 CURVE SMOOTH",
"734 452 OFFCURVE",
"770 401 OFFCURVE",
"770 292 CURVE SMOOTH",
"770 0 LINE",
"858 0 LINE"
);
}
);
width = 924;
}
);
leftKerningGroup = eng;
rightKerningGroup = eng;
unicode = 006D;
},
{
glyphname = minus;
lastChange = "2015-11-08 21:02:16 +0000";
layers = (
{
layerId = "BB6A41DF-B2B0-47BB-BB25-47FFE7E0E8E0";
name = Regular;
paths = (
{
closed = 1;
nodes = (
"470 269 LINE",
"470 341 LINE",
"67 341 LINE",
"67 269 LINE"
);
}
);
width = 537;
}
);
unicode = 2212;
},
{
glyphname = mu;
lastChange = "2015-11-08 21:02:16 +0000";
layers = (
{
layerId = "BB6A41DF-B2B0-47BB-BB25-47FFE7E0E8E0";
name = Regular;
paths = (
{
closed = 1;
nodes = (
"78 -212 LINE",
"161 -212 LINE",
"161 67 LINE",
"176 25 OFFCURVE",
"213 -10 OFFCURVE",
"274 -10 CURVE SMOOTH",
"353 -10 OFFCURVE",
"430 48 OFFCURVE",
"462 112 CURVE",
"462 0 LINE",
"538 0 LINE",
"538 522 LINE",
"450 522 LINE",
"450 195 LINE",
"419 115 OFFCURVE",
"349 66 OFFCURVE",
"279 66 CURVE SMOOTH",
"203 66 OFFCURVE",
"166 119 OFFCURVE",
"166 226 CURVE SMOOTH",
"166 522 LINE",
"78 522 LINE"
);
}
);
width = 628;
}
);
unicode = 00B5;
},
{
glyphname = multiply;
lastChange = "2015-11-08 21:02:16 +0000";
layers = (
{
layerId = "BB6A41DF-B2B0-47BB-BB25-47FFE7E0E8E0";
name = Regular;
paths = (
{
closed = 1;
nodes = (
"288 273 LINE",
"401 387 LINE",
"346 443 LINE",
"232 329 LINE",
"119 442 LINE",
"63 387 LINE",
"176 273 LINE",
"61 158 LINE",
"116 102 LINE",
"232 218 LINE",
"348 102 LINE",
"404 157 LINE"
);
}
);
width = 464;
}
);
unicode = 00D7;
},
{
glyphname = n;
lastChange = "2015-11-08 21:02:16 +0000";
layers = (
{
anchors = (
{
name = bottom;
position = "{295, 0}";
},
{
name = top;
position = "{311, 522}";
}
);
layerId = "BB6A41DF-B2B0-47BB-BB25-47FFE7E0E8E0";
name = Regular;
paths = (
{
closed = 1;
nodes = (
"524 312 LINE SMOOTH",
"524 438 OFFCURVE",
"489 531 OFFCURVE",
"368 531 CURVE SMOOTH",
"276 531 OFFCURVE",
"192 483 OFFCURVE",
"151 410 CURVE",
"151 522 LINE",
"71 522 LINE",
"71 0 LINE",
"159 0 LINE",
"159 315 LINE",
"183 394 OFFCURVE",
"261 452 OFFCURVE",
"333 452 CURVE SMOOTH",
"402 452 OFFCURVE",
"436 403 OFFCURVE",
"436 292 CURVE SMOOTH",
"436 0 LINE",
"524 0 LINE"
);
}
);
width = 590;
}
);
leftKerningGroup = eng;
rightKerningGroup = eng;
unicode = 006E;
},
{
glyphname = napostrophe;
lastChange = "2015-11-08 21:02:16 +0000";
layers = (
{
layerId = "BB6A41DF-B2B0-47BB-BB25-47FFE7E0E8E0";
name = Regular;
paths = (
{
closed = 1;
nodes = (
"137 730 LINE",
"25 730 LINE",
"28 692 LINE",
"-9 629 LINE",
"48 609 LINE"
);
},
{
closed = 1;
nodes = (
"524 312 LINE SMOOTH",
"524 438 OFFCURVE",
"489 531 OFFCURVE",
"368 531 CURVE SMOOTH",
"276 531 OFFCURVE",
"192 483 OFFCURVE",
"151 410 CURVE",
"151 522 LINE",
"71 522 LINE",
"71 0 LINE",
"159 0 LINE",
"159 315 LINE",
"183 394 OFFCURVE",
"261 452 OFFCURVE",
"333 452 CURVE SMOOTH",
"402 452 OFFCURVE",
"436 403 OFFCURVE",
"436 292 CURVE SMOOTH",
"436 0 LINE",
"524 0 LINE"
);
}
);
width = 590;
}
);
leftKerningGroup = eng;
rightKerningGroup = eng;
unicode = 0149;
},
{
glyphname = nine;
lastChange = "2015-11-08 21:02:16 +0000";
layers = (
{
layerId = "BB6A41DF-B2B0-47BB-BB25-47FFE7E0E8E0";
name = Regular;
paths = (
{
closed = 1;
nodes = (
"44 337 OFFCURVE",
"152 231 OFFCURVE",
"289 231 CURVE SMOOTH",
"372 231 OFFCURVE",
"443 276 OFFCURVE",
"472 345 CURVE",
"471 169 OFFCURVE",
"399 68 OFFCURVE",
"290 68 CURVE SMOOTH",
"220 68 OFFCURVE",
"158 108 OFFCURVE",
"129 170 CURVE",
"75 117 LINE",
"118 37 OFFCURVE",
"197 -10 OFFCURVE",
"289 -10 CURVE SMOOTH",
"449 -10 OFFCURVE",
"555 130 OFFCURVE",
"555 410 CURVE SMOOTH",
"555 601 OFFCURVE",
"451 715 OFFCURVE",
"298 715 CURVE SMOOTH",
"155 715 OFFCURVE",
"44 607 OFFCURVE",
"44 470 CURVE SMOOTH"
);
},
{
closed = 1;
nodes = (
"389 640 OFFCURVE",
"467 562 OFFCURVE",
"467 470 CURVE SMOOTH",
"467 379 OFFCURVE",
"390 303 OFFCURVE",
"298 303 CURVE SMOOTH",
"206 303 OFFCURVE",
"129 379 OFFCURVE",
"129 471 CURVE SMOOTH",
"129 563 OFFCURVE",
"205 640 OFFCURVE",
"297 640 CURVE SMOOTH"
);
}
);
width = 606;
}
);
unicode = 0039;
},
{
glyphname = nineinferior;
lastChange = "2015-11-08 21:02:16 +0000";
layers = (
{
layerId = "BB6A41DF-B2B0-47BB-BB25-47FFE7E0E8E0";
name = Regular;
paths = (
{
closed = 1;
nodes = (
"32 112 OFFCURVE",
"103 52 OFFCURVE",
"197 52 CURVE SMOOTH",
"248 52 OFFCURVE",
"300 75 OFFCURVE",
"320 110 CURVE",
"319 19 OFFCURVE",
"269 -33 OFFCURVE",
"196 -33 CURVE SMOOTH",
"148 -33 OFFCURVE",
"106 -12 OFFCURVE",
"87 21 CURVE",
"53 -16 LINE",
"80 -60 OFFCURVE",
"134 -85 OFFCURVE",
"194 -85 CURVE SMOOTH",
"302 -85 OFFCURVE",
"372 -6 OFFCURVE",
"372 150 CURVE SMOOTH",
"372 262 OFFCURVE",
"302 329 OFFCURVE",
"201 329 CURVE SMOOTH",
"106 329 OFFCURVE",
"32 267 OFFCURVE",
"32 189 CURVE SMOOTH"
);
},
{
closed = 1;
nodes = (
"263 278 OFFCURVE",
"316 237 OFFCURVE",
"316 189 CURVE SMOOTH",
"316 141 OFFCURVE",
"264 101 OFFCURVE",
"201 101 CURVE SMOOTH",
"138 101 OFFCURVE",
"85 141 OFFCURVE",
"85 189 CURVE SMOOTH",
"85 237 OFFCURVE",
"137 278 OFFCURVE",
"200 278 CURVE SMOOTH"
);
}
);
width = 411;
}
);
unicode = 2089;
},
{
glyphname = ninesuperior;
lastChange = "2015-11-08 21:02:16 +0000";
layers = (
{
layerId = "BB6A41DF-B2B0-47BB-BB25-47FFE7E0E8E0";
name = Regular;
paths = (
{
closed = 1;
nodes = (
"31 593 OFFCURVE",
"102 533 OFFCURVE",
"196 533 CURVE SMOOTH",
"247 533 OFFCURVE",
"299 556 OFFCURVE",
"319 591 CURVE",
"318 500 OFFCURVE",
"268 447 OFFCURVE",
"195 447 CURVE SMOOTH",
"147 447 OFFCURVE",
"105 468 OFFCURVE",
"86 501 CURVE",
"52 465 LINE",
"79 421 OFFCURVE",
"133 395 OFFCURVE",
"193 395 CURVE SMOOTH",
"301 395 OFFCURVE",
"371 475 OFFCURVE",
"371 631 CURVE SMOOTH",
"371 743 OFFCURVE",
"301 810 OFFCURVE",
"200 810 CURVE SMOOTH",
"105 810 OFFCURVE",
"31 748 OFFCURVE",
"31 669 CURVE SMOOTH"
);
},
{
closed = 1;
nodes = (
"262 759 OFFCURVE",
"315 718 OFFCURVE",
"315 669 CURVE SMOOTH",
"315 622 OFFCURVE",
"263 582 OFFCURVE",
"200 582 CURVE SMOOTH",
"137 582 OFFCURVE",
"84 622 OFFCURVE",
"84 670 CURVE SMOOTH",
"84 718 OFFCURVE",
"136 759 OFFCURVE",
"199 759 CURVE SMOOTH"
);
}
);
width = 409;
}
);
unicode = 2079;
},
{
glyphname = numbersign;
lastChange = "2015-11-08 21:02:16 +0000";
layers = (
{
layerId = "BB6A41DF-B2B0-47BB-BB25-47FFE7E0E8E0";
name = Regular;
paths = (
{
closed = 1;
nodes = (
"655 511 LINE",
"537 511 LINE",
"586 710 LINE",
"513 710 LINE",
"465 511 LINE",
"297 511 LINE",
"346 710 LINE",
"273 710 LINE",
"225 511 LINE",
"81 511 LINE",
"81 447 LINE",
"209 447 LINE",
"166 269 LINE",
"37 269 LINE",
"37 201 LINE",
"150 201 LINE",
"100 0 LINE",
"173 0 LINE",
"222 201 LINE",
"390 201 LINE",
"340 0 LINE",
"413 0 LINE",
"462 201 LINE",
"611 201 LINE",
"611 269 LINE",
"478 269 LINE",
"521 447 LINE",
"655 447 LINE"
);
},
{
closed = 1;
nodes = (
"238 269 LINE",
"281 447 LINE",
"449 447 LINE",
"406 269 LINE"
);
}
);
width = 692;
}
);
unicode = 0023;
},
{
glyphname = o;
lastChange = "2015-11-08 21:02:16 +0000";
layers = (
{
anchors = (
{
name = bottom;
position = "{300, 2}";
},
{
name = top;
position = "{300, 522}";
}
);
layerId = "BB6A41DF-B2B0-47BB-BB25-47FFE7E0E8E0";
name = Regular;
paths = (
{
closed = 1;
nodes = (
"456 -10 OFFCURVE",
"563 115 OFFCURVE",
"563 260 CURVE SMOOTH",
"563 406 OFFCURVE",
"455 531 OFFCURVE",
"299 531 CURVE SMOOTH",
"144 531 OFFCURVE",
"36 406 OFFCURVE",
"36 260 CURVE SMOOTH",
"36 115 OFFCURVE",
"142 -10 OFFCURVE",
"299 -10 CURVE"
);
},
{
closed = 1;
nodes = (
"126 368 OFFCURVE",
"204 455 OFFCURVE",
"299 455 CURVE SMOOTH",
"395 455 OFFCURVE",
"473 369 OFFCURVE",
"473 261 CURVE SMOOTH",
"473 152 OFFCURVE",
"395 66 OFFCURVE",
"299 66 CURVE SMOOTH",
"203 66 OFFCURVE",
"126 150 OFFCURVE",
"126 259 CURVE SMOOTH"
);
}
);
width = 599;
}
);
leftKerningGroup = c;
rightKerningGroup = o;
unicode = 006F;
},
{
glyphname = oe;
lastChange = "2015-11-08 21:02:16 +0000";
layers = (
{
layerId = "BB6A41DF-B2B0-47BB-BB25-47FFE7E0E8E0";
name = Regular;
paths = (
{
closed = 1;
nodes = (
"392 -10 OFFCURVE",
"469 45 OFFCURVE",
"518 139 CURVE",
"567 48 OFFCURVE",
"650 -10 OFFCURVE",
"745 -10 CURVE SMOOTH",
"845 -10 OFFCURVE",
"937 43 OFFCURVE",
"973 122 CURVE",
"899 143 LINE",
"879 91 OFFCURVE",
"816 55 OFFCURVE",
"749 55 CURVE SMOOTH",
"653 55 OFFCURVE",
"574 132 OFFCURVE",
"566 231 CURVE",
"999 231 LINE",
"1000 237 OFFCURVE",
"1000 253 OFFCURVE",
"1000 261 CURVE",
"991 423 OFFCURVE",
"887 531 OFFCURVE",
"738 531 CURVE SMOOTH",
"636 531 OFFCURVE",
"558 476 OFFCURVE",
"517 379 CURVE",
"478 473 OFFCURVE",
"397 531 OFFCURVE",
"299 531 CURVE SMOOTH",
"150 531 OFFCURVE",
"36 413 OFFCURVE",
"36 259 CURVE SMOOTH",
"36 107 OFFCURVE",
"149 -10 OFFCURVE",
"298 -10 CURVE SMOOTH"
);
},
{
closed = 1;
nodes = (
"202 66 OFFCURVE",
"126 149 OFFCURVE",
"126 258 CURVE SMOOTH",
"126 368 OFFCURVE",
"203 455 OFFCURVE",
"300 455 CURVE SMOOTH",
"397 455 OFFCURVE",
"473 369 OFFCURVE",
"473 260 CURVE SMOOTH",
"473 151 OFFCURVE",
"397 66 OFFCURVE",
"299 66 CURVE SMOOTH"
);
},
{
closed = 1;
nodes = (
"564 288 LINE",
"570 391 OFFCURVE",
"642 465 OFFCURVE",
"736 465 CURVE SMOOTH",
"829 465 OFFCURVE",
"908 392 OFFCURVE",
"915 288 CURVE"
);
}
);
width = 1028;
}
);
leftKerningGroup = c;
rightKerningGroup = ae;
unicode = 0153;
},
{
glyphname = one;
lastChange = "2015-11-08 21:02:16 +0000";
layers = (
{
layerId = "BB6A41DF-B2B0-47BB-BB25-47FFE7E0E8E0";
name = Regular;
paths = (
{
closed = 1;
nodes = (
"292 0 LINE",
"292 718 LINE",
"202 718 LINE",
"18 599 LINE",
"62 534 LINE",
"202 625 LINE",
"202 0 LINE"
);
}
);
width = 441;
}
);
rightKerningGroup = one.lnum;
unicode = 0031;
},
{
glyphname = oneeighth;
lastChange = "2015-11-08 21:02:16 +0000";
layers = (
{
layerId = "BB6A41DF-B2B0-47BB-BB25-47FFE7E0E8E0";
name = Regular;
paths = (
{
closed = 1;
nodes = (
"852 165 OFFCURVE",
"813 199 OFFCURVE",
"761 218 CURVE",
"803 232 OFFCURVE",
"836 261 OFFCURVE",
"836 301 CURVE SMOOTH",
"836 366 OFFCURVE",
"758 406 OFFCURVE",
"686 406 CURVE SMOOTH",
"614 406 OFFCURVE",
"536 365 OFFCURVE",
"536 300 CURVE SMOOTH",
"536 259 OFFCURVE",
"571 232 OFFCURVE",
"610 218 CURVE",
"564 201 OFFCURVE",
"520 169 OFFCURVE",
"520 117 CURVE SMOOTH",
"520 50 OFFCURVE",
"590 -5 OFFCURVE",
"685 -5 CURVE SMOOTH",
"775 -5 OFFCURVE",
"852 44 OFFCURVE",
"852 115 CURVE SMOOTH"
);
},
{
closed = 1;
nodes = (
"796 78 OFFCURVE",
"741 50 OFFCURVE",
"687 50 CURVE SMOOTH",
"635 50 OFFCURVE",
"576 76 OFFCURVE",
"576 120 CURVE SMOOTH",
"576 164 OFFCURVE",
"630 193 OFFCURVE",
"686 193 CURVE SMOOTH",
"738 193 OFFCURVE",
"796 166 OFFCURVE",
"796 121 CURVE SMOOTH"
);
},
{
closed = 1;
nodes = (
"592 331 OFFCURVE",
"636 353 OFFCURVE",
"686 353 CURVE SMOOTH",
"734 353 OFFCURVE",
"781 331 OFFCURVE",
"781 296 CURVE SMOOTH",
"781 260 OFFCURVE",
"730 238 OFFCURVE",
"686 238 CURVE SMOOTH",
"642 238 OFFCURVE",
"592 259 OFFCURVE",
"592 295 CURVE SMOOTH"
);
},
{
closed = 1;
nodes = (
"166 -5 LINE",
"438 343 LINE",
"715 678 LINE",
"672 715 LINE",
"404 370 LINE",
"124 33 LINE"
);
},
{
closed = 1;
nodes = (
"196 320 LINE",
"196 731 LINE",
"140 731 LINE",
"45 675 LINE",
"75 631 LINE",
"140 669 LINE",
"140 320 LINE"
);
}
);
width = 887;
}
);
unicode = 215B;
},
{
glyphname = onesuperior;
lastChange = "2015-11-08 21:02:16 +0000";
layers = (
{
layerId = "BB6A41DF-B2B0-47BB-BB25-47FFE7E0E8E0";
name = Regular;
paths = (
{
closed = 1;
nodes = (
"185 400 LINE",
"185 811 LINE",
"129 811 LINE",
"34 755 LINE",
"64 711 LINE",
"129 749 LINE",
"129 400 LINE"
);
}
);
width = 280;
}
);
unicode = 00B9;
},
{
glyphname = onehalf;
lastChange = "2015-11-08 21:02:16 +0000";
layers = (
{
layerId = "BB6A41DF-B2B0-47BB-BB25-47FFE7E0E8E0";
name = Regular;
paths = (
{
closed = 1;
nodes = (
"851 0 LINE",
"851 54 LINE",
"622 54 LINE",
"622 89 OFFCURVE",
"638 133 OFFCURVE",
"718 160 CURVE SMOOTH",
"770 177 OFFCURVE",
"850 203 OFFCURVE",
"850 287 CURVE SMOOTH",
"850 360 OFFCURVE",
"801 411 OFFCURVE",
"705 411 CURVE SMOOTH",
"609 411 OFFCURVE",
"554 361 OFFCURVE",
"541 343 CURVE",
"575 303 LINE",
"596 326 OFFCURVE",
"635 357 OFFCURVE",
"697 357 CURVE SMOOTH",
"758 357 OFFCURVE",
"790 328 OFFCURVE",
"790 288 CURVE SMOOTH",
"790 229 OFFCURVE",
"719 212 OFFCURVE",
"660 188 CURVE SMOOTH",
"574 153 OFFCURVE",
"537 105 OFFCURVE",
"537 0 CURVE"
);
},
{
closed = 1;
nodes = (
"152 -5 LINE",
"424 343 LINE",
"701 678 LINE",
"658 715 LINE",
"390 370 LINE",
"110 33 LINE"
);
},
{
closed = 1;
nodes = (
"195 320 LINE",
"195 731 LINE",
"139 731 LINE",
"44 675 LINE",
"74 631 LINE",
"139 669 LINE",
"139 320 LINE"
);
}
);
width = 892;
}
);
unicode = 00BD;
},
{
glyphname = twoinferior;
lastChange = "2015-11-08 21:02:16 +0000";
layers = (
{
layerId = "BB6A41DF-B2B0-47BB-BB25-47FFE7E0E8E0";
name = Regular;
paths = (
{
closed = 1;
nodes = (
"360 -80 LINE",
"360 -26 LINE",
"122 -26 LINE",
"122 9 OFFCURVE",
"139 53 OFFCURVE",
"222 80 CURVE SMOOTH",
"276 97 OFFCURVE",
"359 123 OFFCURVE",
"359 207 CURVE SMOOTH",
"359 280 OFFCURVE",
"308 331 OFFCURVE",
"208 331 CURVE SMOOTH",
"109 331 OFFCURVE",
"52 281 OFFCURVE",
"38 263 CURVE",
"74 223 LINE",
"95 246 OFFCURVE",
"136 277 OFFCURVE",
"200 277 CURVE SMOOTH",
"264 277 OFFCURVE",
"297 248 OFFCURVE",
"297 208 CURVE SMOOTH",
"297 149 OFFCURVE",
"223 132 OFFCURVE",
"162 108 CURVE SMOOTH",
"73 73 OFFCURVE",
"34 25 OFFCURVE",
"34 -80 CURVE"
);
}
);
width = 400;
}
);
unicode = 2082;
},
{
glyphname = oneinferior;
lastChange = "2015-11-08 21:02:16 +0000";
layers = (
{
layerId = "BB6A41DF-B2B0-47BB-BB25-47FFE7E0E8E0";
name = Regular;
paths = (
{
closed = 1;
nodes = (
"196 -79 LINE",
"196 332 LINE",
"140 332 LINE",
"45 276 LINE",
"75 232 LINE",
"140 270 LINE",
"140 -79 LINE"
);
}
);
width = 301;
}
);
unicode = 2081;
},
{
glyphname = onequarter;
lastChange = "2015-11-08 21:02:16 +0000";
layers = (
{
layerId = "BB6A41DF-B2B0-47BB-BB25-47FFE7E0E8E0";
name = Regular;
paths = (
{
closed = 1;
nodes = (
"764 0 LINE",
"764 100 LINE",
"823 100 LINE",
"823 154 LINE",
"764 154 LINE",
"764 406 LINE",
"726 406 LINE",
"483 153 LINE",
"483 100 LINE",
"709 100 LINE",
"709 0 LINE"
);
},
{
closed = 1;
nodes = (
"711 334 LINE",
"711 154 LINE",
"540 154 LINE"
);
},
{
closed = 1;
nodes = (
"189 -5 LINE",
"461 343 LINE",
"738 678 LINE",
"695 715 LINE",
"427 370 LINE",
"147 33 LINE"
);
},
{
closed = 1;
nodes = (
"195 320 LINE",
"195 731 LINE",
"139 731 LINE",
"44 675 LINE",
"74 631 LINE",
"139 669 LINE",
"139 320 LINE"
);
}
);
width = 858;
}
);
unicode = 00BC;
},
{
glyphname = onethird;
lastChange = "2015-11-08 21:02:16 +0000";
layers = (
{
layerId = "BB6A41DF-B2B0-47BB-BB25-47FFE7E0E8E0";
name = Regular;
paths = (
{
closed = 1;
nodes = (
"774 -5 OFFCURVE",
"853 34 OFFCURVE",
"853 107 CURVE SMOOTH",
"853 159 OFFCURVE",
"813 202 OFFCURVE",
"750 211 CURVE",
"809 223 OFFCURVE",
"842 253 OFFCURVE",
"842 300 CURVE SMOOTH",
"842 363 OFFCURVE",
"774 411 OFFCURVE",
"683 411 CURVE SMOOTH",
"619 411 OFFCURVE",
"557 388 OFFCURVE",
"531 349 CURVE",
"568 306 LINE",
"589 338 OFFCURVE",
"629 360 OFFCURVE",
"683 360 CURVE SMOOTH",
"735 360 OFFCURVE",
"783 336 OFFCURVE",
"783 296 CURVE SMOOTH",
"783 254 OFFCURVE",
"731 234 OFFCURVE",
"648 234 CURVE SMOOTH",
"625 234 LINE",
"625 184 LINE",
"648 184 LINE SMOOTH",
"739 184 OFFCURVE",
"797 159 OFFCURVE",
"797 115 CURVE SMOOTH",
"797 75 OFFCURVE",
"747 50 OFFCURVE",
"685 50 CURVE SMOOTH",
"612 50 OFFCURVE",
"564 90 OFFCURVE",
"560 118 CURVE",
"528 81 LINE",
"541 27 OFFCURVE",
"603 -5 OFFCURVE",
"686 -5 CURVE SMOOTH"
);
},
{
closed = 1;
nodes = (
"154 -5 LINE",
"426 343 LINE",
"703 678 LINE",
"660 715 LINE",
"392 370 LINE",
"112 33 LINE"
);
},
{
closed = 1;
nodes = (
"197 320 LINE",
"197 731 LINE",
"141 731 LINE",
"46 675 LINE",
"76 631 LINE",
"141 669 LINE",
"141 320 LINE"
);
}
);
width = 889;
}
);
unicode = 2153;
},
{
glyphname = threeinferior;
lastChange = "2015-11-08 21:02:16 +0000";
layers = (
{
layerId = "BB6A41DF-B2B0-47BB-BB25-47FFE7E0E8E0";
name = Regular;
paths = (
{
closed = 1;
nodes = (
"278 -85 OFFCURVE",
"357 -46 OFFCURVE",
"357 27 CURVE SMOOTH",
"357 79 OFFCURVE",
"317 122 OFFCURVE",
"254 131 CURVE",
"313 143 OFFCURVE",
"346 173 OFFCURVE",
"346 220 CURVE SMOOTH",
"346 283 OFFCURVE",
"278 331 OFFCURVE",
"187 331 CURVE SMOOTH",
"123 331 OFFCURVE",
"61 308 OFFCURVE",
"35 269 CURVE",
"72 226 LINE",
"93 258 OFFCURVE",
"133 280 OFFCURVE",
"187 280 CURVE SMOOTH",
"239 280 OFFCURVE",
"287 256 OFFCURVE",
"287 216 CURVE SMOOTH",
"287 174 OFFCURVE",
"235 154 OFFCURVE",
"152 154 CURVE SMOOTH",
"129 154 LINE",
"129 104 LINE",
"152 104 LINE SMOOTH",
"243 104 OFFCURVE",
"301 79 OFFCURVE",
"301 35 CURVE SMOOTH",
"301 -5 OFFCURVE",
"251 -30 OFFCURVE",
"189 -30 CURVE SMOOTH",
"116 -30 OFFCURVE",
"68 10 OFFCURVE",
"64 38 CURVE",
"32 1 LINE",
"45 -53 OFFCURVE",
"107 -85 OFFCURVE",
"190 -85 CURVE SMOOTH"
);
}
);
width = 395;
}
);
unicode = 2083;
},
{
glyphname = ordfeminine;
lastChange = "2015-11-08 21:02:16 +0000";
layers = (
{
layerId = "BB6A41DF-B2B0-47BB-BB25-47FFE7E0E8E0";
name = Regular;
paths = (
{
closed = 1;
nodes = (
"219 344 OFFCURVE",
"269 367 OFFCURVE",
"302 409 CURVE",
"305 349 LINE",
"362 349 LINE",
"362 567 LINE SMOOTH",
"362 660 OFFCURVE",
"304 711 OFFCURVE",
"208 711 CURVE SMOOTH",
"159 711 OFFCURVE",
"113 696 OFFCURVE",
"66 665 CURVE",
"89 620 LINE",
"129 647 OFFCURVE",
"165 661 OFFCURVE",
"202 661 CURVE SMOOTH",
"259 661 OFFCURVE",
"291 628 OFFCURVE",
"291 575 CURVE SMOOTH",
"291 550 LINE",
"265 561 OFFCURVE",
"230 567 OFFCURVE",
"195 567 CURVE SMOOTH",
"108 567 OFFCURVE",
"46 521 OFFCURVE",
"46 455 CURVE SMOOTH",
"46 392 OFFCURVE",
"98 344 OFFCURVE",
"165 344 CURVE SMOOTH"
);
},
{
closed = 1;
nodes = (
"144 397 OFFCURVE",
"113 425 OFFCURVE",
"113 461 CURVE SMOOTH",
"113 499 OFFCURVE",
"151 524 OFFCURVE",
"207 524 CURVE SMOOTH",
"235 524 OFFCURVE",
"266 520 OFFCURVE",
"291 509 CURVE",
"291 461 LINE SMOOTH",
"291 453 OFFCURVE",
"287 443 OFFCURVE",
"278 435 CURVE",
"260 412 OFFCURVE",
"223 397 OFFCURVE",
"185 397 CURVE SMOOTH"
);
}
);
width = 438;
}
);
leftKerningGroup = ordfeminine;
unicode = 00AA;
},
{
glyphname = ordmasculine;
lastChange = "2015-11-08 21:02:16 +0000";
layers = (
{
layerId = "BB6A41DF-B2B0-47BB-BB25-47FFE7E0E8E0";
name = Regular;
paths = (
{
closed = 1;
nodes = (
"334 344 OFFCURVE",
"406 430 OFFCURVE",
"406 527 CURVE SMOOTH",
"406 627 OFFCURVE",
"333 711 OFFCURVE",
"224 711 CURVE SMOOTH",
"115 711 OFFCURVE",
"42 627 OFFCURVE",
"42 527 CURVE SMOOTH",
"42 430 OFFCURVE",
"114 344 OFFCURVE",
"224 344 CURVE SMOOTH"
);
},
{
closed = 1;
nodes = (
"114 596 OFFCURVE",
"163 649 OFFCURVE",
"224 649 CURVE SMOOTH",
"285 649 OFFCURVE",
"334 597 OFFCURVE",
"334 528 CURVE SMOOTH",
"334 459 OFFCURVE",
"285 405 OFFCURVE",
"224 405 CURVE SMOOTH",
"163 405 OFFCURVE",
"114 458 OFFCURVE",
"114 526 CURVE SMOOTH"
);
}
);
width = 448;
}
);
leftKerningGroup = ordmasculine;
unicode = 00BA;
},
{
glyphname = oslash;
lastChange = "2015-11-08 21:02:16 +0000";
layers = (
{
anchors = (
{
name = top;
position = "{300, 522}";
}
);
layerId = "BB6A41DF-B2B0-47BB-BB25-47FFE7E0E8E0";
name = Regular;
paths = (
{
closed = 1;
nodes = (
"135 -2 LINE",
"159 29 LINE",
"199 4 OFFCURVE",
"246 -10 OFFCURVE",
"299 -10 CURVE SMOOTH",
"456 -10 OFFCURVE",
"563 115 OFFCURVE",
"563 260 CURVE SMOOTH",
"563 341 OFFCURVE",
"529 416 OFFCURVE",
"472 467 CURVE",
"517 524 LINE",
"461 524 LINE",
"437 493 LINE",
"398 517 OFFCURVE",
"351 531 OFFCURVE",
"299 531 CURVE SMOOTH",
"144 531 OFFCURVE",
"36 406 OFFCURVE",
"36 260 CURVE SMOOTH",
"36 179 OFFCURVE",
"69 104 OFFCURVE",
"125 54 CURVE",
"80 -2 LINE"
);
},
{
closed = 1;
nodes = (
"265 66 OFFCURVE",
"234 76 OFFCURVE",
"208 94 CURVE",
"420 400 LINE",
"452 365 OFFCURVE",
"473 316 OFFCURVE",
"473 261 CURVE SMOOTH",
"473 152 OFFCURVE",
"395 66 OFFCURVE",
"299 66 CURVE SMOOTH"
);
},
{
closed = 1;
nodes = (
"126 368 OFFCURVE",
"204 455 OFFCURVE",
"299 455 CURVE SMOOTH",
"332 455 OFFCURVE",
"362 444 OFFCURVE",
"389 427 CURVE",
"178 120 LINE",
"146 154 OFFCURVE",
"126 203 OFFCURVE",
"126 259 CURVE SMOOTH"
);
}
);
width = 599;
}
);
leftKerningGroup = c;
rightKerningGroup = o;
unicode = 00F8;
},
{
glyphname = p;
lastChange = "2015-11-08 21:02:16 +0000";
layers = (
{
layerId = "BB6A41DF-B2B0-47BB-BB25-47FFE7E0E8E0";
name = Regular;
paths = (
{
closed = 1;
nodes = (
"490 -10 OFFCURVE",
"586 112 OFFCURVE",
"586 261 CURVE SMOOTH",
"586 403 OFFCURVE",
"482 531 OFFCURVE",
"339 531 CURVE SMOOTH",
"260 531 OFFCURVE",
"190 488 OFFCURVE",
"149 424 CURVE",
"149 522 LINE",
"71 522 LINE",
"71 -213 LINE",
"159 -213 LINE",
"159 103 LINE",
"198 38 OFFCURVE",
"266 -10 OFFCURVE",
"352 -10 CURVE SMOOTH"
);
},
{
closed = 1;
nodes = (
"254 66 OFFCURVE",
"188 120 OFFCURVE",
"159 189 CURVE",
"159 338 LINE",
"172 402 OFFCURVE",
"254 455 OFFCURVE",
"317 455 CURVE SMOOTH",
"418 455 OFFCURVE",
"496 366 OFFCURVE",
"496 261 CURVE SMOOTH",
"496 162 OFFCURVE",
"428 66 OFFCURVE",
"325 66 CURVE SMOOTH"
);
}
);
width = 623;
}
);
leftKerningGroup = eng;
rightKerningGroup = b;
unicode = 0070;
},
{
glyphname = paragraph;
lastChange = "2015-11-08 21:02:16 +0000";
layers = (
{
layerId = "BB6A41DF-B2B0-47BB-BB25-47FFE7E0E8E0";
name = Regular;
paths = (
{
closed = 1;
nodes = (
"35 318 OFFCURVE",
"132 226 OFFCURVE",
"285 224 CURVE",
"285 -80 LINE",
"361 -80 LINE",
"361 224 LINE",
"428 224 LINE",
"428 -80 LINE",
"504 -80 LINE",
"504 642 LINE",
"574 642 LINE",
"574 710 LINE",
"317 710 LINE SMOOTH",
"139 710 OFFCURVE",
"35 619 OFFCURVE",
"35 465 CURVE SMOOTH"
);
},
{
closed = 1;
nodes = (
"110 573 OFFCURVE",
"172 640 OFFCURVE",
"285 642 CURVE",
"285 292 LINE",
"190 298 OFFCURVE",
"110 353 OFFCURVE",
"110 467 CURVE SMOOTH"
);
},
{
closed = 1;
nodes = (
"428 292 LINE",
"361 292 LINE",
"361 642 LINE",
"428 642 LINE"
);
}
);
width = 618;
}
);
unicode = 00B6;
},
{
glyphname = parenleft;
lastChange = "2015-11-08 21:02:16 +0000";
layers = (
{
layerId = "BB6A41DF-B2B0-47BB-BB25-47FFE7E0E8E0";
name = Regular;
paths = (
{
closed = 1;
nodes = (
"42 217 OFFCURVE",
"101 83 OFFCURVE",
"185 -42 CURVE",
"250 -8 LINE",
"173 113 OFFCURVE",
"124 238 OFFCURVE",
"124 343 CURVE SMOOTH",
"124 474 OFFCURVE",
"201 638 OFFCURVE",
"252 714 CURVE",
"184 744 LINE",
"105 611 OFFCURVE",
"42 482 OFFCURVE",
"42 346 CURVE SMOOTH"
);
}
);
width = 283;
}
);
rightKerningGroup = parenleft;
unicode = 0028;
},
{
glyphname = parenright;
lastChange = "2015-11-08 21:02:16 +0000";
layers = (
{
layerId = "BB6A41DF-B2B0-47BB-BB25-47FFE7E0E8E0";
name = Regular;
paths = (
{
closed = 1;
nodes = (
"241 482 OFFCURVE",
"178 611 OFFCURVE",
"99 744 CURVE",
"31 714 LINE",
"82 638 OFFCURVE",
"159 474 OFFCURVE",
"159 343 CURVE SMOOTH",
"159 238 OFFCURVE",
"110 113 OFFCURVE",
"33 -8 CURVE",
"98 -42 LINE",
"182 83 OFFCURVE",
"241 217 OFFCURVE",
"241 346 CURVE SMOOTH"
);
}
);
width = 283;
}
);
leftKerningGroup = parenright;
unicode = 0029;
},
{
glyphname = percent;
lastChange = "2015-11-08 21:02:16 +0000";
layers = (
{
layerId = "BB6A41DF-B2B0-47BB-BB25-47FFE7E0E8E0";
name = Regular;
paths = (
{
closed = 1;
nodes = (
"277 428 OFFCURVE",
"345 493 OFFCURVE",
"345 574 CURVE SMOOTH",
"345 655 OFFCURVE",
"277 720 OFFCURVE",
"191 720 CURVE SMOOTH",
"106 720 OFFCURVE",
"37 655 OFFCURVE",
"37 574 CURVE SMOOTH",
"37 493 OFFCURVE",
"106 428 OFFCURVE",
"191 428 CURVE SMOOTH"
);
},
{
closed = 1;
nodes = (
"142 476 OFFCURVE",
"101 520 OFFCURVE",
"101 574 CURVE SMOOTH",
"101 626 OFFCURVE",
"141 672 OFFCURVE",
"191 672 CURVE SMOOTH",
"239 672 OFFCURVE",
"281 628 OFFCURVE",
"281 574 CURVE SMOOTH",
"281 522 OFFCURVE",
"241 476 OFFCURVE",
"191 476 CURVE SMOOTH"
);
},
{
closed = 1;
nodes = (
"628 -10 OFFCURVE",
"696 55 OFFCURVE",
"696 136 CURVE SMOOTH",
"696 217 OFFCURVE",
"628 282 OFFCURVE",
"542 282 CURVE SMOOTH",
"457 282 OFFCURVE",
"388 217 OFFCURVE",
"388 136 CURVE SMOOTH",
"388 55 OFFCURVE",
"457 -10 OFFCURVE",
"542 -10 CURVE SMOOTH"
);
},
{
closed = 1;
nodes = (
"493 38 OFFCURVE",
"452 82 OFFCURVE",
"452 136 CURVE SMOOTH",
"452 188 OFFCURVE",
"492 234 OFFCURVE",
"542 234 CURVE SMOOTH",
"590 234 OFFCURVE",
"632 190 OFFCURVE",
"632 136 CURVE SMOOTH",
"632 83 OFFCURVE",
"592 38 OFFCURVE",
"542 38 CURVE SMOOTH"
);
},
{
closed = 1;
nodes = (
"113 -5 LINE",
"385 343 LINE",
"662 678 LINE",
"619 715 LINE",
"351 370 LINE",
"71 33 LINE"
);
}
);
width = 733;
}
);
unicode = 0025;
},
{
glyphname = period;
lastChange = "2015-11-08 21:02:16 +0000";
layers = (
{
layerId = "BB6A41DF-B2B0-47BB-BB25-47FFE7E0E8E0";
name = Regular;
paths = (
{
closed = 1;
nodes = (
"139 -9 OFFCURVE",
"167 19 OFFCURVE",
"167 52 CURVE SMOOTH",
"167 86 OFFCURVE",
"139 114 OFFCURVE",
"106 114 CURVE SMOOTH",
"72 114 OFFCURVE",
"45 86 OFFCURVE",
"45 52 CURVE SMOOTH",
"45 19 OFFCURVE",
"72 -9 OFFCURVE",
"106 -9 CURVE SMOOTH"
);
}
);
width = 202;
}
);
leftKerningGroup = comma;
rightKerningGroup = comma;
unicode = 002E;
},
{
glyphname = perthousand;
lastChange = "2015-11-08 21:02:16 +0000";
layers = (
{
layerId = "BB6A41DF-B2B0-47BB-BB25-47FFE7E0E8E0";
name = Regular;
paths = (
{
closed = 1;
nodes = (
"283 428 OFFCURVE",
"351 493 OFFCURVE",
"351 574 CURVE SMOOTH",
"351 655 OFFCURVE",
"283 720 OFFCURVE",
"197 720 CURVE SMOOTH",
"112 720 OFFCURVE",
"43 655 OFFCURVE",
"43 574 CURVE SMOOTH",
"43 493 OFFCURVE",
"112 428 OFFCURVE",
"197 428 CURVE SMOOTH"
);
},
{
closed = 1;
nodes = (
"149 476 OFFCURVE",
"107 520 OFFCURVE",
"107 574 CURVE SMOOTH",
"107 626 OFFCURVE",
"147 672 OFFCURVE",
"197 672 CURVE SMOOTH",
"245 672 OFFCURVE",
"287 628 OFFCURVE",
"287 574 CURVE SMOOTH",
"287 522 OFFCURVE",
"247 476 OFFCURVE",
"197 476 CURVE SMOOTH"
);
},
{
closed = 1;
nodes = (
"634 -10 OFFCURVE",
"702 55 OFFCURVE",
"702 136 CURVE SMOOTH",
"702 217 OFFCURVE",
"634 282 OFFCURVE",
"548 282 CURVE SMOOTH",
"463 282 OFFCURVE",
"394 217 OFFCURVE",
"394 136 CURVE SMOOTH",
"394 55 OFFCURVE",
"463 -10 OFFCURVE",
"548 -10 CURVE SMOOTH"
);
},
{
closed = 1;
nodes = (
"499 38 OFFCURVE",
"458 82 OFFCURVE",
"458 136 CURVE SMOOTH",
"458 188 OFFCURVE",
"498 234 OFFCURVE",
"548 234 CURVE SMOOTH",
"596 234 OFFCURVE",
"638 190 OFFCURVE",
"638 136 CURVE SMOOTH",
"638 83 OFFCURVE",
"598 38 OFFCURVE",
"548 38 CURVE SMOOTH"
);
},
{
closed = 1;
nodes = (
"995 -10 OFFCURVE",
"1063 55 OFFCURVE",
"1063 136 CURVE SMOOTH",
"1063 217 OFFCURVE",
"995 282 OFFCURVE",
"909 282 CURVE SMOOTH",
"824 282 OFFCURVE",
"755 217 OFFCURVE",
"755 136 CURVE SMOOTH",
"755 55 OFFCURVE",
"824 -10 OFFCURVE",
"909 -10 CURVE SMOOTH"
);
},
{
closed = 1;
nodes = (
"860 38 OFFCURVE",
"819 82 OFFCURVE",
"819 136 CURVE SMOOTH",
"819 188 OFFCURVE",
"859 234 OFFCURVE",
"909 234 CURVE SMOOTH",
"957 234 OFFCURVE",
"999 190 OFFCURVE",
"999 136 CURVE SMOOTH",
"999 83 OFFCURVE",
"959 38 OFFCURVE",
"909 38 CURVE SMOOTH"
);
},
{
closed = 1;
nodes = (
"119 -5 LINE",
"391 343 LINE",
"668 678 LINE",
"625 715 LINE",
"357 370 LINE",
"77 33 LINE"
);
}
);
width = 1096;
}
);
unicode = 2030;
},
{
glyphname = plus;
lastChange = "2015-11-08 21:02:16 +0000";
layers = (
{
layerId = "BB6A41DF-B2B0-47BB-BB25-47FFE7E0E8E0";
name = Regular;
paths = (
{
closed = 1;
nodes = (
"248 391 LINE",
"248 519 LINE",
"168 519 LINE",
"168 391 LINE",
"50 391 LINE",
"50 319 LINE",
"168 319 LINE",
"168 191 LINE",
"248 191 LINE",
"248 319 LINE",
"366 319 LINE",
"366 391 LINE"
);
}
);
width = 416;
}
);
unicode = 002B;
},
{
glyphname = plusminus;
lastChange = "2015-11-08 21:02:16 +0000";
layers = (
{
layerId = "BB6A41DF-B2B0-47BB-BB25-47FFE7E0E8E0";
name = Regular;
paths = (
{
closed = 1;
nodes = (
"399 51 LINE",
"399 123 LINE",
"67 123 LINE",
"67 51 LINE"
);
},
{
closed = 1;
nodes = (
"273 404 LINE",
"273 540 LINE",
"193 540 LINE",
"193 404 LINE",
"67 404 LINE",
"67 332 LINE",
"193 332 LINE",
"193 196 LINE",
"273 196 LINE",
"273 332 LINE",
"399 332 LINE",
"399 404 LINE"
);
}
);
width = 466;
}
);
unicode = 00B1;
},
{
glyphname = q;
lastChange = "2015-11-08 21:02:16 +0000";
layers = (
{
layerId = "BB6A41DF-B2B0-47BB-BB25-47FFE7E0E8E0";
name = Regular;
paths = (
{
closed = 1;
nodes = (
"350 -10 OFFCURVE",
"417 29 OFFCURVE",
"464 103 CURVE",
"464 -213 LINE",
"552 -213 LINE",
"552 522 LINE",
"474 522 LINE",
"474 423 LINE",
"435 486 OFFCURVE",
"365 531 OFFCURVE",
"284 531 CURVE SMOOTH",
"145 531 OFFCURVE",
"37 408 OFFCURVE",
"37 261 CURVE SMOOTH",
"37 117 OFFCURVE",
"132 -10 OFFCURVE",
"271 -10 CURVE SMOOTH"
);
},
{
closed = 1;
nodes = (
"199 66 OFFCURVE",
"127 154 OFFCURVE",
"127 259 CURVE SMOOTH",
"127 358 OFFCURVE",
"200 455 OFFCURVE",
"303 455 CURVE SMOOTH",
"372 455 OFFCURVE",
"452 396 OFFCURVE",
"464 328 CURVE",
"464 178 LINE",
"430 116 OFFCURVE",
"375 66 OFFCURVE",
"301 66 CURVE SMOOTH"
);
}
);
width = 623;
}
);
leftKerningGroup = a.alt;
rightKerningGroup = a.alt;
unicode = 0071;
},
{
glyphname = q.alt;
lastChange = "2015-11-08 21:02:16 +0000";
layers = (
{
layerId = "BB6A41DF-B2B0-47BB-BB25-47FFE7E0E8E0";
name = Regular;
paths = (
{
closed = 1;
nodes = (
"350 -10 OFFCURVE",
"417 29 OFFCURVE",
"464 103 CURVE",
"464 -142 LINE SMOOTH",
"464 -180 OFFCURVE",
"496 -212 OFFCURVE",
"533 -212 CURVE SMOOTH",
"547 -212 OFFCURVE",
"564 -211 OFFCURVE",
"580 -209 CURVE",
"580 -133 LINE",
"560 -132 OFFCURVE",
"552 -123 OFFCURVE",
"552 -101 CURVE SMOOTH",
"552 522 LINE",
"474 522 LINE",
"474 423 LINE",
"435 486 OFFCURVE",
"365 531 OFFCURVE",
"284 531 CURVE SMOOTH",
"145 531 OFFCURVE",
"37 408 OFFCURVE",
"37 261 CURVE SMOOTH",
"37 117 OFFCURVE",
"132 -10 OFFCURVE",
"271 -10 CURVE SMOOTH"
);
},
{
closed = 1;
nodes = (
"199 66 OFFCURVE",
"127 154 OFFCURVE",
"127 259 CURVE SMOOTH",
"127 358 OFFCURVE",
"200 455 OFFCURVE",
"303 455 CURVE SMOOTH",
"372 455 OFFCURVE",
"452 396 OFFCURVE",
"464 328 CURVE",
"464 178 LINE",
"430 116 OFFCURVE",
"375 66 OFFCURVE",
"301 66 CURVE SMOOTH"
);
}
);
width = 623;
}
);
leftKerningGroup = a.alt;
rightKerningGroup = a.alt;
},
{
glyphname = question;
lastChange = "2015-11-08 21:02:16 +0000";
layers = (
{
layerId = "BB6A41DF-B2B0-47BB-BB25-47FFE7E0E8E0";
name = Regular;
paths = (
{
closed = 1;
nodes = (
"218 211 LINE",
"218 299 OFFCURVE",
"267 324 OFFCURVE",
"316 351 CURVE SMOOTH",
"383 388 OFFCURVE",
"442 426 OFFCURVE",
"442 527 CURVE SMOOTH",
"442 658 OFFCURVE",
"342 719 OFFCURVE",
"243 719 CURVE SMOOTH",
"155 719 OFFCURVE",
"70 672 OFFCURVE",
"34 590 CURVE",
"93 551 LINE",
"120 602 OFFCURVE",
"174 646 OFFCURVE",
"241 646 CURVE SMOOTH",
"304 646 OFFCURVE",
"364 606 OFFCURVE",
"364 531 CURVE SMOOTH",
"364 440 OFFCURVE",
"277 406 OFFCURVE",
"228 375 CURVE SMOOTH",
"167 336 OFFCURVE",
"144 283 OFFCURVE",
"144 211 CURVE"
);
},
{
closed = 1;
nodes = (
"215 -4 OFFCURVE",
"242 23 OFFCURVE",
"242 55 CURVE SMOOTH",
"242 87 OFFCURVE",
"215 115 OFFCURVE",
"183 115 CURVE SMOOTH",
"151 115 OFFCURVE",
"124 87 OFFCURVE",
"124 55 CURVE SMOOTH",
"124 23 OFFCURVE",
"151 -4 OFFCURVE",
"183 -4 CURVE SMOOTH"
);
}
);
width = 479;
}
);
leftKerningGroup = question;
unicode = 003F;
},
{
glyphname = questiondown;
lastChange = "2015-11-08 21:02:16 +0000";
layers = (
{
layerId = "BB6A41DF-B2B0-47BB-BB25-47FFE7E0E8E0";
name = Regular;
paths = (
{
closed = 1;
nodes = (
"257 295 LINE",
"257 207 OFFCURVE",
"208 182 OFFCURVE",
"159 155 CURVE SMOOTH",
"92 118 OFFCURVE",
"33 80 OFFCURVE",
"33 -21 CURVE SMOOTH",
"33 -152 OFFCURVE",
"133 -213 OFFCURVE",
"232 -213 CURVE SMOOTH",
"320 -213 OFFCURVE",
"405 -166 OFFCURVE",
"441 -84 CURVE",
"382 -45 LINE",
"355 -96 OFFCURVE",
"301 -140 OFFCURVE",
"234 -140 CURVE SMOOTH",
"171 -140 OFFCURVE",
"111 -100 OFFCURVE",
"111 -25 CURVE SMOOTH",
"111 66 OFFCURVE",
"198 100 OFFCURVE",
"247 131 CURVE SMOOTH",
"308 170 OFFCURVE",
"331 223 OFFCURVE",
"331 295 CURVE"
);
},
{
closed = 1;
nodes = (
"324 388 OFFCURVE",
"351 415 OFFCURVE",
"351 447 CURVE SMOOTH",
"351 479 OFFCURVE",
"324 507 OFFCURVE",
"292 507 CURVE SMOOTH",
"260 507 OFFCURVE",
"233 479 OFFCURVE",
"233 447 CURVE SMOOTH",
"233 415 OFFCURVE",
"260 388 OFFCURVE",
"292 388 CURVE SMOOTH"
);
}
);
width = 473;
}
);
rightKerningGroup = questiondown;
unicode = 00BF;
},
{
glyphname = quotedbl;
lastChange = "2015-11-08 21:02:16 +0000";
layers = (
{
layerId = "BB6A41DF-B2B0-47BB-BB25-47FFE7E0E8E0";
name = Regular;
paths = (
{
closed = 1;
nodes = (
"127 486 LINE",
"127 721 LINE",
"43 721 LINE",
"43 486 LINE"
);
},
{
closed = 1;
nodes = (
"292 486 LINE",
"292 721 LINE",
"208 721 LINE",
"208 486 LINE"
);
}
);
width = 324;
}
);
leftKerningGroup = quotedbl;
rightKerningGroup = quotedbl;
unicode = 0022;
},
{
glyphname = quotedblbase;
lastChange = "2015-11-08 21:02:16 +0000";
layers = (
{
layerId = "BB6A41DF-B2B0-47BB-BB25-47FFE7E0E8E0";
name = Regular;
paths = (
{
closed = 1;
nodes = (
"266 -131 LINE",
"193 -131 LINE",
"266 125 LINE",
"368 125 LINE"
);
},
{
closed = 1;
nodes = (
"82 -131 LINE",
"9 -131 LINE",
"82 125 LINE",
"184 125 LINE"
);
}
);
width = 349;
}
);
leftKerningGroup = comma;
rightKerningGroup = comma;
unicode = 201E;
},
{
glyphname = quotesinglbase;
lastChange = "2015-11-08 21:02:16 +0000";
layers = (
{
layerId = "BB6A41DF-B2B0-47BB-BB25-47FFE7E0E8E0";
name = Regular;
paths = (
{
closed = 1;
nodes = (
"82 -131 LINE",
"9 -131 LINE",
"82 125 LINE",
"184 125 LINE"
);
}
);
width = 211;
}
);
leftKerningGroup = comma;
rightKerningGroup = comma;
unicode = 201A;
},
{
glyphname = quotedblleft;
lastChange = "2015-11-08 21:02:16 +0000";
layers = (
{
layerId = "BB6A41DF-B2B0-47BB-BB25-47FFE7E0E8E0";
name = Regular;
paths = (
{
closed = 1;
nodes = (
"82 730 LINE",
"155 730 LINE",
"82 474 LINE",
"-20 474 LINE"
);
},
{
closed = 1;
nodes = (
"266 730 LINE",
"339 730 LINE",
"266 474 LINE",
"164 474 LINE"
);
}
);
width = 345;
}
);
leftKerningGroup = quotedblleft;
rightKerningGroup = quotedblleft;
unicode = 201C;
},
{
glyphname = quoteleft;
lastChange = "2015-11-08 21:02:16 +0000";
layers = (
{
layerId = "BB6A41DF-B2B0-47BB-BB25-47FFE7E0E8E0";
name = Regular;
paths = (
{
closed = 1;
nodes = (
"118 730 LINE",
"191 730 LINE",
"118 474 LINE",
"16 474 LINE"
);
}
);
width = 207;
}
);
leftKerningGroup = quotedblleft;
rightKerningGroup = quotedblleft;
unicode = 2018;
},
{
glyphname = quotedblright;
lastChange = "2015-11-08 21:02:16 +0000";
layers = (
{
layerId = "BB6A41DF-B2B0-47BB-BB25-47FFE7E0E8E0";
name = Regular;
paths = (
{
closed = 1;
nodes = (
"237 474 LINE",
"164 474 LINE",
"237 730 LINE",
"339 730 LINE"
);
},
{
closed = 1;
nodes = (
"53 474 LINE",
"-20 474 LINE",
"53 730 LINE",
"155 730 LINE"
);
}
);
width = 338;
}
);
leftKerningGroup = quotedblright;
rightKerningGroup = quotedblright;
unicode = 201D;
},
{
glyphname = quoteright;
lastChange = "2015-11-08 21:02:16 +0000";
layers = (
{
layerId = "BB6A41DF-B2B0-47BB-BB25-47FFE7E0E8E0";
name = Regular;
paths = (
{
closed = 1;
nodes = (
"84 474 LINE",
"11 474 LINE",
"84 730 LINE",
"186 730 LINE"
);
}
);
width = 200;
}
);
leftKerningGroup = quotedblright;
rightKerningGroup = quotedblright;
unicode = 2019;
},
{
glyphname = quotesingle;
lastChange = "2015-11-08 21:02:16 +0000";
layers = (
{
layerId = "BB6A41DF-B2B0-47BB-BB25-47FFE7E0E8E0";
name = Regular;
paths = (
{
closed = 1;
nodes = (
"149 486 LINE",
"149 721 LINE",
"64 721 LINE",
"64 486 LINE"
);
}
);
width = 210;
}
);
leftKerningGroup = quotedbl;
rightKerningGroup = quotedbl;
unicode = 0027;
},
{
glyphname = r;
lastChange = "2015-11-08 21:02:16 +0000";
layers = (
{
anchors = (
{
name = bottom;
position = "{91, 0}";
},
{
name = top;
position = "{182, 522}";
}
);
layerId = "BB6A41DF-B2B0-47BB-BB25-47FFE7E0E8E0";
name = Regular;
paths = (
{
closed = 1;
nodes = (
"347 525 LINE",
"340 526 OFFCURVE",
"331 526 OFFCURVE",
"318 526 CURVE",
"252 521 OFFCURVE",
"189 473 OFFCURVE",
"153 401 CURVE",
"153 522 LINE",
"71 522 LINE",
"71 0 LINE",
"159 0 LINE",
"159 322 LINE",
"187 398 OFFCURVE",
"259 443 OFFCURVE",
"347 445 CURVE"
);
}
);
width = 363;
}
);
leftKerningGroup = eng;
rightKerningGroup = r;
unicode = 0072;
},
{
glyphname = registered;
lastChange = "2015-11-08 21:02:16 +0000";
layers = (
{
layerId = "BB6A41DF-B2B0-47BB-BB25-47FFE7E0E8E0";
name = Regular;
paths = (
{
closed = 1;
nodes = (
"630 -7 OFFCURVE",
"789 148 OFFCURVE",
"789 355 CURVE SMOOTH",
"789 561 OFFCURVE",
"630 715 OFFCURVE",
"417 715 CURVE SMOOTH",
"204 715 OFFCURVE",
"47 561 OFFCURVE",
"47 355 CURVE SMOOTH",
"47 148 OFFCURVE",
"204 -7 OFFCURVE",
"417 -7 CURVE SMOOTH"
);
},
{
closed = 1;
nodes = (
"227 30 OFFCURVE",
"89 171 OFFCURVE",
"89 355 CURVE SMOOTH",
"89 537 OFFCURVE",
"227 677 OFFCURVE",
"417 677 CURVE SMOOTH",
"607 677 OFFCURVE",
"747 537 OFFCURVE",
"747 354 CURVE SMOOTH",
"747 162 OFFCURVE",
"603 30 OFFCURVE",
"417 30 CURVE SMOOTH"
);
},
{
closed = 1;
nodes = (
"262 130 LINE",
"327 130 LINE",
"327 292 LINE",
"428 292 LINE",
"530 130 LINE",
"603 130 LINE",
"494 302 LINE",
"551 316 OFFCURVE",
"590 373 OFFCURVE",
"590 435 CURVE SMOOTH",
"590 505 OFFCURVE",
"533 579 OFFCURVE",
"454 579 CURVE SMOOTH",
"262 579 LINE"
);
},
{
closed = 1;
nodes = (
"327 349 LINE",
"327 520 LINE",
"448 520 LINE SMOOTH",
"492 520 OFFCURVE",
"526 486 OFFCURVE",
"526 435 CURVE SMOOTH",
"526 385 OFFCURVE",
"499 349 OFFCURVE",
"451 349 CURVE SMOOTH"
);
}
);
width = 836;
}
);
leftKerningGroup = registered;
unicode = 00AE;
},
{
glyphname = s;
lastChange = "2015-11-08 21:02:16 +0000";
layers = (
{
anchors = (
{
name = bottom;
position = "{247, 0}";
},
{
name = top;
position = "{247, 522}";
}
);
layerId = "BB6A41DF-B2B0-47BB-BB25-47FFE7E0E8E0";
name = Regular;
paths = (
{
closed = 1;
nodes = (
"380 -10 OFFCURVE",
"461 52 OFFCURVE",
"461 149 CURVE SMOOTH",
"461 238 OFFCURVE",
"395 266 OFFCURVE",
"256 299 CURVE SMOOTH",
"167 321 OFFCURVE",
"133 332 OFFCURVE",
"133 381 CURVE SMOOTH",
"133 441 OFFCURVE",
"184 467 OFFCURVE",
"248 467 CURVE SMOOTH",
"305 467 OFFCURVE",
"362 448 OFFCURVE",
"406 409 CURVE",
"446 462 LINE",
"399 503 OFFCURVE",
"328 531 OFFCURVE",
"250 531 CURVE SMOOTH",
"139 531 OFFCURVE",
"50 474 OFFCURVE",
"50 369 CURVE SMOOTH",
"50 287 OFFCURVE",
"103 263 OFFCURVE",
"229 232 CURVE SMOOTH",
"329 208 OFFCURVE",
"376 193 OFFCURVE",
"376 141 CURVE SMOOTH",
"376 87 OFFCURVE",
"327 55 OFFCURVE",
"252 55 CURVE SMOOTH",
"185 55 OFFCURVE",
"124 79 OFFCURVE",
"63 125 CURVE",
"25 66 LINE",
"83 17 OFFCURVE",
"171 -10 OFFCURVE",
"254 -10 CURVE SMOOTH"
);
}
);
width = 494;
}
);
leftKerningGroup = s;
rightKerningGroup = s;
unicode = 0073;
},
{
glyphname = schwa;
lastChange = "2015-11-08 21:02:16 +0000";
layers = (
{
layerId = "BB6A41DF-B2B0-47BB-BB25-47FFE7E0E8E0";
name = Regular;
paths = (
{
closed = 1;
nodes = (
"449 -10 OFFCURVE",
"555 112 OFFCURVE",
"555 258 CURVE SMOOTH",
"555 407 OFFCURVE",
"446 531 OFFCURVE",
"290 531 CURVE SMOOTH",
"184 531 OFFCURVE",
"95 475 OFFCURVE",
"61 399 CURVE",
"137 378 LINE",
"159 429 OFFCURVE",
"222 464 OFFCURVE",
"286 464 CURVE SMOOTH",
"377 464 OFFCURVE",
"454 393 OFFCURVE",
"462 290 CURVE",
"29 290 LINE",
"28 283 OFFCURVE",
"27 268 OFFCURVE",
"27 260 CURVE SMOOTH",
"28 113 OFFCURVE",
"135 -10 OFFCURVE",
"292 -10 CURVE SMOOTH"
);
},
{
closed = 1;
nodes = (
"200 56 OFFCURVE",
"119 128 OFFCURVE",
"112 232 CURVE",
"464 232 LINE",
"457 130 OFFCURVE",
"386 56 OFFCURVE",
"293 56 CURVE SMOOTH"
);
}
);
width = 591;
}
);
leftKerningGroup = schwa;
rightKerningGroup = o;
unicode = 0259;
},
{
glyphname = section;
lastChange = "2015-11-08 21:02:16 +0000";
layers = (
{
layerId = "BB6A41DF-B2B0-47BB-BB25-47FFE7E0E8E0";
name = Regular;
paths = (
{
closed = 1;
nodes = (
"445 218 OFFCURVE",
"458 252 OFFCURVE",
"458 290 CURVE SMOOTH",
"458 407 OFFCURVE",
"350 448 OFFCURVE",
"253 449 CURVE SMOOTH",
"186 450 OFFCURVE",
"136 471 OFFCURVE",
"136 539 CURVE SMOOTH",
"136 599 OFFCURVE",
"192 636 OFFCURVE",
"252 636 CURVE SMOOTH",
"299 636 OFFCURVE",
"350 620 OFFCURVE",
"372 579 CURVE",
"440 611 LINE",
"407 660 OFFCURVE",
"352 715 OFFCURVE",
"247 715 CURVE SMOOTH",
"144 715 OFFCURVE",
"47 640 OFFCURVE",
"47 538 CURVE SMOOTH",
"47 485 OFFCURVE",
"70 443 OFFCURVE",
"95 423 CURVE",
"83 407 OFFCURVE",
"71 378 OFFCURVE",
"71 341 CURVE SMOOTH",
"71 238 OFFCURVE",
"151 181 OFFCURVE",
"270 174 CURVE SMOOTH",
"322 171 OFFCURVE",
"382 161 OFFCURVE",
"382 94 CURVE SMOOTH",
"382 32 OFFCURVE",
"321 -4 OFFCURVE",
"262 -4 CURVE SMOOTH",
"209 -4 OFFCURVE",
"164 16 OFFCURVE",
"118 61 CURVE",
"61 7 LINE",
"99 -34 OFFCURVE",
"168 -88 OFFCURVE",
"265 -88 CURVE SMOOTH",
"355 -88 OFFCURVE",
"473 -32 OFFCURVE",
"473 97 CURVE SMOOTH",
"473 148 OFFCURVE",
"458 182 OFFCURVE",
"430 201 CURVE"
);
},
{
closed = 1;
nodes = (
"157 353 OFFCURVE",
"166 377 OFFCURVE",
"179 390 CURVE",
"198 382 OFFCURVE",
"227 377 OFFCURVE",
"256 377 CURVE SMOOTH",
"307 377 OFFCURVE",
"374 356 OFFCURVE",
"374 288 CURVE SMOOTH",
"374 264 OFFCURVE",
"364 238 OFFCURVE",
"348 225 CURVE",
"289 248 OFFCURVE",
"157 219 OFFCURVE",
"157 330 CURVE SMOOTH"
);
}
);
width = 517;
}
);
unicode = 00A7;
},
{
glyphname = semicolon;
lastChange = "2015-11-08 21:02:16 +0000";
layers = (
{
layerId = "BB6A41DF-B2B0-47BB-BB25-47FFE7E0E8E0";
name = Regular;
paths = (
{
closed = 1;
nodes = (
"147 396 OFFCURVE",
"175 424 OFFCURVE",
"175 457 CURVE SMOOTH",
"175 491 OFFCURVE",
"147 519 OFFCURVE",
"114 519 CURVE SMOOTH",
"80 519 OFFCURVE",
"53 491 OFFCURVE",
"53 457 CURVE SMOOTH",
"53 424 OFFCURVE",
"80 396 OFFCURVE",
"114 396 CURVE SMOOTH"
);
},
{
closed = 1;
nodes = (
"68 -140 LINE",
"-2 -140 LINE",
"65 95 LINE",
"159 95 LINE"
);
}
);
width = 221;
}
);
leftKerningGroup = colon;
rightKerningGroup = colon;
unicode = 003B;
},
{
glyphname = seven;
lastChange = "2015-11-08 21:02:16 +0000";
layers = (
{
guideLines = (
{
angle = 90;
position = "{79, 0}";
}
);
layerId = "BB6A41DF-B2B0-47BB-BB25-47FFE7E0E8E0";
name = Regular;
paths = (
{
closed = 1;
nodes = (
"79 0 LINE",
"178 0 LINE",
"536 710 LINE",
"41 710 LINE",
"41 629 LINE",
"396 629 LINE"
);
}
);
width = 534;
}
);
leftKerningGroup = seven.lnum;
rightKerningGroup = seven.lnum;
unicode = 0037;
},
{
glyphname = seveneighths;
lastChange = "2015-11-08 21:02:16 +0000";
layers = (
{
layerId = "BB6A41DF-B2B0-47BB-BB25-47FFE7E0E8E0";
name = Regular;
paths = (
{
closed = 1;
nodes = (
"838 165 OFFCURVE",
"799 199 OFFCURVE",
"747 218 CURVE",
"789 232 OFFCURVE",
"822 261 OFFCURVE",
"822 301 CURVE SMOOTH",
"822 366 OFFCURVE",
"744 406 OFFCURVE",
"672 406 CURVE SMOOTH",
"600 406 OFFCURVE",
"522 365 OFFCURVE",
"522 300 CURVE SMOOTH",
"522 259 OFFCURVE",
"557 232 OFFCURVE",
"596 218 CURVE",
"550 201 OFFCURVE",
"506 169 OFFCURVE",
"506 117 CURVE SMOOTH",
"506 50 OFFCURVE",
"576 -5 OFFCURVE",
"671 -5 CURVE SMOOTH",
"761 -5 OFFCURVE",
"838 44 OFFCURVE",
"838 115 CURVE SMOOTH"
);
},
{
closed = 1;
nodes = (
"782 78 OFFCURVE",
"727 50 OFFCURVE",
"673 50 CURVE SMOOTH",
"621 50 OFFCURVE",
"562 76 OFFCURVE",
"562 120 CURVE SMOOTH",
"562 164 OFFCURVE",
"616 193 OFFCURVE",
"672 193 CURVE SMOOTH",
"724 193 OFFCURVE",
"782 166 OFFCURVE",
"782 121 CURVE SMOOTH"
);
},
{
closed = 1;
nodes = (
"578 331 OFFCURVE",
"622 353 OFFCURVE",
"672 353 CURVE SMOOTH",
"720 353 OFFCURVE",
"767 331 OFFCURVE",
"767 296 CURVE SMOOTH",
"767 260 OFFCURVE",
"716 238 OFFCURVE",
"672 238 CURVE SMOOTH",
"628 238 OFFCURVE",
"578 259 OFFCURVE",
"578 295 CURVE SMOOTH"
);
},
{
closed = 1;
nodes = (
"118 -5 LINE",
"390 343 LINE",
"667 678 LINE",
"624 715 LINE",
"356 370 LINE",
"76 33 LINE"
);
},
{
closed = 1;
nodes = (
"73 325 LINE",
"136 325 LINE",
"375 730 LINE",
"41 730 LINE",
"41 675 LINE",
"287 675 LINE"
);
}
);
width = 874;
}
);
unicode = 215E;
},
{
glyphname = sevensuperior;
lastChange = "2015-11-08 21:02:16 +0000";
layers = (
{
layerId = "BB6A41DF-B2B0-47BB-BB25-47FFE7E0E8E0";
name = Regular;
paths = (
{
closed = 1;
nodes = (
"57 405 LINE",
"120 405 LINE",
"359 810 LINE",
"25 810 LINE",
"25 755 LINE",
"271 755 LINE"
);
}
);
width = 365;
}
);
unicode = 2077;
},
{
glyphname = seveninferior;
lastChange = "2015-11-08 21:02:16 +0000";
layers = (
{
layerId = "BB6A41DF-B2B0-47BB-BB25-47FFE7E0E8E0";
name = Regular;
paths = (
{
closed = 1;
nodes = (
"57 -80 LINE",
"120 -80 LINE",
"359 326 LINE",
"25 326 LINE",
"25 271 LINE",
"272 271 LINE"
);
}
);
width = 365;
}
);
unicode = 2087;
},
{
glyphname = six;
lastChange = "2015-11-08 21:02:16 +0000";
layers = (
{
layerId = "BB6A41DF-B2B0-47BB-BB25-47FFE7E0E8E0";
name = Regular;
paths = (
{
closed = 1;
nodes = (
"562 369 OFFCURVE",
"454 474 OFFCURVE",
"317 474 CURVE SMOOTH",
"234 474 OFFCURVE",
"163 429 OFFCURVE",
"134 360 CURVE",
"136 536 OFFCURVE",
"207 638 OFFCURVE",
"316 638 CURVE SMOOTH",
"386 638 OFFCURVE",
"448 598 OFFCURVE",
"477 536 CURVE",
"531 589 LINE",
"488 668 OFFCURVE",
"409 715 OFFCURVE",
"317 715 CURVE SMOOTH",
"157 715 OFFCURVE",
"51 576 OFFCURVE",
"51 296 CURVE SMOOTH",
"51 105 OFFCURVE",
"155 -10 OFFCURVE",
"308 -10 CURVE SMOOTH",
"451 -10 OFFCURVE",
"562 99 OFFCURVE",
"562 235 CURVE SMOOTH"
);
},
{
closed = 1;
nodes = (
"217 66 OFFCURVE",
"140 143 OFFCURVE",
"140 235 CURVE SMOOTH",
"140 327 OFFCURVE",
"216 403 OFFCURVE",
"309 403 CURVE SMOOTH",
"401 403 OFFCURVE",
"478 327 OFFCURVE",
"478 235 CURVE SMOOTH",
"478 142 OFFCURVE",
"401 66 OFFCURVE",
"309 66 CURVE SMOOTH"
);
}
);
width = 606;
}
);
unicode = 0036;
},
{
glyphname = sixinferior;
lastChange = "2015-11-08 21:02:16 +0000";
layers = (
{
layerId = "BB6A41DF-B2B0-47BB-BB25-47FFE7E0E8E0";
name = Regular;
paths = (
{
closed = 1;
nodes = (
"379 131 OFFCURVE",
"308 191 OFFCURVE",
"213 191 CURVE SMOOTH",
"163 191 OFFCURVE",
"111 169 OFFCURVE",
"91 133 CURVE",
"92 225 OFFCURVE",
"141 277 OFFCURVE",
"215 277 CURVE SMOOTH",
"262 277 OFFCURVE",
"305 256 OFFCURVE",
"324 223 CURVE",
"357 260 LINE",
"330 304 OFFCURVE",
"277 329 OFFCURVE",
"217 329 CURVE SMOOTH",
"109 329 OFFCURVE",
"39 249 OFFCURVE",
"39 94 CURVE SMOOTH",
"39 -19 OFFCURVE",
"108 -85 OFFCURVE",
"209 -85 CURVE SMOOTH",
"305 -85 OFFCURVE",
"379 -23 OFFCURVE",
"379 55 CURVE SMOOTH"
);
},
{
closed = 1;
nodes = (
"148 -35 OFFCURVE",
"94 6 OFFCURVE",
"94 55 CURVE SMOOTH",
"94 103 OFFCURVE",
"146 143 OFFCURVE",
"210 143 CURVE SMOOTH",
"274 143 OFFCURVE",
"326 103 OFFCURVE",
"326 54 CURVE SMOOTH",
"326 6 OFFCURVE",
"274 -35 OFFCURVE",
"211 -35 CURVE SMOOTH"
);
}
);
width = 410;
}
);
unicode = 2086;
},
{
glyphname = sixsuperior;
lastChange = "2015-11-08 21:02:16 +0000";
layers = (
{
layerId = "BB6A41DF-B2B0-47BB-BB25-47FFE7E0E8E0";
name = Regular;
paths = (
{
closed = 1;
nodes = (
"378 612 OFFCURVE",
"307 672 OFFCURVE",
"212 672 CURVE SMOOTH",
"162 672 OFFCURVE",
"110 650 OFFCURVE",
"90 614 CURVE",
"91 705 OFFCURVE",
"140 758 OFFCURVE",
"214 758 CURVE SMOOTH",
"261 758 OFFCURVE",
"304 736 OFFCURVE",
"323 704 CURVE",
"356 741 LINE",
"329 785 OFFCURVE",
"276 810 OFFCURVE",
"216 810 CURVE SMOOTH",
"108 810 OFFCURVE",
"38 730 OFFCURVE",
"38 574 CURVE SMOOTH",
"38 462 OFFCURVE",
"107 395 OFFCURVE",
"208 395 CURVE SMOOTH",
"304 395 OFFCURVE",
"378 457 OFFCURVE",
"378 536 CURVE SMOOTH"
);
},
{
closed = 1;
nodes = (
"147 446 OFFCURVE",
"93 487 OFFCURVE",
"93 536 CURVE SMOOTH",
"93 584 OFFCURVE",
"145 624 OFFCURVE",
"209 624 CURVE SMOOTH",
"273 624 OFFCURVE",
"325 584 OFFCURVE",
"325 535 CURVE SMOOTH",
"325 487 OFFCURVE",
"273 446 OFFCURVE",
"210 446 CURVE SMOOTH"
);
}
);
width = 409;
}
);
unicode = 2076;
},
{
glyphname = sterling;
lastChange = "2015-11-08 21:02:16 +0000";
layers = (
{
layerId = "BB6A41DF-B2B0-47BB-BB25-47FFE7E0E8E0";
name = Regular;
paths = (
{
closed = 1;
nodes = (
"53 307 LINE",
"166 307 LINE",
"170 292 OFFCURVE",
"172 276 OFFCURVE",
"172 260 CURVE SMOOTH",
"172 195 OFFCURVE",
"139 137 OFFCURVE",
"53 56 CURVE",
"75 -8 LINE",
"111 3 OFFCURVE",
"156 10 OFFCURVE",
"189 10 CURVE SMOOTH",
"251 10 OFFCURVE",
"301 -15 OFFCURVE",
"361 -15 CURVE SMOOTH",
"398 -15 OFFCURVE",
"438 -5 OFFCURVE",
"472 12 CURVE",
"450 79 LINE",
"416 67 OFFCURVE",
"391 61 OFFCURVE",
"365 61 CURVE SMOOTH",
"318 61 OFFCURVE",
"279 79 OFFCURVE",
"225 79 CURVE SMOOTH",
"201 79 OFFCURVE",
"177 76 OFFCURVE",
"151 69 CURVE",
"223 146 OFFCURVE",
"249 199 OFFCURVE",
"249 264 CURVE SMOOTH",
"249 279 OFFCURVE",
"247 293 OFFCURVE",
"245 307 CURVE",
"402 307 LINE",
"402 375 LINE",
"223 375 LINE",
"196 434 OFFCURVE",
"158 481 OFFCURVE",
"158 535 CURVE SMOOTH",
"158 595 OFFCURVE",
"204 642 OFFCURVE",
"264 642 CURVE SMOOTH",
"317 642 OFFCURVE",
"374 608 OFFCURVE",
"406 556 CURVE",
"455 610 LINE",
"412 675 OFFCURVE",
"341 715 OFFCURVE",
"266 715 CURVE SMOOTH",
"162 715 OFFCURVE",
"77 638 OFFCURVE",
"77 542 CURVE SMOOTH",
"77 480 OFFCURVE",
"113 430 OFFCURVE",
"140 375 CURVE",
"53 375 LINE"
);
}
);
width = 512;
}
);
unicode = 00A3;
},
{
glyphname = t;
lastChange = "2015-11-08 21:02:16 +0000";
layers = (
{
anchors = (
{
name = bottom;
position = "{176, 0}";
},
{
name = center;
position = "{176, 261}";
},
{
name = topright;
position = "{226, 522}";
}
);
layerId = "BB6A41DF-B2B0-47BB-BB25-47FFE7E0E8E0";
name = Regular;
paths = (
{
closed = 1;
nodes = (
"320 96 LINE",
"310 90 OFFCURVE",
"278 74 OFFCURVE",
"243 74 CURVE SMOOTH",
"212 74 OFFCURVE",
"186 91 OFFCURVE",
"184 129 CURVE",
"184 453 LINE",
"301 453 LINE",
"301 522 LINE",
"184 522 LINE",
"184 696 LINE",
"96 696 LINE",
"96 522 LINE",
"25 522 LINE",
"25 453 LINE",
"96 453 LINE",
"96 102 LINE SMOOTH",
"96 27 OFFCURVE",
"150 -7 OFFCURVE",
"214 -7 CURVE SMOOTH",
"270 -7 OFFCURVE",
"319 16 OFFCURVE",
"341 26 CURVE"
);
}
);
width = 352;
}
);
leftKerningGroup = t;
rightKerningGroup = c_t;
unicode = 0074;
},
{
glyphname = t.alt;
lastChange = "2015-11-08 21:02:16 +0000";
layers = (
{
layerId = "BB6A41DF-B2B0-47BB-BB25-47FFE7E0E8E0";
name = Regular;
paths = (
{
closed = 1;
nodes = (
"194 0 LINE",
"194 442 LINE",
"317 442 LINE",
"317 522 LINE",
"194 522 LINE",
"194 696 LINE",
"104 696 LINE",
"104 522 LINE",
"27 522 LINE",
"27 442 LINE",
"104 442 LINE",
"104 0 LINE"
);
}
);
width = 336;
}
);
leftKerningGroup = t.alt;
rightKerningGroup = t.alt;
},
{
glyphname = tbar;
lastChange = "2015-11-08 21:02:16 +0000";
layers = (
{
layerId = "BB6A41DF-B2B0-47BB-BB25-47FFE7E0E8E0";
name = Regular;
paths = (
{
closed = 1;
nodes = (
"321 96 LINE",
"311 90 OFFCURVE",
"279 74 OFFCURVE",
"244 74 CURVE SMOOTH",
"213 74 OFFCURVE",
"187 91 OFFCURVE",
"185 129 CURVE",
"185 294 LINE",
"302 294 LINE",
"302 350 LINE",
"185 350 LINE",
"185 453 LINE",
"302 453 LINE",
"302 522 LINE",
"185 522 LINE",
"185 696 LINE",
"97 696 LINE",
"97 522 LINE",
"26 522 LINE",
"26 453 LINE",
"97 453 LINE",
"97 350 LINE",
"26 350 LINE",
"26 294 LINE",
"97 294 LINE",
"97 102 LINE SMOOTH",
"97 27 OFFCURVE",
"151 -7 OFFCURVE",
"215 -7 CURVE SMOOTH",
"271 -7 OFFCURVE",
"320 16 OFFCURVE",
"342 26 CURVE"
);
}
);
width = 353;
}
);
leftKerningGroup = t;
rightKerningGroup = c_t;
unicode = 0167;
},
{
glyphname = thorn;
lastChange = "2015-11-08 21:02:16 +0000";
layers = (
{
layerId = "BB6A41DF-B2B0-47BB-BB25-47FFE7E0E8E0";
name = Regular;
paths = (
{
closed = 1;
nodes = (
"568 389 OFFCURVE",
"473 534 OFFCURVE",
"319 534 CURVE SMOOTH",
"241 534 OFFCURVE",
"193 494 OFFCURVE",
"161 449 CURVE",
"161 710 LINE",
"71 710 LINE",
"71 -213 LINE",
"161 -213 LINE",
"161 60 LINE",
"186 19 OFFCURVE",
"241 -18 OFFCURVE",
"310 -18 CURVE SMOOTH",
"453 -18 OFFCURVE",
"566 112 OFFCURVE",
"568 257 CURVE SMOOTH"
);
},
{
closed = 1;
nodes = (
"478 156 OFFCURVE",
"407 62 OFFCURVE",
"308 62 CURVE SMOOTH",
"245 62 OFFCURVE",
"161 117 OFFCURVE",
"161 173 CURVE SMOOTH",
"161 344 LINE",
"191 403 OFFCURVE",
"242 454 OFFCURVE",
"314 454 CURVE SMOOTH",
"413 454 OFFCURVE",
"478 361 OFFCURVE",
"478 258 CURVE SMOOTH"
);
}
);
width = 603;
}
);
leftKerningGroup = b;
rightKerningGroup = b;
unicode = 00FE;
},
{
glyphname = three;
lastChange = "2015-11-08 21:02:16 +0000";
layers = (
{
layerId = "BB6A41DF-B2B0-47BB-BB25-47FFE7E0E8E0";
name = Regular;
paths = (
{
closed = 1;
nodes = (
"414 -9 OFFCURVE",
"535 62 OFFCURVE",
"535 186 CURVE SMOOTH",
"535 275 OFFCURVE",
"474 350 OFFCURVE",
"380 367 CURVE",
"468 388 OFFCURVE",
"518 442 OFFCURVE",
"518 523 CURVE SMOOTH",
"518 634 OFFCURVE",
"416 719 OFFCURVE",
"278 719 CURVE SMOOTH",
"183 719 OFFCURVE",
"89 677 OFFCURVE",
"49 607 CURVE",
"108 546 LINE",
"132 597 OFFCURVE",
"193 641 OFFCURVE",
"279 641 CURVE SMOOTH",
"355 641 OFFCURVE",
"425 595 OFFCURVE",
"425 519 CURVE SMOOTH",
"425 440 OFFCURVE",
"346 401 OFFCURVE",
"223 401 CURVE SMOOTH",
"189 401 LINE",
"189 326 LINE",
"223 326 LINE SMOOTH",
"359 326 OFFCURVE",
"444 279 OFFCURVE",
"444 197 CURVE SMOOTH",
"444 122 OFFCURVE",
"372 73 OFFCURVE",
"280 73 CURVE SMOOTH",
"171 73 OFFCURVE",
"102 142 OFFCURVE",
"96 201 CURVE",
"46 148 LINE",
"66 53 OFFCURVE",
"158 -9 OFFCURVE",
"281 -9 CURVE SMOOTH"
);
}
);
width = 585;
}
);
unicode = 0033;
},
{
glyphname = threeeighths;
lastChange = "2015-11-08 21:02:16 +0000";
layers = (
{
layerId = "BB6A41DF-B2B0-47BB-BB25-47FFE7E0E8E0";
name = Regular;
paths = (
{
closed = 1;
nodes = (
"287 314 OFFCURVE",
"366 354 OFFCURVE",
"366 427 CURVE SMOOTH",
"366 479 OFFCURVE",
"326 522 OFFCURVE",
"263 531 CURVE",
"322 543 OFFCURVE",
"355 573 OFFCURVE",
"355 619 CURVE SMOOTH",
"355 683 OFFCURVE",
"287 731 OFFCURVE",
"196 731 CURVE SMOOTH",
"132 731 OFFCURVE",
"70 708 OFFCURVE",
"44 669 CURVE",
"81 626 LINE",
"102 658 OFFCURVE",
"142 680 OFFCURVE",
"196 680 CURVE SMOOTH",
"248 680 OFFCURVE",
"296 656 OFFCURVE",
"296 616 CURVE SMOOTH",
"296 574 OFFCURVE",
"244 554 OFFCURVE",
"161 554 CURVE SMOOTH",
"138 554 LINE",
"138 503 LINE",
"161 503 LINE SMOOTH",
"252 503 OFFCURVE",
"310 479 OFFCURVE",
"310 435 CURVE SMOOTH",
"310 395 OFFCURVE",
"260 370 OFFCURVE",
"198 370 CURVE SMOOTH",
"125 370 OFFCURVE",
"77 410 OFFCURVE",
"73 438 CURVE",
"41 400 LINE",
"54 347 OFFCURVE",
"116 314 OFFCURVE",
"199 314 CURVE SMOOTH"
);
},
{
closed = 1;
nodes = (
"857 165 OFFCURVE",
"818 199 OFFCURVE",
"766 218 CURVE",
"808 232 OFFCURVE",
"841 261 OFFCURVE",
"841 301 CURVE SMOOTH",
"841 366 OFFCURVE",
"763 406 OFFCURVE",
"691 406 CURVE SMOOTH",
"619 406 OFFCURVE",
"541 365 OFFCURVE",
"541 300 CURVE SMOOTH",
"541 259 OFFCURVE",
"576 232 OFFCURVE",
"615 218 CURVE",
"569 201 OFFCURVE",
"525 169 OFFCURVE",
"525 117 CURVE SMOOTH",
"525 50 OFFCURVE",
"595 -5 OFFCURVE",
"690 -5 CURVE SMOOTH",
"780 -5 OFFCURVE",
"857 44 OFFCURVE",
"857 115 CURVE SMOOTH"
);
},
{
closed = 1;
nodes = (
"801 78 OFFCURVE",
"746 50 OFFCURVE",
"692 50 CURVE SMOOTH",
"640 50 OFFCURVE",
"581 76 OFFCURVE",
"581 120 CURVE SMOOTH",
"581 164 OFFCURVE",
"635 193 OFFCURVE",
"691 193 CURVE SMOOTH",
"743 193 OFFCURVE",
"801 166 OFFCURVE",
"801 121 CURVE SMOOTH"
);
},
{
closed = 1;
nodes = (
"597 331 OFFCURVE",
"641 353 OFFCURVE",
"691 353 CURVE SMOOTH",
"739 353 OFFCURVE",
"786 331 OFFCURVE",
"786 296 CURVE SMOOTH",
"786 260 OFFCURVE",
"735 238 OFFCURVE",
"691 238 CURVE SMOOTH",
"647 238 OFFCURVE",
"597 259 OFFCURVE",
"597 295 CURVE SMOOTH"
);
},
{
closed = 1;
nodes = (
"192 -5 LINE",
"464 343 LINE",
"741 678 LINE",
"698 715 LINE",
"430 370 LINE",
"150 33 LINE"
);
}
);
width = 892;
}
);
unicode = 215C;
},
{
glyphname = threesuperior;
lastChange = "2015-11-08 21:02:16 +0000";
layers = (
{
layerId = "BB6A41DF-B2B0-47BB-BB25-47FFE7E0E8E0";
name = Regular;
paths = (
{
closed = 1;
nodes = (
"278 394 OFFCURVE",
"357 434 OFFCURVE",
"357 507 CURVE SMOOTH",
"357 559 OFFCURVE",
"317 602 OFFCURVE",
"254 611 CURVE",
"313 623 OFFCURVE",
"346 653 OFFCURVE",
"346 699 CURVE SMOOTH",
"346 763 OFFCURVE",
"278 811 OFFCURVE",
"187 811 CURVE SMOOTH",
"123 811 OFFCURVE",
"61 788 OFFCURVE",
"35 749 CURVE",
"72 706 LINE",
"93 738 OFFCURVE",
"133 760 OFFCURVE",
"187 760 CURVE SMOOTH",
"239 760 OFFCURVE",
"287 736 OFFCURVE",
"287 696 CURVE SMOOTH",
"287 654 OFFCURVE",
"235 634 OFFCURVE",
"152 634 CURVE SMOOTH",
"129 634 LINE",
"129 583 LINE",
"152 583 LINE SMOOTH",
"243 583 OFFCURVE",
"301 559 OFFCURVE",
"301 515 CURVE SMOOTH",
"301 475 OFFCURVE",
"251 450 OFFCURVE",
"189 450 CURVE SMOOTH",
"116 450 OFFCURVE",
"68 490 OFFCURVE",
"64 518 CURVE",
"32 480 LINE",
"45 427 OFFCURVE",
"107 394 OFFCURVE",
"190 394 CURVE SMOOTH"
);
}
);
width = 394;
}
);
unicode = 00B3;
},
{
glyphname = threequarters;
lastChange = "2015-11-08 21:02:16 +0000";
layers = (
{
layerId = "BB6A41DF-B2B0-47BB-BB25-47FFE7E0E8E0";
name = Regular;
paths = (
{
closed = 1;
nodes = (
"286 314 OFFCURVE",
"365 354 OFFCURVE",
"365 427 CURVE SMOOTH",
"365 479 OFFCURVE",
"325 522 OFFCURVE",
"262 531 CURVE",
"321 543 OFFCURVE",
"354 573 OFFCURVE",
"354 619 CURVE SMOOTH",
"354 683 OFFCURVE",
"286 731 OFFCURVE",
"195 731 CURVE SMOOTH",
"131 731 OFFCURVE",
"69 708 OFFCURVE",
"43 669 CURVE",
"80 626 LINE",
"101 658 OFFCURVE",
"141 680 OFFCURVE",
"195 680 CURVE SMOOTH",
"247 680 OFFCURVE",
"295 656 OFFCURVE",
"295 616 CURVE SMOOTH",
"295 574 OFFCURVE",
"243 554 OFFCURVE",
"160 554 CURVE SMOOTH",
"137 554 LINE",
"137 503 LINE",
"160 503 LINE SMOOTH",
"251 503 OFFCURVE",
"309 479 OFFCURVE",
"309 435 CURVE SMOOTH",
"309 395 OFFCURVE",
"259 370 OFFCURVE",
"197 370 CURVE SMOOTH",
"124 370 OFFCURVE",
"76 410 OFFCURVE",
"72 438 CURVE",
"40 400 LINE",
"53 347 OFFCURVE",
"115 314 OFFCURVE",
"198 314 CURVE SMOOTH"
);
},
{
closed = 1;
nodes = (
"771 0 LINE",
"771 100 LINE",
"830 100 LINE",
"830 154 LINE",
"771 154 LINE",
"771 406 LINE",
"733 406 LINE",
"490 153 LINE",
"490 100 LINE",
"716 100 LINE",
"716 0 LINE"
);
},
{
closed = 1;
nodes = (
"718 334 LINE",
"718 154 LINE",
"547 154 LINE"
);
},
{
closed = 1;
nodes = (
"220 -5 LINE",
"492 343 LINE",
"769 678 LINE",
"726 715 LINE",
"458 370 LINE",
"178 33 LINE"
);
}
);
width = 866;
}
);
unicode = 00BE;
},
{
glyphname = trademark;
lastChange = "2015-11-08 21:02:16 +0000";
layers = (
{
layerId = "BB6A41DF-B2B0-47BB-BB25-47FFE7E0E8E0";
name = Regular;
paths = (
{
closed = 1;
nodes = (
"313 712 LINE",
"63 712 LINE",
"63 652 LINE",
"158 652 LINE",
"158 420 LINE",
"218 420 LINE",
"218 652 LINE",
"313 652 LINE"
);
},
{
closed = 1;
nodes = (
"521 532 LINE",
"444 710 LINE",
"359 710 LINE",
"359 420 LINE",
"419 420 LINE",
"419 628 LINE",
"497 462 LINE",
"546 462 LINE",
"624 628 LINE",
"624 420 LINE",
"684 420 LINE",
"684 710 LINE",
"598 710 LINE"
);
}
);
width = 760;
}
);
leftKerningGroup = trademark;
unicode = 2122;
},
{
glyphname = two;
lastChange = "2015-11-08 21:02:16 +0000";
layers = (
{
layerId = "BB6A41DF-B2B0-47BB-BB25-47FFE7E0E8E0";
name = Regular;
paths = (
{
closed = 1;
nodes = (
"536 0 LINE",
"536 80 LINE",
"158 80 LINE",
"158 171 OFFCURVE",
"197 219 OFFCURVE",
"333 283 CURVE SMOOTH",
"431 329 OFFCURVE",
"535 380 OFFCURVE",
"535 512 CURVE SMOOTH",
"535 625 OFFCURVE",
"458 719 OFFCURVE",
"309 719 CURVE SMOOTH",
"160 719 OFFCURVE",
"73 625 OFFCURVE",
"51 598 CURVE",
"108 541 LINE",
"140 580 OFFCURVE",
"206 637 OFFCURVE",
"300 637 CURVE SMOOTH",
"393 637 OFFCURVE",
"437 580 OFFCURVE",
"437 510 CURVE SMOOTH",
"437 399 OFFCURVE",
"325 371 OFFCURVE",
"236 327 CURVE SMOOTH",
"111 265 OFFCURVE",
"46 186 OFFCURVE",
"46 0 CURVE"
);
}
);
width = 590;
}
);
unicode = 0032;
},
{
glyphname = twosuperior;
lastChange = "2015-11-08 21:02:16 +0000";
layers = (
{
layerId = "BB6A41DF-B2B0-47BB-BB25-47FFE7E0E8E0";
name = Regular;
paths = (
{
closed = 1;
nodes = (
"352 400 LINE",
"352 454 LINE",
"121 454 LINE",
"121 489 OFFCURVE",
"139 533 OFFCURVE",
"221 560 CURVE SMOOTH",
"275 577 OFFCURVE",
"359 604 OFFCURVE",
"359 688 CURVE SMOOTH",
"359 760 OFFCURVE",
"308 811 OFFCURVE",
"208 811 CURVE SMOOTH",
"109 811 OFFCURVE",
"51 761 OFFCURVE",
"38 743 CURVE",
"74 704 LINE",
"95 726 OFFCURVE",
"136 757 OFFCURVE",
"200 757 CURVE SMOOTH",
"264 757 OFFCURVE",
"297 728 OFFCURVE",
"297 689 CURVE SMOOTH",
"297 630 OFFCURVE",
"223 612 OFFCURVE",
"161 588 CURVE SMOOTH",
"73 553 OFFCURVE",
"34 505 OFFCURVE",
"34 400 CURVE"
);
}
);
width = 396;
}
);
unicode = 00B2;
},
{
glyphname = twothirds;
lastChange = "2015-11-08 21:02:16 +0000";
layers = (
{
layerId = "BB6A41DF-B2B0-47BB-BB25-47FFE7E0E8E0";
name = Regular;
paths = (
{
closed = 1;
nodes = (
"785 -5 OFFCURVE",
"864 34 OFFCURVE",
"864 107 CURVE SMOOTH",
"864 159 OFFCURVE",
"824 202 OFFCURVE",
"761 211 CURVE",
"820 223 OFFCURVE",
"853 253 OFFCURVE",
"853 300 CURVE SMOOTH",
"853 363 OFFCURVE",
"785 411 OFFCURVE",
"694 411 CURVE SMOOTH",
"630 411 OFFCURVE",
"568 388 OFFCURVE",
"542 349 CURVE",
"579 306 LINE",
"600 338 OFFCURVE",
"640 360 OFFCURVE",
"694 360 CURVE SMOOTH",
"746 360 OFFCURVE",
"794 336 OFFCURVE",
"794 296 CURVE SMOOTH",
"794 254 OFFCURVE",
"742 234 OFFCURVE",
"659 234 CURVE SMOOTH",
"636 234 LINE",
"636 184 LINE",
"659 184 LINE SMOOTH",
"750 184 OFFCURVE",
"808 159 OFFCURVE",
"808 115 CURVE SMOOTH",
"808 75 OFFCURVE",
"758 50 OFFCURVE",
"696 50 CURVE SMOOTH",
"623 50 OFFCURVE",
"575 90 OFFCURVE",
"571 118 CURVE",
"539 81 LINE",
"552 27 OFFCURVE",
"614 -5 OFFCURVE",
"697 -5 CURVE SMOOTH"
);
},
{
closed = 1;
nodes = (
"349 320 LINE",
"349 374 LINE",
"126 374 LINE",
"126 409 OFFCURVE",
"143 453 OFFCURVE",
"222 480 CURVE SMOOTH",
"274 497 OFFCURVE",
"355 524 OFFCURVE",
"355 608 CURVE SMOOTH",
"355 680 OFFCURVE",
"306 731 OFFCURVE",
"210 731 CURVE SMOOTH",
"114 731 OFFCURVE",
"58 681 OFFCURVE",
"46 663 CURVE",
"80 624 LINE",
"101 646 OFFCURVE",
"140 677 OFFCURVE",
"202 677 CURVE SMOOTH",
"264 677 OFFCURVE",
"296 648 OFFCURVE",
"296 609 CURVE SMOOTH",
"296 550 OFFCURVE",
"224 532 OFFCURVE",
"164 508 CURVE SMOOTH",
"79 473 OFFCURVE",
"42 425 OFFCURVE",
"42 320 CURVE"
);
},
{
closed = 1;
nodes = (
"205 -5 LINE",
"477 343 LINE",
"754 678 LINE",
"711 715 LINE",
"443 370 LINE",
"163 33 LINE"
);
}
);
width = 899;
}
);
unicode = 2154;
},
{
glyphname = u;
lastChange = "2015-11-08 21:02:16 +0000";
layers = (
{
anchors = (
{
name = ogonek;
position = "{536, 10}";
},
{
name = top;
position = "{298, 522}";
}
);
layerId = "BB6A41DF-B2B0-47BB-BB25-47FFE7E0E8E0";
name = Regular;
paths = (
{
closed = 1;
nodes = (
"525 0 LINE",
"525 522 LINE",
"437 522 LINE",
"437 195 LINE",
"409 122 OFFCURVE",
"342 66 OFFCURVE",
"269 66 CURVE SMOOTH",
"177 66 OFFCURVE",
"154 137 OFFCURVE",
"154 226 CURVE SMOOTH",
"154 522 LINE",
"66 522 LINE",
"66 209 LINE SMOOTH",
"66 88 OFFCURVE",
"104 -10 OFFCURVE",
"238 -10 CURVE SMOOTH",
"320 -10 OFFCURVE",
"400 33 OFFCURVE",
"440 107 CURVE",
"440 0 LINE"
);
}
);
width = 596;
}
);
leftKerningGroup = u;
rightKerningGroup = a.alt;
unicode = 0075;
},
{
glyphname = u.alt;
lastChange = "2015-11-08 21:02:16 +0000";
layers = (
{
layerId = "BB6A41DF-B2B0-47BB-BB25-47FFE7E0E8E0";
name = Regular;
paths = (
{
closed = 1;
nodes = (
"322 -10 OFFCURVE",
"403 34 OFFCURVE",
"449 112 CURVE",
"451 51 LINE SMOOTH",
"452 20 OFFCURVE",
"479 -3 OFFCURVE",
"513 -3 CURVE SMOOTH",
"524 -3 OFFCURVE",
"533 -3 OFFCURVE",
"553 0 CURVE",
"553 76 LINE",
"533 77 OFFCURVE",
"525 86 OFFCURVE",
"525 108 CURVE SMOOTH",
"525 522 LINE",
"437 522 LINE",
"437 195 LINE",
"406 115 OFFCURVE",
"337 66 OFFCURVE",
"265 66 CURVE SMOOTH",
"191 66 OFFCURVE",
"154 119 OFFCURVE",
"154 226 CURVE SMOOTH",
"154 522 LINE",
"66 522 LINE",
"66 209 LINE SMOOTH",
"66 65 OFFCURVE",
"123 -10 OFFCURVE",
"232 -10 CURVE SMOOTH"
);
}
);
width = 601;
}
);
leftKerningGroup = u;
rightKerningGroup = u;
},
{
glyphname = underscore;
lastChange = "2015-11-08 21:02:16 +0000";
layers = (
{
layerId = "BB6A41DF-B2B0-47BB-BB25-47FFE7E0E8E0";
name = Regular;
paths = (
{
closed = 1;
nodes = (
"440 -80 LINE",
"440 0 LINE",
"63 0 LINE",
"63 -80 LINE"
);
}
);
width = 503;
}
);
unicode = 005F;
},
{
glyphname = uni00AD;
lastChange = "2015-11-08 21:02:16 +0000";
layers = (
{
layerId = "BB6A41DF-B2B0-47BB-BB25-47FFE7E0E8E0";
name = Regular;
paths = (
{
closed = 1;
nodes = (
"518 233 LINE",
"518 313 LINE",
"64 313 LINE",
"64 233 LINE"
);
}
);
width = 582;
}
);
leftKerningGroup = emdash;
rightKerningGroup = emdash;
unicode = 00AD;
},
{
glyphname = uni03BC;
lastChange = "2015-11-08 21:02:16 +0000";
layers = (
{
layerId = "BB6A41DF-B2B0-47BB-BB25-47FFE7E0E8E0";
name = Regular;
paths = (
{
closed = 1;
nodes = (
"71 -212 LINE",
"154 -212 LINE",
"154 67 LINE",
"169 25 OFFCURVE",
"206 -10 OFFCURVE",
"267 -10 CURVE SMOOTH",
"346 -10 OFFCURVE",
"423 48 OFFCURVE",
"455 112 CURVE",
"455 0 LINE",
"531 0 LINE",
"531 522 LINE",
"443 522 LINE",
"443 195 LINE",
"412 115 OFFCURVE",
"342 66 OFFCURVE",
"272 66 CURVE SMOOTH",
"196 66 OFFCURVE",
"159 119 OFFCURVE",
"159 226 CURVE SMOOTH",
"159 522 LINE",
"71 522 LINE"
);
}
);
width = 607;
}
);
unicode = 03BC;
},
{
glyphname = uni2215;
lastChange = "2015-11-08 21:02:16 +0000";
layers = (
{
layerId = "BB6A41DF-B2B0-47BB-BB25-47FFE7E0E8E0";
name = Regular;
paths = (
{
closed = 1;
nodes = (
"43 -5 LINE",
"609 672 LINE",
"557 715 LINE",
"-9 38 LINE"
);
}
);
width = 599;
}
);
unicode = 2215;
},
{
glyphname = uni2219;
lastChange = "2015-11-08 21:02:16 +0000";
layers = (
{
layerId = "BB6A41DF-B2B0-47BB-BB25-47FFE7E0E8E0";
name = Regular;
paths = (
{
closed = 1;
nodes = (
"137 240 OFFCURVE",
"167 270 OFFCURVE",
"167 307 CURVE SMOOTH",
"167 344 OFFCURVE",
"137 374 OFFCURVE",
"100 374 CURVE SMOOTH",
"63 374 OFFCURVE",
"33 344 OFFCURVE",
"33 307 CURVE SMOOTH",
"33 270 OFFCURVE",
"63 240 OFFCURVE",
"100 240 CURVE SMOOTH"
);
}
);
width = 202;
}
);
unicode = 2219;
},
{
glyphname = v;
lastChange = "2015-11-08 21:02:16 +0000";
layers = (
{
layerId = "BB6A41DF-B2B0-47BB-BB25-47FFE7E0E8E0";
name = Regular;
paths = (
{
closed = 1;
nodes = (
"316 0 LINE",
"522 522 LINE",
"438 522 LINE",
"272 77 LINE",
"107 522 LINE",
"16 522 LINE",
"222 0 LINE"
);
}
);
width = 538;
}
);
leftKerningGroup = v;
rightKerningGroup = v;
unicode = 0076;
},
{
glyphname = w;
lastChange = "2015-11-08 21:02:16 +0000";
layers = (
{
anchors = (
{
name = top;
position = "{421, 522}";
}
);
layerId = "BB6A41DF-B2B0-47BB-BB25-47FFE7E0E8E0";
name = Regular;
paths = (
{
closed = 1;
nodes = (
"641 0 LINE",
"823 522 LINE",
"742 522 LINE",
"591 98 LINE",
"453 522 LINE",
"389 522 LINE",
"251 98 LINE",
"100 522 LINE",
"18 522 LINE",
"201 0 LINE",
"294 0 LINE",
"421 387 LINE",
"547 0 LINE"
);
}
);
width = 842;
}
);
leftKerningGroup = w.alt;
rightKerningGroup = w.alt;
unicode = 0077;
},
{
glyphname = w.alt;
lastChange = "2015-11-08 21:02:16 +0000";
layers = (
{
layerId = "BB6A41DF-B2B0-47BB-BB25-47FFE7E0E8E0";
name = Regular;
paths = (
{
closed = 1;
nodes = (
"546 87 LINE",
"458 304 LINE",
"547 521 LINE",
"474 521 LINE",
"410 354 LINE",
"346 521 LINE",
"273 521 LINE",
"363 304 LINE",
"275 87 LINE",
"95 522 LINE",
"11 522 LINE",
"233 0 LINE",
"306 0 LINE",
"410 255 LINE",
"515 0 LINE",
"588 0 LINE",
"810 522 LINE",
"725 522 LINE"
);
}
);
width = 821;
}
);
leftKerningGroup = w;
rightKerningGroup = w;
},
{
glyphname = x;
lastChange = "2015-11-08 21:02:16 +0000";
layers = (
{
layerId = "BB6A41DF-B2B0-47BB-BB25-47FFE7E0E8E0";
name = Regular;
paths = (
{
closed = 1;
nodes = (
"13 522 LINE",
"208 260 LINE",
"12 0 LINE",
"105 0 LINE",
"248 191 LINE",
"256 206 LINE",
"265 191 LINE",
"408 0 LINE",
"501 0 LINE",
"305 260 LINE",
"500 522 LINE",
"407 522 LINE",
"265 330 LINE",
"256 314 LINE",
"248 330 LINE",
"105 522 LINE"
);
}
);
width = 513;
}
);
leftKerningGroup = x;
rightKerningGroup = x;
unicode = 0078;
},
{
glyphname = y;
lastChange = "2015-11-08 21:02:16 +0000";
layers = (
{
anchors = (
{
name = top;
position = "{273, 522}";
}
);
layerId = "BB6A41DF-B2B0-47BB-BB25-47FFE7E0E8E0";
name = Regular;
paths = (
{
closed = 1;
nodes = (
"95 -220 LINE",
"113 -224 OFFCURVE",
"125 -225 OFFCURVE",
"137 -225 CURVE SMOOTH",
"212 -225 OFFCURVE",
"255 -184 OFFCURVE",
"273 -137 CURVE SMOOTH",
"527 522 LINE",
"443 522 LINE",
"281 79 LINE",
"103 522 LINE",
"12 522 LINE",
"233 0 LINE",
"186 -123 OFFCURVE",
"173 -146 OFFCURVE",
"141 -146 CURVE SMOOTH",
"132 -146 OFFCURVE",
"112 -144 OFFCURVE",
"95 -142 CURVE"
);
}
);
width = 545;
}
);
leftKerningGroup = y;
rightKerningGroup = y;
unicode = 0079;
},
{
glyphname = y.alt;
lastChange = "2015-11-08 21:02:16 +0000";
layers = (
{
layerId = "BB6A41DF-B2B0-47BB-BB25-47FFE7E0E8E0";
name = Regular;
paths = (
{
closed = 1;
nodes = (
"444 522 LINE",
"281 79 LINE",
"104 522 LINE",
"12 522 LINE",
"233 0 LINE",
"186 -108 OFFCURVE",
"149 -209 OFFCURVE",
"147 -213 CURVE",
"247 -213 LINE",
"528 522 LINE"
);
}
);
width = 547;
}
);
leftKerningGroup = y.alt;
rightKerningGroup = y.alt;
},
{
glyphname = yen;
lastChange = "2015-11-08 21:02:16 +0000";
layers = (
{
layerId = "BB6A41DF-B2B0-47BB-BB25-47FFE7E0E8E0";
name = Regular;
paths = (
{
closed = 1;
nodes = (
"658 710 LINE",
"559 710 LINE",
"342 340 LINE",
"127 710 LINE",
"29 710 LINE",
"233 377 LINE",
"150 377 LINE",
"150 317 LINE",
"265 317 LINE",
"297 261 LINE",
"297 231 LINE",
"150 231 LINE",
"150 171 LINE",
"297 171 LINE",
"297 0 LINE",
"387 0 LINE",
"387 171 LINE",
"536 171 LINE",
"536 231 LINE",
"387 231 LINE",
"387 259 LINE",
"421 317 LINE",
"535 317 LINE",
"535 377 LINE",
"454 377 LINE"
);
}
);
width = 687;
}
);
unicode = 00A5;
},
{
glyphname = z;
lastChange = "2015-11-08 21:02:16 +0000";
layers = (
{
anchors = (
{
name = top;
position = "{247, 522}";
}
);
layerId = "BB6A41DF-B2B0-47BB-BB25-47FFE7E0E8E0";
name = Regular;
paths = (
{
closed = 1;
nodes = (
"30 0 LINE",
"459 0 LINE",
"459 64 LINE",
"126 64 LINE",
"458 465 LINE",
"458 522 LINE",
"39 522 LINE",
"39 458 LINE",
"364 458 LINE",
"30 57 LINE"
);
}
);
width = 493;
}
);
leftKerningGroup = z;
rightKerningGroup = z;
unicode = 007A;
},
{
glyphname = zero;
lastChange = "2015-11-08 21:02:16 +0000";
layers = (
{
layerId = "BB6A41DF-B2B0-47BB-BB25-47FFE7E0E8E0";
name = Regular;
paths = (
{
closed = 1;
nodes = (
"529 -8 OFFCURVE",
"643 177 OFFCURVE",
"643 350 CURVE SMOOTH",
"643 505 OFFCURVE",
"542 710 OFFCURVE",
"345 710 CURVE SMOOTH",
"161 710 OFFCURVE",
"47 521 OFFCURVE",
"47 350 CURVE SMOOTH",
"47 190 OFFCURVE",
"149 -6 OFFCURVE",
"345 -10 CURVE SMOOTH"
);
},
{
closed = 1;
nodes = (
"138 467 OFFCURVE",
"204 629 OFFCURVE",
"345 629 CURVE SMOOTH",
"477 629 OFFCURVE",
"552 480 OFFCURVE",
"552 350 CURVE SMOOTH",
"552 232 OFFCURVE",
"486 71 OFFCURVE",
"345 71 CURVE SMOOTH",
"209 71 OFFCURVE",
"142 220 OFFCURVE",
"138 350 CURVE"
);
}
);
width = 690;
}
);
unicode = 0030;
},
{
glyphname = zeroinferior;
lastChange = "2015-11-08 21:02:16 +0000";
layers = (
{
layerId = "BB6A41DF-B2B0-47BB-BB25-47FFE7E0E8E0";
name = Regular;
paths = (
{
closed = 1;
nodes = (
"356 -85 OFFCURVE",
"431 21 OFFCURVE",
"431 120 CURVE SMOOTH",
"431 209 OFFCURVE",
"364 326 OFFCURVE",
"234 326 CURVE SMOOTH",
"112 326 OFFCURVE",
"36 218 OFFCURVE",
"36 120 CURVE SMOOTH",
"36 29 OFFCURVE",
"103 -85 OFFCURVE",
"234 -85 CURVE SMOOTH"
);
},
{
closed = 1;
nodes = (
"93 184 OFFCURVE",
"138 271 OFFCURVE",
"234 271 CURVE SMOOTH",
"324 271 OFFCURVE",
"375 191 OFFCURVE",
"375 120 CURVE SMOOTH",
"375 57 OFFCURVE",
"330 -30 OFFCURVE",
"234 -30 CURVE SMOOTH",
"142 -30 OFFCURVE",
"93 50 OFFCURVE",
"93 120 CURVE SMOOTH"
);
}
);
width = 467;
}
);
unicode = 2080;
},
{
glyphname = zerosuperior;
lastChange = "2015-11-08 21:02:16 +0000";
layers = (
{
layerId = "BB6A41DF-B2B0-47BB-BB25-47FFE7E0E8E0";
name = Regular;
paths = (
{
closed = 1;
nodes = (
"356 399 OFFCURVE",
"431 505 OFFCURVE",
"431 604 CURVE SMOOTH",
"431 693 OFFCURVE",
"364 810 OFFCURVE",
"234 810 CURVE SMOOTH",
"112 810 OFFCURVE",
"36 702 OFFCURVE",
"36 604 CURVE SMOOTH",
"36 513 OFFCURVE",
"103 399 OFFCURVE",
"234 399 CURVE SMOOTH"
);
},
{
closed = 1;
nodes = (
"93 668 OFFCURVE",
"138 755 OFFCURVE",
"234 755 CURVE SMOOTH",
"324 755 OFFCURVE",
"375 675 OFFCURVE",
"375 604 CURVE SMOOTH",
"375 541 OFFCURVE",
"330 454 OFFCURVE",
"234 454 CURVE SMOOTH",
"142 454 OFFCURVE",
"93 534 OFFCURVE",
"93 604 CURVE SMOOTH"
);
}
);
width = 467;
}
);
unicode = 2070;
},
{
glyphname = lira;
lastChange = "2015-11-08 21:02:16 +0000";
layers = (
{
layerId = "BB6A41DF-B2B0-47BB-BB25-47FFE7E0E8E0";
name = Regular;
paths = (
{
closed = 1;
nodes = (
"51 352 LINE",
"149 352 LINE",
"157 333 OFFCURVE",
"164 314 OFFCURVE",
"167 293 CURVE",
"51 293 LINE",
"51 241 LINE",
"169 241 LINE",
"163 183 OFFCURVE",
"128 129 OFFCURVE",
"51 56 CURVE",
"73 -8 LINE",
"109 3 OFFCURVE",
"154 10 OFFCURVE",
"187 10 CURVE SMOOTH",
"249 10 OFFCURVE",
"299 -15 OFFCURVE",
"359 -15 CURVE SMOOTH",
"396 -15 OFFCURVE",
"436 -5 OFFCURVE",
"470 12 CURVE",
"448 79 LINE",
"414 67 OFFCURVE",
"389 61 OFFCURVE",
"363 61 CURVE SMOOTH",
"316 61 OFFCURVE",
"277 79 OFFCURVE",
"223 79 CURVE SMOOTH",
"199 79 OFFCURVE",
"175 76 OFFCURVE",
"149 69 CURVE",
"212 137 OFFCURVE",
"240 186 OFFCURVE",
"245 241 CURVE",
"400 241 LINE",
"400 293 LINE",
"245 293 LINE",
"242 314 OFFCURVE",
"237 333 OFFCURVE",
"230 352 CURVE",
"400 352 LINE",
"400 404 LINE",
"206 404 LINE",
"182 450 OFFCURVE",
"156 490 OFFCURVE",
"156 535 CURVE SMOOTH",
"156 595 OFFCURVE",
"202 642 OFFCURVE",
"262 642 CURVE SMOOTH",
"315 642 OFFCURVE",
"372 608 OFFCURVE",
"404 556 CURVE",
"453 610 LINE",
"410 675 OFFCURVE",
"339 715 OFFCURVE",
"264 715 CURVE SMOOTH",
"160 715 OFFCURVE",
"75 638 OFFCURVE",
"75 542 CURVE SMOOTH",
"75 491 OFFCURVE",
"99 448 OFFCURVE",
"123 404 CURVE",
"51 404 LINE"
);
}
);
width = 500;
}
);
unicode = 20A4;
},
{
glyphname = uni20A6;
lastChange = "2015-11-08 21:02:16 +0000";
layers = (
{
layerId = "BB6A41DF-B2B0-47BB-BB25-47FFE7E0E8E0";
name = Regular;
paths = (
{
closed = 1;
nodes = (
"816 428 LINE",
"728 428 LINE",
"728 709 LINE",
"638 709 LINE",
"638 428 LINE",
"422 428 LINE",
"198 710 LINE",
"128 710 LINE",
"128 428 LINE",
"37 428 LINE",
"37 376 LINE",
"128 376 LINE",
"128 317 LINE",
"37 317 LINE",
"37 265 LINE",
"128 265 LINE",
"128 0 LINE",
"218 0 LINE",
"218 265 LINE",
"439 265 LINE",
"652 0 LINE",
"728 0 LINE",
"728 265 LINE",
"816 265 LINE",
"816 317 LINE",
"728 317 LINE",
"728 376 LINE",
"816 376 LINE"
);
},
{
closed = 1;
nodes = (
"218 376 LINE",
"351 376 LINE",
"398 317 LINE",
"218 317 LINE"
);
},
{
closed = 1;
nodes = (
"464 376 LINE",
"638 376 LINE",
"638 317 LINE",
"511 317 LINE"
);
},
{
closed = 1;
nodes = (
"218 542 LINE",
"309 428 LINE",
"218 428 LINE"
);
},
{
closed = 1;
nodes = (
"552 265 LINE",
"638 265 LINE",
"638 157 LINE"
);
}
);
width = 854;
}
);
unicode = 20A6;
},
{
glyphname = uni20A9;
lastChange = "2015-11-08 21:02:16 +0000";
layers = (
{
layerId = "BB6A41DF-B2B0-47BB-BB25-47FFE7E0E8E0";
name = Regular;
paths = (
{
closed = 1;
nodes = (
"38 305 LINE",
"220 305 LINE",
"348 0 LINE",
"426 0 LINE",
"568 335 LINE",
"709 0 LINE",
"787 0 LINE",
"914 305 LINE",
"1097 305 LINE",
"1097 357 LINE",
"936 357 LINE",
"965 426 LINE",
"1097 426 LINE",
"1097 478 LINE",
"987 478 LINE",
"1084 710 LINE",
"986 710 LINE",
"894 478 LINE",
"656 478 LINE",
"747 706 LINE",
"662 706 LINE",
"567 459 LINE",
"473 706 LINE",
"388 706 LINE",
"479 478 LINE",
"241 478 LINE",
"149 710 LINE",
"52 710 LINE",
"148 478 LINE",
"38 478 LINE",
"38 426 LINE",
"170 426 LINE",
"199 357 LINE",
"38 357 LINE"
);
},
{
closed = 1;
nodes = (
"662 305 LINE",
"825 305 LINE",
"746 104 LINE"
);
},
{
closed = 1;
nodes = (
"310 305 LINE",
"473 305 LINE",
"390 104 LINE"
);
},
{
closed = 1;
nodes = (
"635 426 LINE",
"873 426 LINE",
"846 357 LINE",
"640 357 LINE",
"624 397 LINE"
);
},
{
closed = 1;
nodes = (
"511 397 LINE",
"494 357 LINE",
"289 357 LINE",
"262 426 LINE",
"499 426 LINE"
);
}
);
width = 1136;
}
);
unicode = 20A9;
},
{
glyphname = franc;
lastChange = "2015-11-08 21:02:16 +0000";
layers = (
{
layerId = "BB6A41DF-B2B0-47BB-BB25-47FFE7E0E8E0";
name = Regular;
paths = (
{
closed = 1;
nodes = (
"210 0 LINE",
"210 127 LINE",
"328 127 LINE",
"328 195 LINE",
"210 195 LINE",
"210 318 LINE",
"529 318 LINE",
"529 393 LINE",
"210 393 LINE",
"210 630 LINE",
"589 630 LINE",
"589 710 LINE",
"120 710 LINE",
"120 195 LINE",
"29 195 LINE",
"29 127 LINE",
"120 127 LINE",
"120 0 LINE"
);
}
);
width = 612;
}
);
unicode = 20A3;
},
{
glyphname = colonmonetary;
lastChange = "2015-11-08 21:02:16 +0000";
layers = (
{
layerId = "BB6A41DF-B2B0-47BB-BB25-47FFE7E0E8E0";
name = Regular;
paths = (
{
closed = 1;
nodes = (
"228 -120 LINE",
"272 -120 LINE",
"272 -8 LINE",
"282 -9 OFFCURVE",
"293 -10 OFFCURVE",
"304 -10 CURVE SMOOTH",
"313 -10 OFFCURVE",
"323 -9 OFFCURVE",
"332 -8 CURVE",
"332 -120 LINE",
"376 -120 LINE",
"376 -1 LINE",
"447 17 OFFCURVE",
"503 63 OFFCURVE",
"527 121 CURVE",
"441 147 LINE",
"425 103 OFFCURVE",
"363 66 OFFCURVE",
"302 66 CURVE SMOOTH",
"207 66 OFFCURVE",
"128 152 OFFCURVE",
"128 262 CURVE SMOOTH",
"128 373 OFFCURVE",
"204 455 OFFCURVE",
"301 455 CURVE SMOOTH",
"359 455 OFFCURVE",
"410 426 OFFCURVE",
"437 377 CURVE",
"523 404 LINE",
"494 461 OFFCURVE",
"443 504 OFFCURVE",
"376 522 CURVE",
"376 645 LINE",
"332 645 LINE",
"332 529 LINE",
"322 531 OFFCURVE",
"313 531 OFFCURVE",
"303 531 CURVE SMOOTH",
"292 531 OFFCURVE",
"282 530 OFFCURVE",
"272 529 CURVE",
"272 645 LINE",
"228 645 LINE",
"228 521 LINE",
"111 490 OFFCURVE",
"38 384 OFFCURVE",
"38 262 CURVE SMOOTH",
"38 140 OFFCURVE",
"113 33 OFFCURVE",
"228 0 CURVE"
);
}
);
width = 557;
}
);
unicode = 20A1;
},
{
glyphname = uni030F;
lastChange = "2015-11-08 21:02:16 +0000";
layers = (
{
anchors = (
{
name = _top;
position = "{248, 522}";
}
);
layerId = "BB6A41DF-B2B0-47BB-BB25-47FFE7E0E8E0";
name = Regular;
paths = (
{
closed = 1;
nodes = (
"202 596 LINE",
"113 751 LINE",
"7 751 LINE",
"152 596 LINE"
);
},
{
closed = 1;
nodes = (
"369 596 LINE",
"280 751 LINE",
"174 751 LINE",
"319 596 LINE"
);
}
);
width = 338;
}
);
unicode = 030F;
},
{
glyphname = uni0311;
lastChange = "2015-11-08 21:02:16 +0000";
layers = (
{
anchors = (
{
name = _top;
position = "{148, 522}";
}
);
layerId = "BB6A41DF-B2B0-47BB-BB25-47FFE7E0E8E0";
name = Regular;
paths = (
{
closed = 1;
nodes = (
"184 694 OFFCURVE",
"217 656 OFFCURVE",
"222 605 CURVE",
"288 605 LINE",
"288 688 OFFCURVE",
"226 751 OFFCURVE",
"146 751 CURVE SMOOTH",
"66 751 OFFCURVE",
"4 688 OFFCURVE",
"4 605 CURVE",
"71 605 LINE",
"71 652 OFFCURVE",
"107 694 OFFCURVE",
"146 694 CURVE SMOOTH"
);
}
);
width = 296;
}
);
unicode = 0311;
},
{
glyphname = dotbelow;
lastChange = "2015-11-08 21:02:16 +0000";
layers = (
{
anchors = (
{
name = bottom;
position = "{92, -1}";
}
);
layerId = "BB6A41DF-B2B0-47BB-BB25-47FFE7E0E8E0";
name = Regular;
paths = (
{
closed = 1;
nodes = (
"122 -187 OFFCURVE",
"148 -160 OFFCURVE",
"148 -129 CURVE SMOOTH",
"148 -98 OFFCURVE",
"122 -71 OFFCURVE",
"91 -71 CURVE SMOOTH",
"60 -71 OFFCURVE",
"34 -98 OFFCURVE",
"34 -129 CURVE SMOOTH",
"34 -160 OFFCURVE",
"60 -187 OFFCURVE",
"91 -187 CURVE SMOOTH"
);
}
);
width = 180;
}
);
},
{
glyphname = currency;
lastChange = "2015-11-08 21:02:16 +0000";
layers = (
{
layerId = "BB6A41DF-B2B0-47BB-BB25-47FFE7E0E8E0";
name = Regular;
paths = (
{
closed = 1;
nodes = (
"89 558 LINE",
"48 517 LINE",
"119 445 LINE",
"98 415 OFFCURVE",
"87 377 OFFCURVE",
"87 337 CURVE SMOOTH",
"87 297 OFFCURVE",
"99 260 OFFCURVE",
"120 229 CURVE",
"48 157 LINE",
"84 121 LINE",
"157 190 LINE",
"187 168 OFFCURVE",
"225 154 OFFCURVE",
"269 154 CURVE SMOOTH",
"313 154 OFFCURVE",
"351 168 OFFCURVE",
"380 190 CURVE",
"454 121 LINE",
"490 157 LINE",
"417 229 LINE",
"439 260 OFFCURVE",
"451 297 OFFCURVE",
"451 337 CURVE SMOOTH",
"451 377 OFFCURVE",
"439 415 OFFCURVE",
"418 445 CURVE",
"490 517 LINE",
"449 558 LINE",
"378 486 LINE",
"348 508 OFFCURVE",
"311 521 OFFCURVE",
"269 521 CURVE SMOOTH",
"226 521 OFFCURVE",
"189 508 OFFCURVE",
"160 486 CURVE"
);
},
{
closed = 1;
nodes = (
"159 406 OFFCURVE",
"208 459 OFFCURVE",
"269 459 CURVE SMOOTH",
"330 459 OFFCURVE",
"379 407 OFFCURVE",
"379 338 CURVE SMOOTH",
"379 269 OFFCURVE",
"330 215 OFFCURVE",
"269 215 CURVE SMOOTH",
"208 215 OFFCURVE",
"159 268 OFFCURVE",
"159 336 CURVE SMOOTH"
);
}
);
width = 538;
}
);
unicode = 00A4;
},
{
glyphname = afii61352;
lastChange = "2015-11-08 21:02:16 +0000";
layers = (
{
layerId = "BB6A41DF-B2B0-47BB-BB25-47FFE7E0E8E0";
name = Regular;
paths = (
{
closed = 1;
nodes = (
"609 0 LINE",
"685 0 LINE",
"685 709 LINE",
"595 709 LINE",
"595 157 LINE",
"155 710 LINE",
"85 710 LINE",
"85 0 LINE",
"175 0 LINE",
"175 542 LINE"
);
},
{
closed = 1;
nodes = (
"1067 344 OFFCURVE",
"1139 430 OFFCURVE",
"1139 527 CURVE SMOOTH",
"1139 627 OFFCURVE",
"1066 711 OFFCURVE",
"957 711 CURVE SMOOTH",
"848 711 OFFCURVE",
"775 627 OFFCURVE",
"775 527 CURVE SMOOTH",
"775 430 OFFCURVE",
"847 344 OFFCURVE",
"957 344 CURVE SMOOTH"
);
},
{
closed = 1;
nodes = (
"847 596 OFFCURVE",
"896 649 OFFCURVE",
"957 649 CURVE SMOOTH",
"1018 649 OFFCURVE",
"1067 597 OFFCURVE",
"1067 528 CURVE SMOOTH",
"1067 459 OFFCURVE",
"1018 405 OFFCURVE",
"957 405 CURVE SMOOTH",
"896 405 OFFCURVE",
"847 458 OFFCURVE",
"847 526 CURVE SMOOTH"
);
}
);
width = 1157;
}
);
unicode = 2116;
},
{
glyphname = uni20B9;
lastChange = "2015-11-08 21:02:16 +0000";
layers = (
{
layerId = "BB6A41DF-B2B0-47BB-BB25-47FFE7E0E8E0";
name = Regular;
paths = (
{
closed = 1;
nodes = (
"462 589 LINE",
"336 589 LINE",
"323 615 OFFCURVE",
"304 638 OFFCURVE",
"282 658 CURVE",
"462 658 LINE",
"462 710 LINE",
"42 710 LINE",
"42 630 LINE",
"143 630 LINE SMOOTH",
"176 630 OFFCURVE",
"208 614 OFFCURVE",
"231 589 CURVE",
"42 589 LINE",
"42 537 LINE",
"262 537 LINE",
"268 520 OFFCURVE",
"272 502 OFFCURVE",
"272 483 CURVE SMOOTH",
"272 405 OFFCURVE",
"223 335 OFFCURVE",
"149 335 CURVE SMOOTH",
"72 335 LINE",
"284 0 LINE",
"386 0 LINE",
"214 272 LINE",
"304 295 OFFCURVE",
"363 384 OFFCURVE",
"363 483 CURVE SMOOTH",
"363 501 OFFCURVE",
"360 519 OFFCURVE",
"356 537 CURVE",
"462 537 LINE"
);
}
);
width = 499;
}
);
unicode = 20B9;
},
{
glyphname = servicemark;
lastChange = "2015-11-08 21:02:16 +0000";
layers = (
{
layerId = "BB6A41DF-B2B0-47BB-BB25-47FFE7E0E8E0";
name = Regular;
paths = (
{
closed = 1;
nodes = (
"507 532 LINE",
"430 710 LINE",
"345 710 LINE",
"345 420 LINE",
"405 420 LINE",
"405 628 LINE",
"483 462 LINE",
"532 462 LINE",
"610 628 LINE",
"610 420 LINE",
"670 420 LINE",
"670 710 LINE",
"584 710 LINE"
);
},
{
closed = 1;
nodes = (
"284 682 LINE",
"256 702 OFFCURVE",
"221 715 OFFCURVE",
"177 715 CURVE SMOOTH",
"110 715 OFFCURVE",
"60 684 OFFCURVE",
"60 628 CURVE SMOOTH",
"60 574 OFFCURVE",
"95 555 OFFCURVE",
"162 539 CURVE SMOOTH",
"220 525 OFFCURVE",
"235 516 OFFCURVE",
"235 494 CURVE SMOOTH",
"235 478 OFFCURVE",
"216 469 OFFCURVE",
"181 469 CURVE SMOOTH",
"136 469 OFFCURVE",
"96 486 OFFCURVE",
"79 503 CURVE",
"51 458 LINE",
"87 431 OFFCURVE",
"131 416 OFFCURVE",
"180 416 CURVE SMOOTH",
"248 416 OFFCURVE",
"299 441 OFFCURVE",
"299 498 CURVE SMOOTH",
"299 558 OFFCURVE",
"256 579 OFFCURVE",
"188 594 CURVE SMOOTH",
"132 606 OFFCURVE",
"122 617 OFFCURVE",
"122 634 CURVE SMOOTH",
"122 652 OFFCURVE",
"139 663 OFFCURVE",
"176 663 CURVE SMOOTH",
"213 663 OFFCURVE",
"247 647 OFFCURVE",
"261 632 CURVE"
);
}
);
width = 739;
}
);
leftKerningGroup = servicemark;
rightKerningGroup = servicemark;
unicode = 2120;
},
{
glyphname = Schwa;
lastChange = "2015-11-08 21:02:16 +0000";
layers = (
{
layerId = "BB6A41DF-B2B0-47BB-BB25-47FFE7E0E8E0";
name = Regular;
paths = (
{
closed = 1;
nodes = (
"550 -5 OFFCURVE",
"696 152 OFFCURVE",
"696 353 CURVE SMOOTH",
"696 555 OFFCURVE",
"550 715 OFFCURVE",
"367 715 CURVE SMOOTH",
"245 715 OFFCURVE",
"125 643 OFFCURVE",
"73 538 CURVE",
"158 499 LINE",
"183 576 OFFCURVE",
"267 632 OFFCURVE",
"359 632 CURVE SMOOTH",
"481 632 OFFCURVE",
"583 529 OFFCURVE",
"597 392 CURVE",
"30 392 LINE",
"28 384 OFFCURVE",
"27 366 OFFCURVE",
"27 349 CURVE SMOOTH",
"27 154 OFFCURVE",
"178 -5 OFFCURVE",
"364 -5 CURVE SMOOTH"
);
},
{
closed = 1;
nodes = (
"238 76 OFFCURVE",
"132 180 OFFCURVE",
"124 314 CURVE",
"599 314 LINE",
"590 177 OFFCURVE",
"491 76 OFFCURVE",
"366 76 CURVE SMOOTH"
);
}
);
width = 736;
}
);
leftKerningGroup = Schwa;
rightKerningGroup = O;
unicode = 018F;
},
{
glyphname = approxequal;
lastChange = "2015-11-08 21:02:16 +0000";
layers = (
{
layerId = "BB6A41DF-B2B0-47BB-BB25-47FFE7E0E8E0";
name = Regular;
paths = (
{
closed = 1;
nodes = (
"334 375 LINE",
"324 364 OFFCURVE",
"308 353 OFFCURVE",
"278 353 CURVE SMOOTH",
"229 353 OFFCURVE",
"206 396 OFFCURVE",
"149 396 CURVE SMOOTH",
"105 396 OFFCURVE",
"79 374 OFFCURVE",
"63 349 CURVE",
"103 305 LINE",
"110 318 OFFCURVE",
"124 331 OFFCURVE",
"151 331 CURVE SMOOTH",
"194 331 OFFCURVE",
"220 289 OFFCURVE",
"280 289 CURVE SMOOTH",
"325 289 OFFCURVE",
"354 310 OFFCURVE",
"372 335 CURVE"
);
},
{
closed = 1;
nodes = (
"334 243 LINE",
"324 231 OFFCURVE",
"308 221 OFFCURVE",
"278 221 CURVE SMOOTH",
"229 221 OFFCURVE",
"206 264 OFFCURVE",
"149 264 CURVE SMOOTH",
"105 264 OFFCURVE",
"79 242 OFFCURVE",
"63 217 CURVE",
"103 173 LINE",
"110 186 OFFCURVE",
"124 199 OFFCURVE",
"151 199 CURVE SMOOTH",
"194 199 OFFCURVE",
"220 157 OFFCURVE",
"280 157 CURVE SMOOTH",
"325 157 OFFCURVE",
"354 176 OFFCURVE",
"372 198 CURVE"
);
}
);
width = 435;
}
);
unicode = 2248;
},
{
glyphname = notequal;
lastChange = "2015-11-08 21:02:16 +0000";
layers = (
{
layerId = "BB6A41DF-B2B0-47BB-BB25-47FFE7E0E8E0";
name = Regular;
paths = (
{
closed = 1;
nodes = (
"88 313 LINE",
"236 313 LINE",
"195 239 LINE",
"88 239 LINE",
"88 179 LINE",
"162 179 LINE",
"108 79 LINE",
"146 57 LINE",
"212 179 LINE",
"393 179 LINE",
"393 239 LINE",
"245 239 LINE",
"286 313 LINE",
"393 313 LINE",
"393 373 LINE",
"318 373 LINE",
"373 473 LINE",
"335 495 LINE",
"268 373 LINE",
"88 373 LINE"
);
}
);
width = 481;
}
);
unicode = 2260;
},
{
glyphname = lessequal;
lastChange = "2015-11-08 21:02:16 +0000";
layers = (
{
layerId = "BB6A41DF-B2B0-47BB-BB25-47FFE7E0E8E0";
name = Regular;
paths = (
{
closed = 1;
nodes = (
"389 51 LINE",
"389 123 LINE",
"57 123 LINE",
"57 51 LINE"
);
},
{
closed = 1;
nodes = (
"56 344 LINE",
"386 184 LINE",
"386 272 LINE",
"184 369 LINE",
"386 469 LINE",
"386 553 LINE",
"56 390 LINE"
);
}
);
width = 451;
}
);
unicode = 2264;
},
{
glyphname = greaterequal;
lastChange = "2015-11-08 21:02:16 +0000";
layers = (
{
layerId = "BB6A41DF-B2B0-47BB-BB25-47FFE7E0E8E0";
name = Regular;
paths = (
{
closed = 1;
nodes = (
"394 51 LINE",
"394 123 LINE",
"62 123 LINE",
"62 51 LINE"
);
},
{
closed = 1;
nodes = (
"395 390 LINE",
"65 553 LINE",
"65 469 LINE",
"267 369 LINE",
"65 272 LINE",
"65 184 LINE",
"395 344 LINE"
);
}
);
width = 451;
}
);
unicode = 2265;
},
{
glyphname = Delta;
lastChange = "2015-11-08 21:02:16 +0000";
layers = (
{
layerId = "BB6A41DF-B2B0-47BB-BB25-47FFE7E0E8E0";
name = Regular;
paths = (
{
closed = 1;
nodes = (
"347 710 LINE",
"273 710 LINE",
"8 67 LINE",
"8 0 LINE",
"610 0 LINE",
"610 67 LINE"
);
},
{
closed = 1;
nodes = (
"108 80 LINE",
"310 606 LINE",
"511 80 LINE"
);
}
);
width = 618;
}
);
unicode = 2206;
},
{
glyphname = uni0394;
lastChange = "2015-11-08 21:02:16 +0000";
layers = (
{
layerId = "BB6A41DF-B2B0-47BB-BB25-47FFE7E0E8E0";
name = Regular;
paths = (
{
closed = 1;
nodes = (
"361 710 LINE",
"287 710 LINE",
"22 67 LINE",
"22 0 LINE",
"624 0 LINE",
"624 67 LINE"
);
},
{
closed = 1;
nodes = (
"122 80 LINE",
"324 606 LINE",
"525 80 LINE"
);
}
);
width = 647;
}
);
leftKerningGroup = uni0394;
rightKerningGroup = uni0394;
unicode = 0394;
},
{
glyphname = product;
lastChange = "2015-11-08 21:02:16 +0000";
layers = (
{
layerId = "BB6A41DF-B2B0-47BB-BB25-47FFE7E0E8E0";
name = Regular;
paths = (
{
closed = 1;
nodes = (
"528 -90 LINE",
"613 -90 LINE",
"613 630 LINE",
"693 630 LINE",
"693 710 LINE",
"32 710 LINE",
"32 630 LINE",
"112 630 LINE",
"112 -90 LINE",
"197 -90 LINE",
"197 630 LINE",
"528 630 LINE"
);
}
);
width = 725;
}
);
unicode = 220F;
},
{
glyphname = summation;
lastChange = "2015-11-08 21:02:16 +0000";
layers = (
{
layerId = "BB6A41DF-B2B0-47BB-BB25-47FFE7E0E8E0";
name = Regular;
paths = (
{
closed = 1;
nodes = (
"497 710 LINE",
"39 710 LINE",
"39 654 LINE",
"255 356 LINE",
"32 63 LINE",
"32 0 LINE",
"512 0 LINE",
"512 80 LINE",
"138 80 LINE",
"138 84 LINE",
"350 369 LINE",
"159 633 LINE",
"159 637 LINE",
"497 637 LINE"
);
}
);
width = 546;
}
);
unicode = 2211;
},
{
glyphname = radical;
lastChange = "2015-11-08 21:02:16 +0000";
layers = (
{
layerId = "BB6A41DF-B2B0-47BB-BB25-47FFE7E0E8E0";
name = Regular;
paths = (
{
closed = 1;
nodes = (
"10 301 LINE",
"94 301 LINE",
"180 0 LINE",
"274 0 LINE",
"426 790 LINE",
"342 790 LINE",
"230 77 LINE",
"167 365 LINE",
"10 365 LINE"
);
}
);
width = 464;
}
);
unicode = 221A;
},
{
glyphname = infinity;
lastChange = "2015-11-08 21:02:16 +0000";
layers = (
{
layerId = "BB6A41DF-B2B0-47BB-BB25-47FFE7E0E8E0";
name = Regular;
paths = (
{
closed = 1;
nodes = (
"112 517 OFFCURVE",
"43 443 OFFCURVE",
"43 352 CURVE SMOOTH",
"43 261 OFFCURVE",
"122 186 OFFCURVE",
"203 186 CURVE SMOOTH",
"281 186 OFFCURVE",
"318 224 OFFCURVE",
"345 269 CURVE",
"373 224 OFFCURVE",
"410 186 OFFCURVE",
"482 186 CURVE SMOOTH",
"573 186 OFFCURVE",
"642 260 OFFCURVE",
"642 351 CURVE SMOOTH",
"642 442 OFFCURVE",
"580 517 OFFCURVE",
"483 517 CURVE SMOOTH",
"407 517 OFFCURVE",
"372 475 OFFCURVE",
"343 425 CURVE",
"314 475 OFFCURVE",
"278 517 OFFCURVE",
"203 517 CURVE SMOOTH"
);
},
{
closed = 1;
nodes = (
"160 256 OFFCURVE",
"113 284 OFFCURVE",
"113 352 CURVE SMOOTH",
"113 419 OFFCURVE",
"160 446 OFFCURVE",
"203 446 CURVE SMOOTH",
"261 446 OFFCURVE",
"289 402 OFFCURVE",
"315 350 CURVE",
"289 299 OFFCURVE",
"260 256 OFFCURVE",
"203 256 CURVE SMOOTH"
);
},
{
closed = 1;
nodes = (
"427 256 OFFCURVE",
"398 297 OFFCURVE",
"373 346 CURVE",
"397 400 OFFCURVE",
"423 446 OFFCURVE",
"483 446 CURVE SMOOTH",
"526 446 OFFCURVE",
"572 419 OFFCURVE",
"572 352 CURVE SMOOTH",
"572 284 OFFCURVE",
"526 256 OFFCURVE",
"483 256 CURVE SMOOTH"
);
}
);
width = 686;
}
);
unicode = 221E;
},
{
glyphname = partialdiff;
lastChange = "2015-11-08 21:02:16 +0000";
layers = (
{
layerId = "BB6A41DF-B2B0-47BB-BB25-47FFE7E0E8E0";
name = Regular;
paths = (
{
closed = 1;
nodes = (
"404 -10 OFFCURVE",
"513 130 OFFCURVE",
"513 399 CURVE SMOOTH",
"513 623 OFFCURVE",
"438 715 OFFCURVE",
"293 715 CURVE SMOOTH",
"214 715 OFFCURVE",
"139 688 OFFCURVE",
"96 639 CURVE",
"145 586 LINE",
"171 617 OFFCURVE",
"230 638 OFFCURVE",
"285 638 CURVE SMOOTH",
"374 638 OFFCURVE",
"430 584 OFFCURVE",
"430 419 CURVE SMOOTH",
"430 397 OFFCURVE",
"429 369 OFFCURVE",
"426 340 CURVE",
"406 397 OFFCURVE",
"346 434 OFFCURVE",
"271 434 CURVE SMOOTH",
"139 434 OFFCURVE",
"26 321 OFFCURVE",
"26 195 CURVE SMOOTH",
"26 81 OFFCURVE",
"117 -10 OFFCURVE",
"245 -10 CURVE SMOOTH"
);
},
{
closed = 1;
nodes = (
"169 66 OFFCURVE",
"110 126 OFFCURVE",
"110 202 CURVE SMOOTH",
"110 289 OFFCURVE",
"187 363 OFFCURVE",
"273 363 CURVE SMOOTH",
"350 363 OFFCURVE",
"410 304 OFFCURVE",
"410 228 CURVE SMOOTH",
"410 142 OFFCURVE",
"334 66 OFFCURVE",
"247 66 CURVE SMOOTH"
);
}
);
width = 562;
}
);
unicode = 2202;
},
{
glyphname = pi;
lastChange = "2015-11-08 21:02:16 +0000";
layers = (
{
layerId = "BB6A41DF-B2B0-47BB-BB25-47FFE7E0E8E0";
name = Regular;
paths = (
{
closed = 1;
nodes = (
"371 442 LINE",
"371 103 LINE SMOOTH",
"371 34 OFFCURVE",
"413 -7 OFFCURVE",
"478 -7 CURVE SMOOTH",
"509 -7 OFFCURVE",
"554 2 OFFCURVE",
"583 14 CURVE",
"569 85 LINE",
"552 78 OFFCURVE",
"530 73 OFFCURVE",
"515 73 CURVE SMOOTH",
"478 73 OFFCURVE",
"456 96 OFFCURVE",
"456 135 CURVE SMOOTH",
"456 442 LINE",
"566 442 LINE",
"566 522 LINE",
"25 522 LINE",
"25 442 LINE",
"105 442 LINE",
"105 0 LINE",
"190 0 LINE",
"190 442 LINE"
);
}
);
width = 609;
}
);
leftKerningGroup = pi;
rightKerningGroup = pi;
unicode = 03C0;
},
{
glyphname = Omega;
lastChange = "2015-11-08 21:02:16 +0000";
layers = (
{
layerId = "BB6A41DF-B2B0-47BB-BB25-47FFE7E0E8E0";
name = Regular;
paths = (
{
closed = 1;
nodes = (
"44 0 LINE",
"333 0 LINE",
"333 79 LINE",
"218 117 OFFCURVE",
"145 245 OFFCURVE",
"145 365 CURVE SMOOTH",
"145 498 OFFCURVE",
"235 633 OFFCURVE",
"380 633 CURVE SMOOTH",
"525 633 OFFCURVE",
"615 498 OFFCURVE",
"615 365 CURVE SMOOTH",
"615 245 OFFCURVE",
"542 117 OFFCURVE",
"427 79 CURVE",
"427 0 LINE",
"716 0 LINE",
"716 79 LINE",
"537 79 LINE",
"641 137 OFFCURVE",
"706 242 OFFCURVE",
"706 365 CURVE SMOOTH",
"706 549 OFFCURVE",
"566 715 OFFCURVE",
"380 715 CURVE SMOOTH",
"194 715 OFFCURVE",
"54 549 OFFCURVE",
"54 365 CURVE SMOOTH",
"54 242 OFFCURVE",
"119 137 OFFCURVE",
"223 79 CURVE",
"44 79 LINE"
);
}
);
width = 760;
}
);
leftKerningGroup = Omega;
rightKerningGroup = Omega;
unicode = 2126;
},
{
glyphname = uni03A9;
lastChange = "2015-11-08 21:02:16 +0000";
layers = (
{
layerId = "BB6A41DF-B2B0-47BB-BB25-47FFE7E0E8E0";
name = Regular;
paths = (
{
closed = 1;
nodes = (
"44 0 LINE",
"333 0 LINE",
"333 79 LINE",
"218 117 OFFCURVE",
"145 245 OFFCURVE",
"145 365 CURVE SMOOTH",
"145 498 OFFCURVE",
"235 633 OFFCURVE",
"380 633 CURVE SMOOTH",
"525 633 OFFCURVE",
"615 498 OFFCURVE",
"615 365 CURVE SMOOTH",
"615 245 OFFCURVE",
"542 117 OFFCURVE",
"427 79 CURVE",
"427 0 LINE",
"716 0 LINE",
"716 79 LINE",
"537 79 LINE",
"641 137 OFFCURVE",
"706 242 OFFCURVE",
"706 365 CURVE SMOOTH",
"706 549 OFFCURVE",
"566 715 OFFCURVE",
"380 715 CURVE SMOOTH",
"194 715 OFFCURVE",
"54 549 OFFCURVE",
"54 365 CURVE SMOOTH",
"54 242 OFFCURVE",
"119 137 OFFCURVE",
"223 79 CURVE",
"44 79 LINE"
);
}
);
width = 760;
}
);
leftKerningGroup = Omega;
rightKerningGroup = Omega;
unicode = 03A9;
},
{
glyphname = estimated;
lastChange = "2015-11-08 21:02:16 +0000";
layers = (
{
layerId = "BB6A41DF-B2B0-47BB-BB25-47FFE7E0E8E0";
name = Regular;
paths = (
{
closed = 1;
nodes = (
"243 27 OFFCURVE",
"187 57 OFFCURVE",
"149 105 CURVE",
"149 255 LINE",
"569 255 LINE",
"569 407 OFFCURVE",
"461 531 OFFCURVE",
"305 531 CURVE SMOOTH",
"150 531 OFFCURVE",
"42 406 OFFCURVE",
"42 260 CURVE SMOOTH",
"42 115 OFFCURVE",
"148 -10 OFFCURVE",
"305 -10 CURVE SMOOTH",
"405 -10 OFFCURVE",
"473 26 OFFCURVE",
"520 73 CURVE",
"494 101 LINE",
"456 61 OFFCURVE",
"397 27 OFFCURVE",
"305 27 CURVE SMOOTH"
);
},
{
closed = 1;
nodes = (
"368 494 OFFCURVE",
"424 463 OFFCURVE",
"463 413 CURVE",
"463 295 LINE",
"149 295 LINE",
"149 414 LINE",
"187 463 OFFCURVE",
"243 494 OFFCURVE",
"305 494 CURVE SMOOTH"
);
}
);
width = 599;
}
);
unicode = 212E;
},
{
glyphname = integral;
lastChange = "2015-11-08 21:02:16 +0000";
layers = (
{
layerId = "BB6A41DF-B2B0-47BB-BB25-47FFE7E0E8E0";
name = Regular;
paths = (
{
closed = 1;
nodes = (
"139 -35 LINE SMOOTH",
"141 -73 OFFCURVE",
"117 -97 OFFCURVE",
"83 -97 CURVE SMOOTH",
"68 -97 OFFCURVE",
"47 -92 OFFCURVE",
"29 -85 CURVE",
"8 -146 LINE",
"38 -158 OFFCURVE",
"82 -167 OFFCURVE",
"113 -167 CURVE SMOOTH",
"182 -167 OFFCURVE",
"222 -126 OFFCURVE",
"218 -57 CURVE SMOOTH",
"177 688 LINE SMOOTH",
"175 727 OFFCURVE",
"199 750 OFFCURVE",
"233 750 CURVE SMOOTH",
"248 750 OFFCURVE",
"270 745 OFFCURVE",
"288 738 CURVE",
"309 799 LINE",
"279 811 OFFCURVE",
"234 820 OFFCURVE",
"203 820 CURVE SMOOTH",
"133 820 OFFCURVE",
"94 772 OFFCURVE",
"97 710 CURVE SMOOTH"
);
}
);
width = 316;
}
);
unicode = 222B;
},
{
glyphname = lozenge;
lastChange = "2015-11-08 21:02:16 +0000";
layers = (
{
layerId = "BB6A41DF-B2B0-47BB-BB25-47FFE7E0E8E0";
name = Regular;
paths = (
{
closed = 1;
nodes = (
"214 730 LINE",
"28 366 LINE",
"214 0 LINE",
"308 0 LINE",
"494 366 LINE",
"308 730 LINE"
);
},
{
closed = 1;
nodes = (
"269 65 LINE",
"115 375 LINE",
"260 662 LINE",
"415 354 LINE"
);
}
);
width = 522;
}
);
unicode = 25CA;
},
{
glyphname = uni02C9;
lastChange = "2015-11-08 21:02:16 +0000";
layers = (
{
layerId = "BB6A41DF-B2B0-47BB-BB25-47FFE7E0E8E0";
name = Regular;
paths = (
{
closed = 1;
nodes = (
"348 654 LINE",
"348 712 LINE",
"56 712 LINE",
"56 654 LINE"
);
}
);
width = 403;
}
);
unicode = 02C9;
},
{
glyphname = uni2113;
lastChange = "2015-11-08 21:02:16 +0000";
layers = (
{
layerId = "BB6A41DF-B2B0-47BB-BB25-47FFE7E0E8E0";
name = Regular;
paths = (
{
closed = 1;
nodes = (
"172 73 OFFCURVE",
"146 96 OFFCURVE",
"146 135 CURVE SMOOTH",
"146 241 LINE",
"240 328 OFFCURVE",
"329 506 OFFCURVE",
"329 610 CURVE SMOOTH",
"329 687 OFFCURVE",
"278 740 OFFCURVE",
"203 740 CURVE SMOOTH",
"127 740 OFFCURVE",
"68 684 OFFCURVE",
"68 610 CURVE SMOOTH",
"68 103 LINE SMOOTH",
"68 34 OFFCURVE",
"109 -7 OFFCURVE",
"178 -7 CURVE SMOOTH",
"209 -7 OFFCURVE",
"254 2 OFFCURVE",
"283 14 CURVE",
"269 85 LINE",
"251 78 OFFCURVE",
"229 73 OFFCURVE",
"213 73 CURVE SMOOTH"
);
},
{
closed = 1;
nodes = (
"258 531 OFFCURVE",
"204 406 OFFCURVE",
"146 333 CURVE",
"146 610 LINE SMOOTH",
"146 646 OFFCURVE",
"170 671 OFFCURVE",
"204 671 CURVE SMOOTH",
"238 671 OFFCURVE",
"258 647 OFFCURVE",
"258 604 CURVE SMOOTH"
);
}
);
width = 329;
}
);
unicode = 2113;
},
{
glyphname = zero.numerator;
lastChange = "2015-11-08 21:02:16 +0000";
layers = (
{
layerId = "BB6A41DF-B2B0-47BB-BB25-47FFE7E0E8E0";
name = Regular;
paths = (
{
closed = 1;
nodes = (
"356 319 OFFCURVE",
"431 425 OFFCURVE",
"431 524 CURVE SMOOTH",
"431 613 OFFCURVE",
"364 730 OFFCURVE",
"234 730 CURVE SMOOTH",
"112 730 OFFCURVE",
"36 622 OFFCURVE",
"36 524 CURVE SMOOTH",
"36 433 OFFCURVE",
"103 319 OFFCURVE",
"234 319 CURVE SMOOTH"
);
},
{
closed = 1;
nodes = (
"93 588 OFFCURVE",
"138 675 OFFCURVE",
"234 675 CURVE SMOOTH",
"324 675 OFFCURVE",
"375 595 OFFCURVE",
"375 524 CURVE SMOOTH",
"375 461 OFFCURVE",
"330 374 OFFCURVE",
"234 374 CURVE SMOOTH",
"142 374 OFFCURVE",
"93 454 OFFCURVE",
"93 524 CURVE SMOOTH"
);
}
);
width = 467;
}
);
},
{
glyphname = one.numerator;
lastChange = "2015-11-08 21:02:16 +0000";
layers = (
{
layerId = "BB6A41DF-B2B0-47BB-BB25-47FFE7E0E8E0";
name = Regular;
paths = (
{
closed = 1;
nodes = (
"185 320 LINE",
"185 731 LINE",
"129 731 LINE",
"34 675 LINE",
"64 631 LINE",
"129 669 LINE",
"129 320 LINE"
);
}
);
width = 280;
}
);
},
{
glyphname = two.numerator;
lastChange = "2015-11-08 21:02:16 +0000";
layers = (
{
layerId = "BB6A41DF-B2B0-47BB-BB25-47FFE7E0E8E0";
name = Regular;
paths = (
{
closed = 1;
nodes = (
"352 320 LINE",
"352 374 LINE",
"121 374 LINE",
"121 409 OFFCURVE",
"139 453 OFFCURVE",
"221 480 CURVE SMOOTH",
"275 497 OFFCURVE",
"359 524 OFFCURVE",
"359 608 CURVE SMOOTH",
"359 680 OFFCURVE",
"308 731 OFFCURVE",
"208 731 CURVE SMOOTH",
"109 731 OFFCURVE",
"51 681 OFFCURVE",
"38 663 CURVE",
"74 624 LINE",
"95 646 OFFCURVE",
"136 677 OFFCURVE",
"200 677 CURVE SMOOTH",
"264 677 OFFCURVE",
"297 648 OFFCURVE",
"297 609 CURVE SMOOTH",
"297 550 OFFCURVE",
"223 532 OFFCURVE",
"161 508 CURVE SMOOTH",
"73 473 OFFCURVE",
"34 425 OFFCURVE",
"34 320 CURVE"
);
}
);
width = 396;
}
);
},
{
glyphname = three.numerator;
lastChange = "2015-11-08 21:02:16 +0000";
layers = (
{
layerId = "BB6A41DF-B2B0-47BB-BB25-47FFE7E0E8E0";
name = Regular;
paths = (
{
closed = 1;
nodes = (
"278 314 OFFCURVE",
"357 354 OFFCURVE",
"357 427 CURVE SMOOTH",
"357 479 OFFCURVE",
"317 522 OFFCURVE",
"254 531 CURVE",
"313 543 OFFCURVE",
"346 573 OFFCURVE",
"346 619 CURVE SMOOTH",
"346 683 OFFCURVE",
"278 731 OFFCURVE",
"187 731 CURVE SMOOTH",
"123 731 OFFCURVE",
"61 708 OFFCURVE",
"35 669 CURVE",
"72 626 LINE",
"93 658 OFFCURVE",
"133 680 OFFCURVE",
"187 680 CURVE SMOOTH",
"239 680 OFFCURVE",
"287 656 OFFCURVE",
"287 616 CURVE SMOOTH",
"287 574 OFFCURVE",
"235 554 OFFCURVE",
"152 554 CURVE SMOOTH",
"129 554 LINE",
"129 503 LINE",
"152 503 LINE SMOOTH",
"243 503 OFFCURVE",
"301 479 OFFCURVE",
"301 435 CURVE SMOOTH",
"301 395 OFFCURVE",
"251 370 OFFCURVE",
"189 370 CURVE SMOOTH",
"116 370 OFFCURVE",
"68 410 OFFCURVE",
"64 438 CURVE",
"32 400 LINE",
"45 347 OFFCURVE",
"107 314 OFFCURVE",
"190 314 CURVE SMOOTH"
);
}
);
width = 394;
}
);
},
{
glyphname = four.numerator;
lastChange = "2015-11-08 21:02:16 +0000";
layers = (
{
layerId = "BB6A41DF-B2B0-47BB-BB25-47FFE7E0E8E0";
name = Regular;
paths = (
{
closed = 1;
nodes = (
"304 325 LINE",
"304 424 LINE",
"363 424 LINE",
"363 478 LINE",
"304 478 LINE",
"304 730 LINE",
"266 730 LINE",
"23 477 LINE",
"23 424 LINE",
"249 424 LINE",
"249 325 LINE"
);
},
{
closed = 1;
nodes = (
"251 658 LINE",
"251 478 LINE",
"80 478 LINE"
);
}
);
width = 392;
}
);
},
